solid BigRadius
facet normal -1 0 0
outer loop
vertex 0 0 0
vertex 0 0 1000000000000
vertex 0 1000000000000 1000000000000
endloop
endfacet
facet normal -1 0 0
outer loop
vertex 0 0 0
vertex 0 1000000000000 1000000000000
vertex 0 1000000000000 0
endloop
endfacet
facet normal 1 0 0
outer loop
vertex 1000000000000 0 0
vertex 1000000000000 1000000000000 0
vertex 1000000000000 1000000000000 1000000000000
endloop
endfacet
facet normal 1 0 0
outer loop
vertex 1000000000000 0 0
vertex 1000000000000 1000000000000 1000000000000
vertex 1000000000000 0 1000000000000
endloop
endfacet
facet normal 0 -1 0
outer loop
vertex 0 0 0
vertex 1000000000000 0 0
vertex 1000000000000 0 1000000000000
endloop
endfacet
facet normal 0 -1 0
outer loop
vertex 0 0 0
vertex 1000000000000 0 1000000000000
vertex 0 0 1000000000000
endloop
endfacet
facet normal 0 1 0
outer loop
vertex 0 1000000000000 0
vertex 0 1000000000000 1000000000000
vertex 1000000000000 1000000000000 1000000000000
endloop
endfacet
facet normal 0 1 0
outer loop
vertex 0 1000000000000 0
vertex 1000000000000 1000000000000 1000000000000
vertex 1000000000000 1000000000000 0
endloop
endfacet
facet normal 0 0 -1
outer loop
vertex 0 0 0
vertex 0 1000000000000 0
vertex 1000000000000 1000000000000 0
endloop
endfacet
facet normal 0 0 -1
outer loop
vertex 0 0 0
vertex 1000000000000 1000000000000 0
vertex 1000000000000 0 0
endloop
endfacet
facet normal 0 0 1
outer loop
vertex 0 0 1000000000000
vertex 1000000000000 0 1000000000000
vertex 1000000000000 1000000000000 1000000000000
endloop
endfacet
facet normal 0 0 1
outer loop
vertex 0 0 1000000000000
vertex 1000000000000 1000000000000 1000000000000
vertex 0 1000000000000 1000000000000
endloop
endfacet
endsolid BigRadius
