solid BigRadiusCentered
facet normal 0 -1 0
outer loop
vertex 0 -0.5 0
vertex 1000000000000 -0.5 0
vertex 866025403784.439 -0.5 500000000000
endloop
endfacet
facet normal 0.965925826289068 0 0.258819045102521
outer loop
vertex 866025403784.439 -0.5 500000000000
vertex 1000000000000 -0.5 0
vertex 1000000000000 0.5 0
endloop
endfacet
facet normal 0.965925826289068 0 0.258819045102521
outer loop
vertex 866025403784.439 -0.5 500000000000
vertex 1000000000000 0.5 0
vertex 866025403784.439 0.5 500000000000
endloop
endfacet
facet normal 0 1 0
outer loop
vertex 0 0.5 0
vertex 866025403784.439 0.5 500000000000
vertex 1000000000000 0.5 0
endloop
endfacet
facet normal 0 -1 0
outer loop
vertex 0 -0.5 0
vertex 866025403784.439 -0.5 500000000000
vertex 500000000000 -0.5 866025403784.439
endloop
endfacet
facet normal 0.707106781186548 0 0.707106781186547
outer loop
vertex 500000000000 -0.5 866025403784.439
vertex 866025403784.439 -0.5 500000000000
vertex 866025403784.439 0.5 500000000000
endloop
endfacet
facet normal 0.707106781186548 0 0.707106781186547
outer loop
vertex 500000000000 -0.5 866025403784.439
vertex 866025403784.439 0.5 500000000000
vertex 500000000000 0.5 866025403784.439
endloop
endfacet
facet normal 0 1 0
outer loop
vertex 0 0.5 0
vertex 500000000000 0.5 866025403784.439
vertex 866025403784.439 0.5 500000000000
endloop
endfacet
facet normal 0 -1 0
outer loop
vertex 0 -0.5 0
vertex 500000000000 -0.5 866025403784.439
vertex 6.12303176911189E-05 -0.5 1000000000000
endloop
endfacet
facet normal 0.258819045102521 0 0.965925826289068
outer loop
vertex 6.12303176911189E-05 -0.5 1000000000000
vertex 500000000000 -0.5 866025403784.439
vertex 500000000000 0.5 866025403784.439
endloop
endfacet
facet normal 0.258819045102521 0 0.965925826289068
outer loop
vertex 6.12303176911189E-05 -0.5 1000000000000
vertex 500000000000 0.5 866025403784.439
vertex 6.12303176911189E-05 0.5 1000000000000
endloop
endfacet
facet normal 0 1 0
outer loop
vertex 0 0.5 0
vertex 6.12303176911189E-05 0.5 1000000000000
vertex 500000000000 0.5 866025403784.439
endloop
endfacet
facet normal 0 -1 0
outer loop
vertex 0 -0.5 0
vertex 6.12303176911189E-05 -0.5 1000000000000
vertex -500000000000 -0.5 866025403784.439
endloop
endfacet
facet normal -0.258819045102521 0 0.965925826289068
outer loop
vertex -500000000000 -0.5 866025403784.439
vertex 6.12303176911189E-05 -0.5 1000000000000
vertex 6.12303176911189E-05 0.5 1000000000000
endloop
endfacet
facet normal -0.258819045102521 0 0.965925826289068
outer loop
vertex -500000000000 -0.5 866025403784.439
vertex 6.12303176911189E-05 0.5 1000000000000
vertex -500000000000 0.5 866025403784.439
endloop
endfacet
facet normal 0 1 0
outer loop
vertex 0 0.5 0
vertex -500000000000 0.5 866025403784.439
vertex 6.12303176911189E-05 0.5 1000000000000
endloop
endfacet
facet normal 0 -1 0
outer loop
vertex 0 -0.5 0
vertex -500000000000 -0.5 866025403784.439
vertex -866025403784.439 -0.5 500000000000
endloop
endfacet
facet normal -0.707106781186547 0 0.707106781186548
outer loop
vertex -866025403784.439 -0.5 500000000000
vertex -500000000000 -0.5 866025403784.439
vertex -500000000000 0.5 866025403784.439
endloop
endfacet
facet normal -0.707106781186547 0 0.707106781186548
outer loop
vertex -866025403784.439 -0.5 500000000000
vertex -500000000000 0.5 866025403784.439
vertex -866025403784.439 0.5 500000000000
endloop
endfacet
facet normal 0 1 0
outer loop
vertex 0 0.5 0
vertex -866025403784.439 0.5 500000000000
vertex -500000000000 0.5 866025403784.439
endloop
endfacet
facet normal 0 -1 0
outer loop
vertex 0 -0.5 0
vertex -866025403784.439 -0.5 500000000000
vertex -1000000000000 -0.5 0.000122460635382238
endloop
endfacet
facet normal -0.965925826289068 0 0.258819045102521
outer loop
vertex -1000000000000 -0.5 0.000122460635382238
vertex -866025403784.439 -0.5 500000000000
vertex -866025403784.439 0.5 500000000000
endloop
endfacet
facet normal -0.965925826289068 0 0.258819045102521
outer loop
vertex -1000000000000 -0.5 0.000122460635382238
vertex -866025403784.439 0.5 500000000000
vertex -1000000000000 0.5 0.000122460635382238
endloop
endfacet
facet normal 0 1 0
outer loop
vertex 0 0.5 0
vertex -1000000000000 0.5 0.000122460635382238
vertex -866025403784.439 0.5 500000000000
endloop
endfacet
facet normal 0 -1 0
outer loop
vertex 0 -0.5 0
vertex -1000000000000 -0.5 0.000122460635382238
vertex -866025403784.439 -0.5 -500000000000
endloop
endfacet
facet normal -0.965925826289068 0 -0.258819045102521
outer loop
vertex -866025403784.439 -0.5 -500000000000
vertex -1000000000000 -0.5 0.000122460635382238
vertex -1000000000000 0.5 0.000122460635382238
endloop
endfacet
facet normal -0.965925826289068 0 -0.258819045102521
outer loop
vertex -866025403784.439 -0.5 -500000000000
vertex -1000000000000 0.5 0.000122460635382238
vertex -866025403784.439 0.5 -500000000000
endloop
endfacet
facet normal 0 1 0
outer loop
vertex 0 0.5 0
vertex -866025403784.439 0.5 -500000000000
vertex -1000000000000 0.5 0.000122460635382238
endloop
endfacet
facet normal 0 -1 0
outer loop
vertex 0 -0.5 0
vertex -866025403784.439 -0.5 -500000000000
vertex -500000000000 -0.5 -866025403784.438
endloop
endfacet
facet normal -0.707106781186548 0 -0.707106781186547
outer loop
vertex -500000000000 -0.5 -866025403784.438
vertex -866025403784.439 -0.5 -500000000000
vertex -866025403784.439 0.5 -500000000000
endloop
endfacet
facet normal -0.707106781186548 0 -0.707106781186547
outer loop
vertex -500000000000 -0.5 -866025403784.438
vertex -866025403784.439 0.5 -500000000000
vertex -500000000000 0.5 -866025403784.438
endloop
endfacet
facet normal 0 1 0
outer loop
vertex 0 0.5 0
vertex -500000000000 0.5 -866025403784.438
vertex -866025403784.439 0.5 -500000000000
endloop
endfacet
facet normal 0 -1 0
outer loop
vertex 0 -0.5 0
vertex -500000000000 -0.5 -866025403784.438
vertex -0.000183690953073357 -0.5 -1000000000000
endloop
endfacet
facet normal -0.258819045102521 0 -0.965925826289068
outer loop
vertex -0.000183690953073357 -0.5 -1000000000000
vertex -500000000000 -0.5 -866025403784.438
vertex -500000000000 0.5 -866025403784.438
endloop
endfacet
facet normal -0.258819045102521 0 -0.965925826289068
outer loop
vertex -0.000183690953073357 -0.5 -1000000000000
vertex -500000000000 0.5 -866025403784.438
vertex -0.000183690953073357 0.5 -1000000000000
endloop
endfacet
facet normal 0 1 0
outer loop
vertex 0 0.5 0
vertex -0.000183690953073357 0.5 -1000000000000
vertex -500000000000 0.5 -866025403784.438
endloop
endfacet
facet normal 0 -1 0
outer loop
vertex 0 -0.5 0
vertex -0.000183690953073357 -0.5 -1000000000000
vertex 500000000000 -0.5 -866025403784.439
endloop
endfacet
facet normal 0.258819045102521 0 -0.965925826289068
outer loop
vertex 500000000000 -0.5 -866025403784.439
vertex -0.000183690953073357 -0.5 -1000000000000
vertex -0.000183690953073357 0.5 -1000000000000
endloop
endfacet
facet normal 0.258819045102521 0 -0.965925826289068
outer loop
vertex 500000000000 -0.5 -866025403784.439
vertex -0.000183690953073357 0.5 -1000000000000
vertex 500000000000 0.5 -866025403784.439
endloop
endfacet
facet normal 0 1 0
outer loop
vertex 0 0.5 0
vertex 500000000000 0.5 -866025403784.439
vertex -0.000183690953073357 0.5 -1000000000000
endloop
endfacet
facet normal 0 -1 0
outer loop
vertex 0 -0.5 0
vertex 500000000000 -0.5 -866025403784.439
vertex 866025403784.438 -0.5 -500000000000
endloop
endfacet
facet normal 0.707106781186547 0 -0.707106781186548
outer loop
vertex 866025403784.438 -0.5 -500000000000
vertex 500000000000 -0.5 -866025403784.439
vertex 500000000000 0.5 -866025403784.439
endloop
endfacet
facet normal 0.707106781186547 0 -0.707106781186548
outer loop
vertex 866025403784.438 -0.5 -500000000000
vertex 500000000000 0.5 -866025403784.439
vertex 866025403784.438 0.5 -500000000000
endloop
endfacet
facet normal 0 1 0
outer loop
vertex 0 0.5 0
vertex 866025403784.438 0.5 -500000000000
vertex 500000000000 0.5 -866025403784.439
endloop
endfacet
facet normal 0 -1 0
outer loop
vertex 0 -0.5 0
vertex 866025403784.438 -0.5 -500000000000
vertex 1000000000000 -0.5 -0.000244921270764475
endloop
endfacet
facet normal 0.965925826289068 0 -0.258819045102521
outer loop
vertex 1000000000000 -0.5 -0.000244921270764475
vertex 866025403784.438 -0.5 -500000000000
vertex 866025403784.438 0.5 -500000000000
endloop
endfacet
facet normal 0.965925826289068 0 -0.258819045102521
outer loop
vertex 1000000000000 -0.5 -0.000244921270764475
vertex 866025403784.438 0.5 -500000000000
vertex 1000000000000 0.5 -0.000244921270764475
endloop
endfacet
facet normal 0 1 0
outer loop
vertex 0 0.5 0
vertex 1000000000000 0.5 -0.000244921270764475
vertex 866025403784.438 0.5 -500000000000
endloop
endfacet
endsolid BigRadiusCentered
