solid Unit
facet normal 0 -1 0
outer loop
vertex 0 0 0
vertex 1 0 0
vertex 0.866025403784439 0 0.5
endloop
endfacet
facet normal 0.965925826289068 0 0.258819045102521
outer loop
vertex 0.866025403784439 0 0.5
vertex 1 0 0
vertex 1 1 0
endloop
endfacet
facet normal 0.965925826289068 0 0.258819045102521
outer loop
vertex 0.866025403784439 0 0.5
vertex 1 1 0
vertex 0.866025403784439 1 0.5
endloop
endfacet
facet normal 0 1 0
outer loop
vertex 0 1 0
vertex 0.866025403784439 1 0.5
vertex 1 1 0
endloop
endfacet
facet normal 0 -1 0
outer loop
vertex 0 0 0
vertex 0.866025403784439 0 0.5
vertex 0.5 0 0.866025403784439
endloop
endfacet
facet normal 0.707106781186548 0 0.707106781186547
outer loop
vertex 0.5 0 0.866025403784439
vertex 0.866025403784439 0 0.5
vertex 0.866025403784439 1 0.5
endloop
endfacet
facet normal 0.707106781186548 0 0.707106781186547
outer loop
vertex 0.5 0 0.866025403784439
vertex 0.866025403784439 1 0.5
vertex 0.5 1 0.866025403784439
endloop
endfacet
facet normal 0 1 0
outer loop
vertex 0 1 0
vertex 0.5 1 0.866025403784439
vertex 0.866025403784439 1 0.5
endloop
endfacet
facet normal 0 -1 0
outer loop
vertex 0 0 0
vertex 0.5 0 0.866025403784439
vertex 6.12303176911189E-17 0 1
endloop
endfacet
facet normal 0.258819045102521 0 0.965925826289068
outer loop
vertex 6.12303176911189E-17 0 1
vertex 0.5 0 0.866025403784439
vertex 0.5 1 0.866025403784439
endloop
endfacet
facet normal 0.258819045102521 0 0.965925826289068
outer loop
vertex 6.12303176911189E-17 0 1
vertex 0.5 1 0.866025403784439
vertex 6.12303176911189E-17 1 1
endloop
endfacet
facet normal 0 1 0
outer loop
vertex 0 1 0
vertex 6.12303176911189E-17 1 1
vertex 0.5 1 0.866025403784439
endloop
endfacet
facet normal 0 -1 0
outer loop
vertex 0 0 0
vertex 6.12303176911189E-17 0 1
vertex -0.5 0 0.866025403784439
endloop
endfacet
facet normal -0.258819045102521 0 0.965925826289068
outer loop
vertex -0.5 0 0.866025403784439
vertex 6.12303176911189E-17 0 1
vertex 6.12303176911189E-17 1 1
endloop
endfacet
facet normal -0.258819045102521 0 0.965925826289068
outer loop
vertex -0.5 0 0.866025403784439
vertex 6.12303176911189E-17 1 1
vertex -0.5 1 0.866025403784439
endloop
endfacet
facet normal 0 1 0
outer loop
vertex 0 1 0
vertex -0.5 1 0.866025403784439
vertex 6.12303176911189E-17 1 1
endloop
endfacet
facet normal 0 -1 0
outer loop
vertex 0 0 0
vertex -0.5 0 0.866025403784439
vertex -0.866025403784439 0 0.5
endloop
endfacet
facet normal -0.707106781186547 0 0.707106781186548
outer loop
vertex -0.866025403784439 0 0.5
vertex -0.5 0 0.866025403784439
vertex -0.5 1 0.866025403784439
endloop
endfacet
facet normal -0.707106781186547 0 0.707106781186548
outer loop
vertex -0.866025403784439 0 0.5
vertex -0.5 1 0.866025403784439
vertex -0.866025403784439 1 0.5
endloop
endfacet
facet normal 0 1 0
outer loop
vertex 0 1 0
vertex -0.866025403784439 1 0.5
vertex -0.5 1 0.866025403784439
endloop
endfacet
facet normal 0 -1 0
outer loop
vertex 0 0 0
vertex -0.866025403784439 0 0.5
vertex -1 0 1.22460635382238E-16
endloop
endfacet
facet normal -0.965925826289068 0 0.258819045102521
outer loop
vertex -1 0 1.22460635382238E-16
vertex -0.866025403784439 0 0.5
vertex -0.866025403784439 1 0.5
endloop
endfacet
facet normal -0.965925826289068 0 0.258819045102521
outer loop
vertex -1 0 1.22460635382238E-16
vertex -0.866025403784439 1 0.5
vertex -1 1 1.22460635382238E-16
endloop
endfacet
facet normal 0 1 0
outer loop
vertex 0 1 0
vertex -1 1 1.22460635382238E-16
vertex -0.866025403784439 1 0.5
endloop
endfacet
facet normal 0 -1 0
outer loop
vertex 0 0 0
vertex -1 0 1.22460635382238E-16
vertex -0.866025403784439 0 -0.5
endloop
endfacet
facet normal -0.965925826289068 0 -0.258819045102521
outer loop
vertex -0.866025403784439 0 -0.5
vertex -1 0 1.22460635382238E-16
vertex -1 1 1.22460635382238E-16
endloop
endfacet
facet normal -0.965925826289068 0 -0.258819045102521
outer loop
vertex -0.866025403784439 0 -0.5
vertex -1 1 1.22460635382238E-16
vertex -0.866025403784439 1 -0.5
endloop
endfacet
facet normal 0 1 0
outer loop
vertex 0 1 0
vertex -0.866025403784439 1 -0.5
vertex -1 1 1.22460635382238E-16
endloop
endfacet
facet normal 0 -1 0
outer loop
vertex 0 0 0
vertex -0.866025403784439 0 -0.5
vertex -0.5 0 -0.866025403784438
endloop
endfacet
facet normal -0.707106781186548 0 -0.707106781186547
outer loop
vertex -0.5 0 -0.866025403784438
vertex -0.866025403784439 0 -0.5
vertex -0.866025403784439 1 -0.5
endloop
endfacet
facet normal -0.707106781186548 0 -0.707106781186547
outer loop
vertex -0.5 0 -0.866025403784438
vertex -0.866025403784439 1 -0.5
vertex -0.5 1 -0.866025403784438
endloop
endfacet
facet normal 0 1 0
outer loop
vertex 0 1 0
vertex -0.5 1 -0.866025403784438
vertex -0.866025403784439 1 -0.5
endloop
endfacet
facet normal 0 -1 0
outer loop
vertex 0 0 0
vertex -0.5 0 -0.866025403784438
vertex -1.83690953073357E-16 0 -1
endloop
endfacet
facet normal -0.258819045102521 0 -0.965925826289068
outer loop
vertex -1.83690953073357E-16 0 -1
vertex -0.5 0 -0.866025403784438
vertex -0.5 1 -0.866025403784438
endloop
endfacet
facet normal -0.258819045102521 0 -0.965925826289068
outer loop
vertex -1.83690953073357E-16 0 -1
vertex -0.5 1 -0.866025403784438
vertex -1.83690953073357E-16 1 -1
endloop
endfacet
facet normal 0 1 0
outer loop
vertex 0 1 0
vertex -1.83690953073357E-16 1 -1
vertex -0.5 1 -0.866025403784438
endloop
endfacet
facet normal 0 -1 0
outer loop
vertex 0 0 0
vertex -1.83690953073357E-16 0 -1
vertex 0.5 0 -0.866025403784439
endloop
endfacet
facet normal 0.258819045102521 0 -0.965925826289068
outer loop
vertex 0.5 0 -0.866025403784439
vertex -1.83690953073357E-16 0 -1
vertex -1.83690953073357E-16 1 -1
endloop
endfacet
facet normal 0.258819045102521 0 -0.965925826289068
outer loop
vertex 0.5 0 -0.866025403784439
vertex -1.83690953073357E-16 1 -1
vertex 0.5 1 -0.866025403784439
endloop
endfacet
facet normal 0 1 0
outer loop
vertex 0 1 0
vertex 0.5 1 -0.866025403784439
vertex -1.83690953073357E-16 1 -1
endloop
endfacet
facet normal 0 -1 0
outer loop
vertex 0 0 0
vertex 0.5 0 -0.866025403784439
vertex 0.866025403784438 0 -0.5
endloop
endfacet
facet normal 0.707106781186547 0 -0.707106781186548
outer loop
vertex 0.866025403784438 0 -0.5
vertex 0.5 0 -0.866025403784439
vertex 0.5 1 -0.866025403784439
endloop
endfacet
facet normal 0.707106781186547 0 -0.707106781186548
outer loop
vertex 0.866025403784438 0 -0.5
vertex 0.5 1 -0.866025403784439
vertex 0.866025403784438 1 -0.5
endloop
endfacet
facet normal 0 1 0
outer loop
vertex 0 1 0
vertex 0.866025403784438 1 -0.5
vertex 0.5 1 -0.866025403784439
endloop
endfacet
facet normal 0 -1 0
outer loop
vertex 0 0 0
vertex 0.866025403784438 0 -0.5
vertex 1 0 -2.44921270764475E-16
endloop
endfacet
facet normal 0.965925826289068 0 -0.258819045102521
outer loop
vertex 1 0 -2.44921270764475E-16
vertex 0.866025403784438 0 -0.5
vertex 0.866025403784438 1 -0.5
endloop
endfacet
facet normal 0.965925826289068 0 -0.258819045102521
outer loop
vertex 1 0 -2.44921270764475E-16
vertex 0.866025403784438 1 -0.5
vertex 1 1 -2.44921270764475E-16
endloop
endfacet
facet normal 0 1 0
outer loop
vertex 0 1 0
vertex 1 1 -2.44921270764475E-16
vertex 0.866025403784438 1 -0.5
endloop
endfacet
endsolid Unit
