solid UnitSphere_UnitSphere
facet normal 0.935113126531029 -0.250562807085731 -0.250562807085732
outer loop
vertex 0.5 0 0
vertex 0.366025403784439 -0.5 0
vertex 0.25 -0.433012701892219 -0.5
endloop
endfacet
facet normal 0.935113126531029 -0.250562807085731 -0.250562807085732
outer loop
vertex 0.5 0 0
vertex 0.25 -0.433012701892219 -0.5
vertex 0.366025403784439 0 -0.5
endloop
endfacet
facet normal 0.935113126531029 -0.250562807085732 0.250562807085732
outer loop
vertex 0.366025403784439 0 0.5
vertex 0.25 -0.433012701892219 0.5
vertex 0.366025403784439 -0.5 0
endloop
endfacet
facet normal 0.935113126531029 -0.250562807085732 0.250562807085732
outer loop
vertex 0.366025403784439 0 0.5
vertex 0.366025403784439 -0.5 0
vertex 0.5 0 0
endloop
endfacet
facet normal 0.935113126531029 0.250562807085732 -0.250562807085731
outer loop
vertex 0.366025403784438 0.5 0
vertex 0.5 0 0
vertex 0.366025403784439 0 -0.5
endloop
endfacet
facet normal 0.935113126531029 0.250562807085732 -0.250562807085731
outer loop
vertex 0.366025403784438 0.5 0
vertex 0.366025403784439 0 -0.5
vertex 0.25 0.43301270189222 -0.5
endloop
endfacet
facet normal 0.935113126531029 0.250562807085732 0.250562807085731
outer loop
vertex 0.25 0.43301270189222 0.5
vertex 0.366025403784439 0 0.5
vertex 0.5 0 0
endloop
endfacet
facet normal 0.935113126531029 0.250562807085732 0.250562807085731
outer loop
vertex 0.25 0.43301270189222 0.5
vertex 0.5 0 0
vertex 0.366025403784438 0.5 0
endloop
endfacet
facet normal -0.935113126531029 -0.250562807085732 -0.250562807085731
outer loop
vertex -0.366025403784439 -0.5 0
vertex -0.5 -1.22460635382238E-16 0
vertex -0.366025403784439 -1.06054021204601E-16 -0.5
endloop
endfacet
facet normal -0.935113126531029 -0.250562807085732 -0.250562807085731
outer loop
vertex -0.366025403784439 -0.5 0
vertex -0.366025403784439 -1.06054021204601E-16 -0.5
vertex -0.25 -0.433012701892219 -0.5
endloop
endfacet
facet normal -0.935113126531029 -0.250562807085732 0.250562807085732
outer loop
vertex -0.25 -0.433012701892219 0.5
vertex -0.366025403784439 -1.06054021204601E-16 0.5
vertex -0.5 -1.22460635382238E-16 0
endloop
endfacet
facet normal -0.935113126531029 -0.250562807085732 0.250562807085732
outer loop
vertex -0.25 -0.433012701892219 0.5
vertex -0.5 -1.22460635382238E-16 0
vertex -0.366025403784439 -0.5 0
endloop
endfacet
facet normal -0.935113126531029 0.250562807085731 -0.250562807085731
outer loop
vertex -0.5 -1.22460635382238E-16 0
vertex -0.366025403784439 0.5 0
vertex -0.25 0.433012701892219 -0.5
endloop
endfacet
facet normal -0.935113126531029 0.250562807085731 -0.250562807085731
outer loop
vertex -0.5 -1.22460635382238E-16 0
vertex -0.25 0.433012701892219 -0.5
vertex -0.366025403784439 -1.06054021204601E-16 -0.5
endloop
endfacet
facet normal -0.935113126531029 0.250562807085731 0.250562807085731
outer loop
vertex -0.366025403784439 -1.06054021204601E-16 0.5
vertex -0.25 0.433012701892219 0.5
vertex -0.366025403784439 0.5 0
endloop
endfacet
facet normal -0.935113126531029 0.250562807085731 0.250562807085731
outer loop
vertex -0.366025403784439 -1.06054021204601E-16 0.5
vertex -0.366025403784439 0.5 0
vertex -0.5 -1.22460635382238E-16 0
endloop
endfacet
facet normal -0.684550319445298 -0.684550319445298 -0.250562807085731
outer loop
vertex 1.40953194031761E-16 -0.866025403784439 0
vertex -0.366025403784439 -0.5 0
vertex -0.25 -0.433012701892219 -0.5
endloop
endfacet
facet normal -0.684550319445298 -0.684550319445298 -0.250562807085731
outer loop
vertex 1.40953194031761E-16 -0.866025403784439 0
vertex -0.25 -0.433012701892219 -0.5
vertex 5.55111512312578E-17 -0.683012701892219 -0.5
endloop
endfacet
facet normal -0.684550319445298 -0.684550319445298 0.250562807085731
outer loop
vertex 1.11022302462516E-16 -0.683012701892219 0.5
vertex -0.25 -0.433012701892219 0.5
vertex -0.366025403784439 -0.5 0
endloop
endfacet
facet normal -0.684550319445298 -0.684550319445298 0.250562807085731
outer loop
vertex 1.11022302462516E-16 -0.683012701892219 0.5
vertex -0.366025403784439 -0.5 0
vertex 1.40953194031761E-16 -0.866025403784439 0
endloop
endfacet
facet normal -0.694746590606866 -0.186156787897385 -0.694746590606866
outer loop
vertex -0.25 -0.433012701892219 -0.5
vertex -0.366025403784439 -1.06054021204601E-16 -0.5
vertex -1.11022302462516E-16 -6.12303176911189E-17 -0.866025403784439
endloop
endfacet
facet normal -0.694746590606866 -0.186156787897385 -0.694746590606866
outer loop
vertex -0.25 -0.433012701892219 -0.5
vertex -1.11022302462516E-16 -6.12303176911189E-17 -0.866025403784439
vertex -6.93889390390723E-17 -0.288675134594813 -0.788675134594813
endloop
endfacet
facet normal -0.694746590606866 -0.186156787897385 0.694746590606866
outer loop
vertex 1.38777878078145E-17 -4.9960036108132E-16 0.866025403784439
vertex -0.366025403784439 -1.06054021204601E-16 0.5
vertex -0.25 -0.433012701892219 0.5
endloop
endfacet
facet normal -0.694746590606866 -0.186156787897385 0.694746590606866
outer loop
vertex 1.38777878078145E-17 -4.9960036108132E-16 0.866025403784439
vertex -0.25 -0.433012701892219 0.5
vertex 5.55111512312578E-17 -0.288675134594813 0.788675134594813
endloop
endfacet
facet normal -0.694746590606866 0.186156787897385 -0.694746590606866
outer loop
vertex -0.366025403784439 -1.06054021204601E-16 -0.5
vertex -0.25 0.433012701892219 -0.5
vertex -5.55111512312578E-17 0.288675134594813 -0.788675134594813
endloop
endfacet
facet normal -0.694746590606866 0.186156787897385 -0.694746590606866
outer loop
vertex -0.366025403784439 -1.06054021204601E-16 -0.5
vertex -5.55111512312578E-17 0.288675134594813 -0.788675134594813
vertex -1.11022302462516E-16 -6.12303176911189E-17 -0.866025403784439
endloop
endfacet
facet normal -0.694746590606866 0.186156787897385 0.694746590606866
outer loop
vertex 1.38777878078145E-17 -4.9960036108132E-16 0.866025403784439
vertex -1.38777878078145E-17 0.288675134594813 0.788675134594813
vertex -0.25 0.433012701892219 0.5
endloop
endfacet
facet normal -0.694746590606866 0.186156787897385 0.694746590606866
outer loop
vertex 1.38777878078145E-17 -4.9960036108132E-16 0.866025403784439
vertex -0.25 0.433012701892219 0.5
vertex -0.366025403784439 -1.06054021204601E-16 0.5
endloop
endfacet
facet normal -0.684550319445298 0.684550319445298 -0.250562807085732
outer loop
vertex -0.366025403784439 0.5 0
vertex -4.44089209850063E-16 0.866025403784438 0
vertex 6.93889390390723E-17 0.68301270189222 -0.5
endloop
endfacet
facet normal -0.684550319445298 0.684550319445298 -0.250562807085732
outer loop
vertex -0.366025403784439 0.5 0
vertex 6.93889390390723E-17 0.68301270189222 -0.5
vertex -0.25 0.433012701892219 -0.5
endloop
endfacet
facet normal -0.684550319445298 0.684550319445298 0.250562807085732
outer loop
vertex -0.25 0.433012701892219 0.5
vertex 0 0.683012701892219 0.5
vertex -4.44089209850063E-16 0.866025403784438 0
endloop
endfacet
facet normal -0.684550319445298 0.684550319445298 0.250562807085732
outer loop
vertex -0.25 0.433012701892219 0.5
vertex -4.44089209850063E-16 0.866025403784438 0
vertex -0.366025403784439 0.5 0
endloop
endfacet
facet normal -0.50858980270948 -0.50858980270948 -0.694746590606866
outer loop
vertex -0.25 -0.433012701892219 -0.5
vertex -6.93889390390723E-17 -0.288675134594813 -0.788675134594813
vertex 5.55111512312578E-17 -0.683012701892219 -0.5
endloop
endfacet
facet normal -0.50858980270948 -0.50858980270948 0.694746590606866
outer loop
vertex 5.55111512312578E-17 -0.288675134594813 0.788675134594813
vertex -0.25 -0.433012701892219 0.5
vertex 1.11022302462516E-16 -0.683012701892219 0.5
endloop
endfacet
facet normal -0.508589802709481 0.50858980270948 -0.694746590606866
outer loop
vertex -0.25 0.433012701892219 -0.5
vertex 6.93889390390723E-17 0.68301270189222 -0.5
vertex -5.55111512312578E-17 0.288675134594813 -0.788675134594813
endloop
endfacet
facet normal -0.508589802709481 0.50858980270948 0.694746590606866
outer loop
vertex 0 0.683012701892219 0.5
vertex -0.25 0.433012701892219 0.5
vertex -1.38777878078145E-17 0.288675134594813 0.788675134594813
endloop
endfacet
facet normal 0.684550319445298 0.684550319445298 -0.250562807085732
outer loop
vertex -4.44089209850063E-16 0.866025403784438 0
vertex 0.366025403784438 0.5 0
vertex 0.25 0.43301270189222 -0.5
endloop
endfacet
facet normal 0.684550319445298 0.684550319445298 -0.250562807085732
outer loop
vertex -4.44089209850063E-16 0.866025403784438 0
vertex 0.25 0.43301270189222 -0.5
vertex 6.93889390390723E-17 0.68301270189222 -0.5
endloop
endfacet
facet normal 0.684550319445298 0.684550319445298 0.250562807085732
outer loop
vertex -4.44089209850063E-16 0.866025403784438 0
vertex 0 0.683012701892219 0.5
vertex 0.25 0.43301270189222 0.5
endloop
endfacet
facet normal 0.684550319445298 0.684550319445298 0.250562807085732
outer loop
vertex -4.44089209850063E-16 0.866025403784438 0
vertex 0.25 0.43301270189222 0.5
vertex 0.366025403784438 0.5 0
endloop
endfacet
facet normal 0.694746590606866 0.186156787897386 -0.694746590606866
outer loop
vertex -5.55111512312578E-17 0.288675134594813 -0.788675134594813
vertex 0.25 0.43301270189222 -0.5
vertex 0.366025403784439 0 -0.5
endloop
endfacet
facet normal 0.694746590606866 0.186156787897386 -0.694746590606866
outer loop
vertex -5.55111512312578E-17 0.288675134594813 -0.788675134594813
vertex 0.366025403784439 0 -0.5
vertex -1.11022302462516E-16 -6.12303176911189E-17 -0.866025403784439
endloop
endfacet
facet normal 0.694746590606866 0.186156787897386 0.694746590606866
outer loop
vertex -1.38777878078145E-17 0.288675134594813 0.788675134594813
vertex 1.38777878078145E-17 -4.9960036108132E-16 0.866025403784439
vertex 0.366025403784439 0 0.5
endloop
endfacet
facet normal 0.694746590606866 0.186156787897386 0.694746590606866
outer loop
vertex -1.38777878078145E-17 0.288675134594813 0.788675134594813
vertex 0.366025403784439 0 0.5
vertex 0.25 0.43301270189222 0.5
endloop
endfacet
facet normal 0.694746590606866 -0.186156787897385 -0.694746590606866
outer loop
vertex 0.366025403784439 0 -0.5
vertex 0.25 -0.433012701892219 -0.5
vertex -6.93889390390723E-17 -0.288675134594813 -0.788675134594813
endloop
endfacet
facet normal 0.694746590606866 -0.186156787897385 -0.694746590606866
outer loop
vertex 0.366025403784439 0 -0.5
vertex -6.93889390390723E-17 -0.288675134594813 -0.788675134594813
vertex -1.11022302462516E-16 -6.12303176911189E-17 -0.866025403784439
endloop
endfacet
facet normal 0.694746590606866 -0.186156787897385 0.694746590606866
outer loop
vertex 1.38777878078145E-17 -4.9960036108132E-16 0.866025403784439
vertex 5.55111512312578E-17 -0.288675134594813 0.788675134594813
vertex 0.25 -0.433012701892219 0.5
endloop
endfacet
facet normal 0.694746590606866 -0.186156787897385 0.694746590606866
outer loop
vertex 1.38777878078145E-17 -4.9960036108132E-16 0.866025403784439
vertex 0.25 -0.433012701892219 0.5
vertex 0.366025403784439 0 0.5
endloop
endfacet
facet normal 0.684550319445298 -0.684550319445298 -0.250562807085732
outer loop
vertex 0.366025403784439 -0.5 0
vertex 1.40953194031761E-16 -0.866025403784439 0
vertex 5.55111512312578E-17 -0.683012701892219 -0.5
endloop
endfacet
facet normal 0.684550319445298 -0.684550319445298 -0.250562807085732
outer loop
vertex 0.366025403784439 -0.5 0
vertex 5.55111512312578E-17 -0.683012701892219 -0.5
vertex 0.25 -0.433012701892219 -0.5
endloop
endfacet
facet normal 0.684550319445298 -0.684550319445298 0.250562807085732
outer loop
vertex 0.25 -0.433012701892219 0.5
vertex 1.11022302462516E-16 -0.683012701892219 0.5
vertex 1.40953194031761E-16 -0.866025403784439 0
endloop
endfacet
facet normal 0.684550319445298 -0.684550319445298 0.250562807085732
outer loop
vertex 0.25 -0.433012701892219 0.5
vertex 1.40953194031761E-16 -0.866025403784439 0
vertex 0.366025403784439 -0.5 0
endloop
endfacet
facet normal 0.50858980270948 -0.50858980270948 -0.694746590606866
outer loop
vertex -6.93889390390723E-17 -0.288675134594813 -0.788675134594813
vertex 0.25 -0.433012701892219 -0.5
vertex 5.55111512312578E-17 -0.683012701892219 -0.5
endloop
endfacet
facet normal 0.50858980270948 -0.50858980270948 0.694746590606866
outer loop
vertex 5.55111512312578E-17 -0.288675134594813 0.788675134594813
vertex 1.11022302462516E-16 -0.683012701892219 0.5
vertex 0.25 -0.433012701892219 0.5
endloop
endfacet
facet normal 0.50858980270948 0.50858980270948 -0.694746590606866
outer loop
vertex -5.55111512312578E-17 0.288675134594813 -0.788675134594813
vertex 6.93889390390723E-17 0.68301270189222 -0.5
vertex 0.25 0.43301270189222 -0.5
endloop
endfacet
facet normal 0.50858980270948 0.50858980270948 0.694746590606866
outer loop
vertex 0 0.683012701892219 0.5
vertex -1.38777878078145E-17 0.288675134594813 0.788675134594813
vertex 0.25 0.43301270189222 0.5
endloop
endfacet
endsolid UnitSphere_UnitSphere
