solid OpenJsCadLogo
facet normal -0.50858980270948 0.50858980270948 0.694746590606866
outer loop
vertex 10.6698729810778 -6.16025403784439 0
vertex 6.16025403784439 -10.6698729810778 0
vertex 8.66025403784439 -15 5
endloop
endfacet
facet normal -0.50858980270948 0.50858980270948 0.694746590606866
outer loop
vertex 10.6698729810778 -6.16025403784439 0
vertex 8.66025403784439 -15 5
vertex 15 -8.66025403784439 5
endloop
endfacet
facet normal -0.50858980270948 0.508589802709481 -0.694746590606866
outer loop
vertex 10.6698729810778 -6.16025403784439 30
vertex 15 -8.66025403784439 25
vertex 8.66025403784439 -15 25
endloop
endfacet
facet normal -0.50858980270948 0.508589802709481 -0.694746590606866
outer loop
vertex 10.6698729810778 -6.16025403784439 30
vertex 8.66025403784439 -15 25
vertex 6.16025403784439 -10.6698729810778 30
endloop
endfacet
facet normal 0.50858980270948 0.50858980270948 0.694746590606866
outer loop
vertex -6.16025403784438 -10.6698729810778 0
vertex -10.6698729810778 -6.16025403784439 0
vertex -15 -8.66025403784439 5
endloop
endfacet
facet normal 0.50858980270948 0.50858980270948 0.694746590606866
outer loop
vertex -6.16025403784438 -10.6698729810778 0
vertex -15 -8.66025403784439 5
vertex -8.66025403784438 -15 5
endloop
endfacet
facet normal 0.50858980270948 0.508589802709481 -0.694746590606866
outer loop
vertex -6.16025403784438 -10.6698729810778 30
vertex -8.66025403784438 -15 25
vertex -15 -8.66025403784439 25
endloop
endfacet
facet normal 0.50858980270948 0.508589802709481 -0.694746590606866
outer loop
vertex -6.16025403784438 -10.6698729810778 30
vertex -15 -8.66025403784439 25
vertex -10.6698729810778 -6.16025403784439 30
endloop
endfacet
facet normal 0.508589802709481 -0.50858980270948 0.694746590606866
outer loop
vertex -10.6698729810778 6.16025403784438 0
vertex -6.16025403784439 10.6698729810778 0
vertex -8.66025403784439 15 5
endloop
endfacet
facet normal 0.508589802709481 -0.50858980270948 0.694746590606866
outer loop
vertex -10.6698729810778 6.16025403784438 0
vertex -8.66025403784439 15 5
vertex -15 8.66025403784438 5
endloop
endfacet
facet normal 0.50858980270948 -0.50858980270948 -0.694746590606866
outer loop
vertex -10.6698729810778 6.16025403784438 30
vertex -15 8.66025403784438 25
vertex -8.66025403784439 15 25
endloop
endfacet
facet normal 0.50858980270948 -0.50858980270948 -0.694746590606866
outer loop
vertex -10.6698729810778 6.16025403784438 30
vertex -8.66025403784439 15 25
vertex -6.16025403784439 10.6698729810778 30
endloop
endfacet
facet normal -0.50858980270948 -0.508589802709481 0.694746590606866
outer loop
vertex 6.16025403784439 10.6698729810778 0
vertex 10.6698729810778 6.16025403784439 0
vertex 15 8.66025403784439 5
endloop
endfacet
facet normal -0.50858980270948 -0.508589802709481 0.694746590606866
outer loop
vertex 6.16025403784439 10.6698729810778 0
vertex 15 8.66025403784439 5
vertex 8.66025403784439 15 5
endloop
endfacet
facet normal -0.50858980270948 -0.50858980270948 -0.694746590606866
outer loop
vertex 6.16025403784439 10.6698729810778 30
vertex 8.66025403784439 15 25
vertex 15 8.66025403784439 25
endloop
endfacet
facet normal -0.50858980270948 -0.50858980270948 -0.694746590606866
outer loop
vertex 6.16025403784439 10.6698729810778 30
vertex 15 8.66025403784439 25
vertex 10.6698729810778 6.16025403784439 30
endloop
endfacet
facet normal -0.694746590606866 0.186156787897385 0.694746590606866
outer loop
vertex 15 0 2.67949192431123
vertex 12.3205080756888 0 0
vertex 10.6698729810778 -6.16025403784439 0
endloop
endfacet
facet normal -0.694746590606866 0.186156787897385 0.694746590606866
outer loop
vertex 15 0 2.67949192431123
vertex 10.6698729810778 -6.16025403784439 0
vertex 15 -8.66025403784439 5
endloop
endfacet
facet normal -0.694746590606866 0.186156787897385 -0.694746590606866
outer loop
vertex 12.3205080756888 0 30
vertex 15 0 27.3205080756888
vertex 15 -8.66025403784439 25
endloop
endfacet
facet normal -0.694746590606866 0.186156787897385 -0.694746590606866
outer loop
vertex 12.3205080756888 0 30
vertex 15 -8.66025403784439 25
vertex 10.6698729810778 -6.16025403784439 30
endloop
endfacet
facet normal -0.684550319445298 0.684550319445298 0.250562807085732
outer loop
vertex 15 -8.66025403784439 5
vertex 8.66025403784439 -15 5
vertex 12.3205080756888 -15 15
endloop
endfacet
facet normal -0.684550319445298 0.684550319445298 0.250562807085732
outer loop
vertex 15 -8.66025403784439 5
vertex 12.3205080756888 -15 15
vertex 15 -12.3205080756888 15
endloop
endfacet
facet normal -0.684550319445298 0.684550319445298 -0.250562807085732
outer loop
vertex 15 -12.3205080756888 15
vertex 12.3205080756888 -15 15
vertex 8.66025403784439 -15 25
endloop
endfacet
facet normal -0.684550319445298 0.684550319445298 -0.250562807085732
outer loop
vertex 15 -12.3205080756888 15
vertex 8.66025403784439 -15 25
vertex 15 -8.66025403784439 25
endloop
endfacet
facet normal -0.186156787897386 0.694746590606866 0.694746590606866
outer loop
vertex 6.16025403784439 -10.6698729810778 0
vertex 7.54388623590419E-16 -12.3205080756888 0
vertex 9.18454765366783E-16 -15 2.67949192431123
endloop
endfacet
facet normal -0.186156787897386 0.694746590606866 0.694746590606866
outer loop
vertex 6.16025403784439 -10.6698729810778 0
vertex 9.18454765366783E-16 -15 2.67949192431123
vertex 8.66025403784439 -15 5
endloop
endfacet
facet normal -0.186156787897386 0.694746590606866 -0.694746590606866
outer loop
vertex 6.16025403784439 -10.6698729810778 30
vertex 8.66025403784439 -15 25
vertex 9.18454765366783E-16 -15 27.3205080756888
endloop
endfacet
facet normal -0.186156787897386 0.694746590606866 -0.694746590606866
outer loop
vertex 6.16025403784439 -10.6698729810778 30
vertex 9.18454765366783E-16 -15 27.3205080756888
vertex 7.54388623590419E-16 -12.3205080756888 30
endloop
endfacet
facet normal 0.186156787897386 0.694746590606866 0.694746590606866
outer loop
vertex 9.18454765366783E-16 -15 2.67949192431123
vertex 7.54388623590419E-16 -12.3205080756888 0
vertex -6.16025403784438 -10.6698729810778 0
endloop
endfacet
facet normal 0.186156787897386 0.694746590606866 0.694746590606866
outer loop
vertex 9.18454765366783E-16 -15 2.67949192431123
vertex -6.16025403784438 -10.6698729810778 0
vertex -8.66025403784438 -15 5
endloop
endfacet
facet normal 0.186156787897386 0.694746590606866 -0.694746590606866
outer loop
vertex 7.54388623590419E-16 -12.3205080756888 30
vertex 9.18454765366783E-16 -15 27.3205080756888
vertex -8.66025403784438 -15 25
endloop
endfacet
facet normal 0.186156787897386 0.694746590606866 -0.694746590606866
outer loop
vertex 7.54388623590419E-16 -12.3205080756888 30
vertex -8.66025403784438 -15 25
vertex -6.16025403784438 -10.6698729810778 30
endloop
endfacet
facet normal 0.684550319445298 0.684550319445298 0.250562807085731
outer loop
vertex -8.66025403784438 -15 5
vertex -15 -8.66025403784439 5
vertex -15 -12.3205080756888 15
endloop
endfacet
facet normal 0.684550319445298 0.684550319445298 0.250562807085731
outer loop
vertex -8.66025403784438 -15 5
vertex -15 -12.3205080756888 15
vertex -12.3205080756888 -15 15
endloop
endfacet
facet normal 0.684550319445298 0.684550319445298 -0.250562807085731
outer loop
vertex -12.3205080756888 -15 15
vertex -15 -12.3205080756888 15
vertex -15 -8.66025403784439 25
endloop
endfacet
facet normal 0.684550319445298 0.684550319445298 -0.250562807085731
outer loop
vertex -12.3205080756888 -15 15
vertex -15 -8.66025403784439 25
vertex -8.66025403784438 -15 25
endloop
endfacet
facet normal 0.694746590606866 0.186156787897385 0.694746590606866
outer loop
vertex -15 -8.66025403784439 5
vertex -10.6698729810778 -6.16025403784439 0
vertex -12.3205080756888 -1.50877724718084E-15 0
endloop
endfacet
facet normal 0.694746590606866 0.186156787897385 0.694746590606866
outer loop
vertex -15 -8.66025403784439 5
vertex -12.3205080756888 -1.50877724718084E-15 0
vertex -15 -1.83690953073357E-15 2.67949192431123
endloop
endfacet
facet normal 0.694746590606866 0.186156787897385 -0.694746590606866
outer loop
vertex -10.6698729810778 -6.16025403784439 30
vertex -15 -8.66025403784439 25
vertex -15 -1.83690953073357E-15 27.3205080756888
endloop
endfacet
facet normal 0.694746590606866 0.186156787897385 -0.694746590606866
outer loop
vertex -10.6698729810778 -6.16025403784439 30
vertex -15 -1.83690953073357E-15 27.3205080756888
vertex -12.3205080756888 -1.50877724718084E-15 30
endloop
endfacet
facet normal 0.694746590606866 -0.186156787897385 0.694746590606866
outer loop
vertex -15 -1.83690953073357E-15 2.67949192431123
vertex -12.3205080756888 -1.50877724718084E-15 0
vertex -10.6698729810778 6.16025403784438 0
endloop
endfacet
facet normal 0.694746590606866 -0.186156787897385 0.694746590606866
outer loop
vertex -15 -1.83690953073357E-15 2.67949192431123
vertex -10.6698729810778 6.16025403784438 0
vertex -15 8.66025403784438 5
endloop
endfacet
facet normal 0.694746590606866 -0.186156787897385 -0.694746590606866
outer loop
vertex -12.3205080756888 -1.50877724718084E-15 30
vertex -15 -1.83690953073357E-15 27.3205080756888
vertex -15 8.66025403784438 25
endloop
endfacet
facet normal 0.694746590606866 -0.186156787897385 -0.694746590606866
outer loop
vertex -12.3205080756888 -1.50877724718084E-15 30
vertex -15 8.66025403784438 25
vertex -10.6698729810778 6.16025403784438 30
endloop
endfacet
facet normal 0.684550319445298 -0.684550319445298 0.250562807085731
outer loop
vertex -15 8.66025403784438 5
vertex -8.66025403784439 15 5
vertex -12.3205080756888 15 15
endloop
endfacet
facet normal 0.684550319445298 -0.684550319445298 0.250562807085731
outer loop
vertex -15 8.66025403784438 5
vertex -12.3205080756888 15 15
vertex -15 12.3205080756888 15
endloop
endfacet
facet normal 0.684550319445298 -0.684550319445298 -0.250562807085732
outer loop
vertex -15 12.3205080756888 15
vertex -12.3205080756888 15 15
vertex -8.66025403784439 15 25
endloop
endfacet
facet normal 0.684550319445298 -0.684550319445298 -0.250562807085732
outer loop
vertex -15 12.3205080756888 15
vertex -8.66025403784439 15 25
vertex -15 8.66025403784438 25
endloop
endfacet
facet normal 0.186156787897386 -0.694746590606866 0.694746590606866
outer loop
vertex -6.16025403784439 10.6698729810778 0
vertex -2.26316587077126E-15 12.3205080756888 0
vertex -2.75536429610035E-15 15 2.67949192431123
endloop
endfacet
facet normal 0.186156787897386 -0.694746590606866 0.694746590606866
outer loop
vertex -6.16025403784439 10.6698729810778 0
vertex -2.75536429610035E-15 15 2.67949192431123
vertex -8.66025403784439 15 5
endloop
endfacet
facet normal 0.186156787897386 -0.694746590606866 -0.694746590606866
outer loop
vertex -6.16025403784439 10.6698729810778 30
vertex -8.66025403784439 15 25
vertex -2.75536429610035E-15 15 27.3205080756888
endloop
endfacet
facet normal 0.186156787897386 -0.694746590606866 -0.694746590606866
outer loop
vertex -6.16025403784439 10.6698729810778 30
vertex -2.75536429610035E-15 15 27.3205080756888
vertex -2.26316587077126E-15 12.3205080756888 30
endloop
endfacet
facet normal -0.186156787897385 -0.694746590606866 0.694746590606866
outer loop
vertex -2.75536429610035E-15 15 2.67949192431123
vertex -2.26316587077126E-15 12.3205080756888 0
vertex 6.16025403784439 10.6698729810778 0
endloop
endfacet
facet normal -0.186156787897385 -0.694746590606866 0.694746590606866
outer loop
vertex -2.75536429610035E-15 15 2.67949192431123
vertex 6.16025403784439 10.6698729810778 0
vertex 8.66025403784439 15 5
endloop
endfacet
facet normal -0.186156787897385 -0.694746590606866 -0.694746590606866
outer loop
vertex -2.26316587077126E-15 12.3205080756888 30
vertex -2.75536429610035E-15 15 27.3205080756888
vertex 8.66025403784439 15 25
endloop
endfacet
facet normal -0.186156787897385 -0.694746590606866 -0.694746590606866
outer loop
vertex -2.26316587077126E-15 12.3205080756888 30
vertex 8.66025403784439 15 25
vertex 6.16025403784439 10.6698729810778 30
endloop
endfacet
facet normal -0.684550319445298 -0.684550319445298 0.250562807085732
outer loop
vertex 8.66025403784439 15 5
vertex 15 8.66025403784439 5
vertex 15 12.3205080756888 15
endloop
endfacet
facet normal -0.684550319445298 -0.684550319445298 0.250562807085732
outer loop
vertex 8.66025403784439 15 5
vertex 15 12.3205080756888 15
vertex 12.3205080756888 15 15
endloop
endfacet
facet normal -0.684550319445298 -0.684550319445298 -0.250562807085732
outer loop
vertex 8.66025403784439 15 25
vertex 12.3205080756888 15 15
vertex 15 12.3205080756888 15
endloop
endfacet
facet normal -0.684550319445298 -0.684550319445298 -0.250562807085732
outer loop
vertex 8.66025403784439 15 25
vertex 15 12.3205080756888 15
vertex 15 8.66025403784439 25
endloop
endfacet
facet normal -0.694746590606866 -0.186156787897386 0.694746590606866
outer loop
vertex 10.6698729810778 6.16025403784439 0
vertex 12.3205080756888 0 0
vertex 15 0 2.67949192431123
endloop
endfacet
facet normal -0.694746590606866 -0.186156787897386 0.694746590606866
outer loop
vertex 10.6698729810778 6.16025403784439 0
vertex 15 0 2.67949192431123
vertex 15 8.66025403784439 5
endloop
endfacet
facet normal -0.694746590606866 -0.186156787897386 -0.694746590606866
outer loop
vertex 10.6698729810778 6.16025403784439 30
vertex 15 8.66025403784439 25
vertex 15 0 27.3205080756888
endloop
endfacet
facet normal -0.694746590606866 -0.186156787897386 -0.694746590606866
outer loop
vertex 10.6698729810778 6.16025403784439 30
vertex 15 0 27.3205080756888
vertex 12.3205080756888 0 30
endloop
endfacet
facet normal -1 0 0
outer loop
vertex -15 15 30
vertex -15 15 27.3205080756888
vertex -15 -15 27.3205080756888
endloop
endfacet
facet normal -1 0 0
outer loop
vertex -15 15 30
vertex -15 -15 27.3205080756888
vertex -15 -15 30
endloop
endfacet
facet normal -1 0 0
outer loop
vertex -15 -1.83690953073357E-15 27.3205080756888
vertex -15 -8.66025403784439 25
vertex -15 -15 25
endloop
endfacet
facet normal -1 0 0
outer loop
vertex -15 -1.83690953073357E-15 27.3205080756888
vertex -15 -15 25
vertex -15 -15 27.3205080756888
endloop
endfacet
facet normal -1 0 0
outer loop
vertex -15 15 27.3205080756888
vertex -15 15 25
vertex -15 8.66025403784438 25
endloop
endfacet
facet normal -1 0 0
outer loop
vertex -15 15 27.3205080756888
vertex -15 8.66025403784438 25
vertex -15 -1.83690953073357E-15 27.3205080756888
endloop
endfacet
facet normal -1 0 0
outer loop
vertex -15 -8.66025403784439 25
vertex -15 -12.3205080756888 15
vertex -15 -15 15
endloop
endfacet
facet normal -1 0 0
outer loop
vertex -15 -8.66025403784439 25
vertex -15 -15 15
vertex -15 -15 25
endloop
endfacet
facet normal -1 0 0
outer loop
vertex -15 15 25
vertex -15 15 15
vertex -15 12.3205080756888 15
endloop
endfacet
facet normal -1 0 0
outer loop
vertex -15 15 25
vertex -15 12.3205080756888 15
vertex -15 8.66025403784438 25
endloop
endfacet
facet normal -1 0 0
outer loop
vertex -15 -12.3205080756888 15
vertex -15 -8.66025403784439 5
vertex -15 -15 5
endloop
endfacet
facet normal -1 0 0
outer loop
vertex -15 -12.3205080756888 15
vertex -15 -15 5
vertex -15 -15 15
endloop
endfacet
facet normal -1 0 0
outer loop
vertex -15 15 15
vertex -15 15 5
vertex -15 8.66025403784438 5
endloop
endfacet
facet normal -1 0 0
outer loop
vertex -15 15 15
vertex -15 8.66025403784438 5
vertex -15 12.3205080756888 15
endloop
endfacet
facet normal -1 0 0
outer loop
vertex -15 -8.66025403784439 5
vertex -15 -1.83690953073357E-15 2.67949192431123
vertex -15 -15 2.67949192431123
endloop
endfacet
facet normal -1 0 0
outer loop
vertex -15 -8.66025403784439 5
vertex -15 -15 2.67949192431123
vertex -15 -15 5
endloop
endfacet
facet normal -1 0 0
outer loop
vertex -15 15 5
vertex -15 15 2.67949192431123
vertex -15 -1.83690953073357E-15 2.67949192431123
endloop
endfacet
facet normal -1 0 0
outer loop
vertex -15 15 5
vertex -15 -1.83690953073357E-15 2.67949192431123
vertex -15 8.66025403784438 5
endloop
endfacet
facet normal -1 0 0
outer loop
vertex -15 15 2.67949192431123
vertex -15 15 0
vertex -15 -15 0
endloop
endfacet
facet normal -1 0 0
outer loop
vertex -15 15 2.67949192431123
vertex -15 -15 0
vertex -15 -15 2.67949192431123
endloop
endfacet
facet normal 1 0 0
outer loop
vertex 15 15 0
vertex 15 15 2.67949192431123
vertex 15 -15 2.67949192431123
endloop
endfacet
facet normal 1 0 0
outer loop
vertex 15 15 0
vertex 15 -15 2.67949192431123
vertex 15 -15 0
endloop
endfacet
facet normal 1 0 0
outer loop
vertex 15 0 2.67949192431123
vertex 15 -8.66025403784439 5
vertex 15 -15 5
endloop
endfacet
facet normal 1 0 0
outer loop
vertex 15 0 2.67949192431123
vertex 15 -15 5
vertex 15 -15 2.67949192431123
endloop
endfacet
facet normal 1 0 0
outer loop
vertex 15 15 2.67949192431123
vertex 15 15 5
vertex 15 8.66025403784439 5
endloop
endfacet
facet normal 1 0 0
outer loop
vertex 15 15 2.67949192431123
vertex 15 8.66025403784439 5
vertex 15 0 2.67949192431123
endloop
endfacet
facet normal 1 0 0
outer loop
vertex 15 -8.66025403784439 5
vertex 15 -12.3205080756888 15
vertex 15 -15 15
endloop
endfacet
facet normal 1 0 0
outer loop
vertex 15 -8.66025403784439 5
vertex 15 -15 15
vertex 15 -15 5
endloop
endfacet
facet normal 1 0 0
outer loop
vertex 15 15 5
vertex 15 15 15
vertex 15 12.3205080756888 15
endloop
endfacet
facet normal 1 0 0
outer loop
vertex 15 15 5
vertex 15 12.3205080756888 15
vertex 15 8.66025403784439 5
endloop
endfacet
facet normal 1 0 0
outer loop
vertex 15 -12.3205080756888 15
vertex 15 -8.66025403784439 25
vertex 15 -15 25
endloop
endfacet
facet normal 1 0 0
outer loop
vertex 15 -12.3205080756888 15
vertex 15 -15 25
vertex 15 -15 15
endloop
endfacet
facet normal 1 0 0
outer loop
vertex 15 15 15
vertex 15 15 25
vertex 15 8.66025403784439 25
endloop
endfacet
facet normal 1 0 0
outer loop
vertex 15 15 15
vertex 15 8.66025403784439 25
vertex 15 12.3205080756888 15
endloop
endfacet
facet normal 1 0 0
outer loop
vertex 15 -8.66025403784439 25
vertex 15 0 27.3205080756888
vertex 15 -15 27.3205080756888
endloop
endfacet
facet normal 1 0 0
outer loop
vertex 15 -8.66025403784439 25
vertex 15 -15 27.3205080756888
vertex 15 -15 25
endloop
endfacet
facet normal 1 0 0
outer loop
vertex 15 15 25
vertex 15 15 27.3205080756888
vertex 15 0 27.3205080756888
endloop
endfacet
facet normal 1 0 0
outer loop
vertex 15 15 25
vertex 15 0 27.3205080756888
vertex 15 8.66025403784439 25
endloop
endfacet
facet normal 1 0 0
outer loop
vertex 15 15 27.3205080756888
vertex 15 15 30
vertex 15 -15 30
endloop
endfacet
facet normal 1 0 0
outer loop
vertex 15 15 27.3205080756888
vertex 15 -15 30
vertex 15 -15 27.3205080756888
endloop
endfacet
facet normal 0 -1 0
outer loop
vertex 15 -15 0
vertex 15 -15 2.67949192431123
vertex -15 -15 2.67949192431123
endloop
endfacet
facet normal 0 -1 0
outer loop
vertex 15 -15 0
vertex -15 -15 2.67949192431123
vertex -15 -15 0
endloop
endfacet
facet normal 0 -1 0
outer loop
vertex 9.18454765366783E-16 -15 2.67949192431123
vertex -8.66025403784438 -15 5
vertex -15 -15 5
endloop
endfacet
facet normal 0 -1 0
outer loop
vertex 9.18454765366783E-16 -15 2.67949192431123
vertex -15 -15 5
vertex -15 -15 2.67949192431123
endloop
endfacet
facet normal 0 -1 0
outer loop
vertex 15 -15 2.67949192431123
vertex 15 -15 5
vertex 8.66025403784439 -15 5
endloop
endfacet
facet normal 0 -1 0
outer loop
vertex 15 -15 2.67949192431123
vertex 8.66025403784439 -15 5
vertex 9.18454765366783E-16 -15 2.67949192431123
endloop
endfacet
facet normal 0 -1 0
outer loop
vertex -8.66025403784438 -15 5
vertex -12.3205080756888 -15 15
vertex -15 -15 15
endloop
endfacet
facet normal 0 -1 0
outer loop
vertex -8.66025403784438 -15 5
vertex -15 -15 15
vertex -15 -15 5
endloop
endfacet
facet normal 0 -1 0
outer loop
vertex 15 -15 5
vertex 15 -15 15
vertex 12.3205080756888 -15 15
endloop
endfacet
facet normal 0 -1 0
outer loop
vertex 15 -15 5
vertex 12.3205080756888 -15 15
vertex 8.66025403784439 -15 5
endloop
endfacet
facet normal 0 -1 0
outer loop
vertex -12.3205080756888 -15 15
vertex -8.66025403784438 -15 25
vertex -15 -15 25
endloop
endfacet
facet normal 0 -1 0
outer loop
vertex -12.3205080756888 -15 15
vertex -15 -15 25
vertex -15 -15 15
endloop
endfacet
facet normal 0 -1 0
outer loop
vertex 15 -15 15
vertex 15 -15 25
vertex 8.66025403784439 -15 25
endloop
endfacet
facet normal 0 -1 0
outer loop
vertex 15 -15 15
vertex 8.66025403784439 -15 25
vertex 12.3205080756888 -15 15
endloop
endfacet
facet normal 0 -1 0
outer loop
vertex -8.66025403784438 -15 25
vertex 9.18454765366783E-16 -15 27.3205080756888
vertex -15 -15 27.3205080756888
endloop
endfacet
facet normal 0 -1 0
outer loop
vertex -8.66025403784438 -15 25
vertex -15 -15 27.3205080756888
vertex -15 -15 25
endloop
endfacet
facet normal 0 -1 0
outer loop
vertex 15 -15 25
vertex 15 -15 27.3205080756888
vertex 9.18454765366783E-16 -15 27.3205080756888
endloop
endfacet
facet normal 0 -1 0
outer loop
vertex 15 -15 25
vertex 9.18454765366783E-16 -15 27.3205080756888
vertex 8.66025403784439 -15 25
endloop
endfacet
facet normal 0 -1 0
outer loop
vertex 15 -15 27.3205080756888
vertex 15 -15 30
vertex -15 -15 30
endloop
endfacet
facet normal 0 -1 0
outer loop
vertex 15 -15 27.3205080756888
vertex -15 -15 30
vertex -15 -15 27.3205080756888
endloop
endfacet
facet normal 0 1 0
outer loop
vertex 15 15 30
vertex 15 15 27.3205080756888
vertex -15 15 27.3205080756888
endloop
endfacet
facet normal 0 1 0
outer loop
vertex 15 15 30
vertex -15 15 27.3205080756888
vertex -15 15 30
endloop
endfacet
facet normal 0 1 0
outer loop
vertex -2.75536429610035E-15 15 27.3205080756888
vertex -8.66025403784439 15 25
vertex -15 15 25
endloop
endfacet
facet normal 0 1 0
outer loop
vertex -2.75536429610035E-15 15 27.3205080756888
vertex -15 15 25
vertex -15 15 27.3205080756888
endloop
endfacet
facet normal 0 1 0
outer loop
vertex 15 15 27.3205080756888
vertex 15 15 25
vertex 8.66025403784439 15 25
endloop
endfacet
facet normal 0 1 0
outer loop
vertex 15 15 27.3205080756888
vertex 8.66025403784439 15 25
vertex -2.75536429610035E-15 15 27.3205080756888
endloop
endfacet
facet normal 0 1 0
outer loop
vertex -8.66025403784439 15 25
vertex -12.3205080756888 15 15
vertex -15 15 15
endloop
endfacet
facet normal 0 1 0
outer loop
vertex -8.66025403784439 15 25
vertex -15 15 15
vertex -15 15 25
endloop
endfacet
facet normal 0 1 0
outer loop
vertex 15 15 25
vertex 15 15 15
vertex 12.3205080756888 15 15
endloop
endfacet
facet normal 0 1 0
outer loop
vertex 15 15 25
vertex 12.3205080756888 15 15
vertex 8.66025403784439 15 25
endloop
endfacet
facet normal 0 1 0
outer loop
vertex -12.3205080756888 15 15
vertex -8.66025403784439 15 5
vertex -15 15 5
endloop
endfacet
facet normal 0 1 0
outer loop
vertex -12.3205080756888 15 15
vertex -15 15 5
vertex -15 15 15
endloop
endfacet
facet normal 0 1 0
outer loop
vertex 15 15 15
vertex 15 15 5
vertex 8.66025403784439 15 5
endloop
endfacet
facet normal 0 1 0
outer loop
vertex 15 15 15
vertex 8.66025403784439 15 5
vertex 12.3205080756888 15 15
endloop
endfacet
facet normal 0 1 0
outer loop
vertex -8.66025403784439 15 5
vertex -2.75536429610035E-15 15 2.67949192431123
vertex -15 15 2.67949192431123
endloop
endfacet
facet normal 0 1 0
outer loop
vertex -8.66025403784439 15 5
vertex -15 15 2.67949192431123
vertex -15 15 5
endloop
endfacet
facet normal 0 1 0
outer loop
vertex 15 15 5
vertex 15 15 2.67949192431123
vertex -2.75536429610035E-15 15 2.67949192431123
endloop
endfacet
facet normal 0 1 0
outer loop
vertex 15 15 5
vertex -2.75536429610035E-15 15 2.67949192431123
vertex 8.66025403784439 15 5
endloop
endfacet
facet normal 0 1 0
outer loop
vertex 15 15 2.67949192431123
vertex 15 15 0
vertex -15 15 0
endloop
endfacet
facet normal 0 1 0
outer loop
vertex 15 15 2.67949192431123
vertex -15 15 0
vertex -15 15 2.67949192431123
endloop
endfacet
facet normal 0 0 -1
outer loop
vertex 15 15 0
vertex 15 12.3205080756888 0
vertex -15 12.3205080756888 0
endloop
endfacet
facet normal 0 0 -1
outer loop
vertex 15 15 0
vertex -15 12.3205080756888 0
vertex -15 15 0
endloop
endfacet
facet normal 0 0 -1
outer loop
vertex -2.26316587077126E-15 12.3205080756888 0
vertex -6.16025403784439 10.6698729810778 0
vertex -15 10.6698729810778 0
endloop
endfacet
facet normal 0 0 -1
outer loop
vertex -2.26316587077126E-15 12.3205080756888 0
vertex -15 10.6698729810778 0
vertex -15 12.3205080756888 0
endloop
endfacet
facet normal 0 0 -1
outer loop
vertex 15 12.3205080756888 0
vertex 15 10.6698729810778 0
vertex 6.16025403784439 10.6698729810778 0
endloop
endfacet
facet normal 0 0 -1
outer loop
vertex 15 12.3205080756888 0
vertex 6.16025403784439 10.6698729810778 0
vertex -2.26316587077126E-15 12.3205080756888 0
endloop
endfacet
facet normal 0 0 -1
outer loop
vertex -6.16025403784439 10.6698729810778 0
vertex -10.6698729810778 6.16025403784438 0
vertex -15 6.16025403784438 0
endloop
endfacet
facet normal 0 0 -1
outer loop
vertex -6.16025403784439 10.6698729810778 0
vertex -15 6.16025403784438 0
vertex -15 10.6698729810778 0
endloop
endfacet
facet normal 0 0 -1
outer loop
vertex 15 10.6698729810778 0
vertex 15 6.16025403784438 0
vertex 10.6698729810778 6.16025403784439 0
endloop
endfacet
facet normal 0 0 -1
outer loop
vertex 15 10.6698729810778 0
vertex 10.6698729810778 6.16025403784439 0
vertex 6.16025403784439 10.6698729810778 0
endloop
endfacet
facet normal 0 0 -1
outer loop
vertex -10.6698729810778 6.16025403784438 0
vertex -12.3205080756888 -1.50877724718084E-15 0
vertex -15 -1.50877724718084E-15 0
endloop
endfacet
facet normal 0 0 -1
outer loop
vertex -10.6698729810778 6.16025403784438 0
vertex -15 -1.50877724718084E-15 0
vertex -15 6.16025403784438 0
endloop
endfacet
facet normal 0 0 -1
outer loop
vertex 15 6.16025403784438 0
vertex 15 -1.50877724718084E-15 0
vertex 12.3205080756888 0 0
endloop
endfacet
facet normal 0 0 -1
outer loop
vertex 15 6.16025403784438 0
vertex 12.3205080756888 0 0
vertex 10.6698729810778 6.16025403784439 0
endloop
endfacet
facet normal 0 0 -1
outer loop
vertex -12.3205080756888 -1.50877724718084E-15 0
vertex -10.6698729810778 -6.16025403784439 0
vertex -15 -6.16025403784439 0
endloop
endfacet
facet normal 0 0 -1
outer loop
vertex -12.3205080756888 -1.50877724718084E-15 0
vertex -15 -6.16025403784439 0
vertex -15 -1.50877724718084E-15 0
endloop
endfacet
facet normal 0 0 -1
outer loop
vertex 15 -1.50877724718084E-15 0
vertex 15 -6.16025403784439 0
vertex 10.6698729810778 -6.16025403784439 0
endloop
endfacet
facet normal 0 0 -1
outer loop
vertex 15 -1.50877724718084E-15 0
vertex 10.6698729810778 -6.16025403784439 0
vertex 12.3205080756888 0 0
endloop
endfacet
facet normal 0 0 -1
outer loop
vertex -10.6698729810778 -6.16025403784439 0
vertex -6.16025403784438 -10.6698729810778 0
vertex -15 -10.6698729810778 0
endloop
endfacet
facet normal 0 0 -1
outer loop
vertex -10.6698729810778 -6.16025403784439 0
vertex -15 -10.6698729810778 0
vertex -15 -6.16025403784439 0
endloop
endfacet
facet normal 0 0 -1
outer loop
vertex 15 -6.16025403784439 0
vertex 15 -10.6698729810778 0
vertex 6.16025403784439 -10.6698729810778 0
endloop
endfacet
facet normal 0 0 -1
outer loop
vertex 15 -6.16025403784439 0
vertex 6.16025403784439 -10.6698729810778 0
vertex 10.6698729810778 -6.16025403784439 0
endloop
endfacet
facet normal 0 0 -1
outer loop
vertex -6.16025403784438 -10.6698729810778 0
vertex 7.54388623590419E-16 -12.3205080756888 0
vertex -15 -12.3205080756888 0
endloop
endfacet
facet normal 0 0 -1
outer loop
vertex -6.16025403784438 -10.6698729810778 0
vertex -15 -12.3205080756888 0
vertex -15 -10.6698729810778 0
endloop
endfacet
facet normal 0 0 -1
outer loop
vertex 15 -10.6698729810778 0
vertex 15 -12.3205080756888 0
vertex 7.54388623590419E-16 -12.3205080756888 0
endloop
endfacet
facet normal 0 0 -1
outer loop
vertex 15 -10.6698729810778 0
vertex 7.54388623590419E-16 -12.3205080756888 0
vertex 6.16025403784439 -10.6698729810778 0
endloop
endfacet
facet normal 0 0 -1
outer loop
vertex 15 -12.3205080756888 0
vertex 15 -15 0
vertex -15 -15 0
endloop
endfacet
facet normal 0 0 -1
outer loop
vertex 15 -12.3205080756888 0
vertex -15 -15 0
vertex -15 -12.3205080756888 0
endloop
endfacet
facet normal 0 0 1
outer loop
vertex 15 -15 30
vertex 15 -12.3205080756888 30
vertex -15 -12.3205080756888 30
endloop
endfacet
facet normal 0 0 1
outer loop
vertex 15 -15 30
vertex -15 -12.3205080756888 30
vertex -15 -15 30
endloop
endfacet
facet normal 0 0 1
outer loop
vertex 7.54388623590419E-16 -12.3205080756888 30
vertex -6.16025403784438 -10.6698729810778 30
vertex -15 -10.6698729810778 30
endloop
endfacet
facet normal 0 0 1
outer loop
vertex 7.54388623590419E-16 -12.3205080756888 30
vertex -15 -10.6698729810778 30
vertex -15 -12.3205080756888 30
endloop
endfacet
facet normal 0 0 1
outer loop
vertex 15 -12.3205080756888 30
vertex 15 -10.6698729810778 30
vertex 6.16025403784439 -10.6698729810778 30
endloop
endfacet
facet normal 0 0 1
outer loop
vertex 15 -12.3205080756888 30
vertex 6.16025403784439 -10.6698729810778 30
vertex 7.54388623590419E-16 -12.3205080756888 30
endloop
endfacet
facet normal 0 0 1
outer loop
vertex -6.16025403784438 -10.6698729810778 30
vertex -10.6698729810778 -6.16025403784439 30
vertex -15 -6.16025403784439 30
endloop
endfacet
facet normal 0 0 1
outer loop
vertex -6.16025403784438 -10.6698729810778 30
vertex -15 -6.16025403784439 30
vertex -15 -10.6698729810778 30
endloop
endfacet
facet normal 0 0 1
outer loop
vertex 15 -10.6698729810778 30
vertex 15 -6.16025403784439 30
vertex 10.6698729810778 -6.16025403784439 30
endloop
endfacet
facet normal 0 0 1
outer loop
vertex 15 -10.6698729810778 30
vertex 10.6698729810778 -6.16025403784439 30
vertex 6.16025403784439 -10.6698729810778 30
endloop
endfacet
facet normal 0 0 1
outer loop
vertex -10.6698729810778 -6.16025403784439 30
vertex -12.3205080756888 -1.50877724718084E-15 30
vertex -15 -1.50877724718084E-15 30
endloop
endfacet
facet normal 0 0 1
outer loop
vertex -10.6698729810778 -6.16025403784439 30
vertex -15 -1.50877724718084E-15 30
vertex -15 -6.16025403784439 30
endloop
endfacet
facet normal 0 0 1
outer loop
vertex 15 -6.16025403784439 30
vertex 15 -1.50877724718084E-15 30
vertex 12.3205080756888 0 30
endloop
endfacet
facet normal 0 0 1
outer loop
vertex 15 -6.16025403784439 30
vertex 12.3205080756888 0 30
vertex 10.6698729810778 -6.16025403784439 30
endloop
endfacet
facet normal 0 0 1
outer loop
vertex -12.3205080756888 -1.50877724718084E-15 30
vertex -10.6698729810778 6.16025403784438 30
vertex -15 6.16025403784438 30
endloop
endfacet
facet normal 0 0 1
outer loop
vertex -12.3205080756888 -1.50877724718084E-15 30
vertex -15 6.16025403784438 30
vertex -15 -1.50877724718084E-15 30
endloop
endfacet
facet normal 0 0 1
outer loop
vertex 15 -1.50877724718084E-15 30
vertex 15 6.16025403784438 30
vertex 10.6698729810778 6.16025403784439 30
endloop
endfacet
facet normal 0 0 1
outer loop
vertex 15 -1.50877724718084E-15 30
vertex 10.6698729810778 6.16025403784439 30
vertex 12.3205080756888 0 30
endloop
endfacet
facet normal 0 0 1
outer loop
vertex -10.6698729810778 6.16025403784438 30
vertex -6.16025403784439 10.6698729810778 30
vertex -15 10.6698729810778 30
endloop
endfacet
facet normal 0 0 1
outer loop
vertex -10.6698729810778 6.16025403784438 30
vertex -15 10.6698729810778 30
vertex -15 6.16025403784438 30
endloop
endfacet
facet normal 0 0 1
outer loop
vertex 15 6.16025403784438 30
vertex 15 10.6698729810778 30
vertex 6.16025403784439 10.6698729810778 30
endloop
endfacet
facet normal 0 0 1
outer loop
vertex 15 6.16025403784438 30
vertex 6.16025403784439 10.6698729810778 30
vertex 10.6698729810778 6.16025403784439 30
endloop
endfacet
facet normal 0 0 1
outer loop
vertex -6.16025403784439 10.6698729810778 30
vertex -2.26316587077126E-15 12.3205080756888 30
vertex -15 12.3205080756888 30
endloop
endfacet
facet normal 0 0 1
outer loop
vertex -6.16025403784439 10.6698729810778 30
vertex -15 12.3205080756888 30
vertex -15 10.6698729810778 30
endloop
endfacet
facet normal 0 0 1
outer loop
vertex 15 10.6698729810778 30
vertex 15 12.3205080756888 30
vertex -2.26316587077126E-15 12.3205080756888 30
endloop
endfacet
facet normal 0 0 1
outer loop
vertex 15 10.6698729810778 30
vertex -2.26316587077126E-15 12.3205080756888 30
vertex 6.16025403784439 10.6698729810778 30
endloop
endfacet
facet normal 0 0 1
outer loop
vertex 15 12.3205080756888 30
vertex 15 15 30
vertex -15 15 30
endloop
endfacet
facet normal 0 0 1
outer loop
vertex 15 12.3205080756888 30
vertex -15 15 30
vertex -15 12.3205080756888 30
endloop
endfacet
facet normal 1 0 0
outer loop
vertex 10.5 -1.66533453693773E-15 22.2583302491977
vertex 10.5 -2.8301270189222 21.5
vertex 10.5 -6.06217782649106 18.2679491924311
endloop
endfacet
facet normal 1 0 0
outer loop
vertex 10.5 -1.66533453693773E-15 22.2583302491977
vertex 10.5 -6.06217782649106 18.2679491924311
vertex 10.5 -7.2583302491977 15
endloop
endfacet
facet normal 1 0 0
outer loop
vertex 10.5 -1.66533453693773E-15 22.2583302491977
vertex 10.5 -7.2583302491977 15
vertex 10.5 -6.06217782649107 11.7320508075689
endloop
endfacet
facet normal 1 0 0
outer loop
vertex 10.5 -1.66533453693773E-15 22.2583302491977
vertex 10.5 -6.06217782649107 11.7320508075689
vertex 10.5 -2.8301270189222 8.5
endloop
endfacet
facet normal 1 0 0
outer loop
vertex 10.5 -1.66533453693773E-15 22.2583302491977
vertex 10.5 -2.8301270189222 8.5
vertex 10.5 -3.33066907387547E-15 7.7416697508023
endloop
endfacet
facet normal 1 0 0
outer loop
vertex 10.5 -1.66533453693773E-15 22.2583302491977
vertex 10.5 -3.33066907387547E-15 7.7416697508023
vertex 10.5 2.8301270189222 8.5
endloop
endfacet
facet normal 1 0 0
outer loop
vertex 10.5 -1.66533453693773E-15 22.2583302491977
vertex 10.5 2.8301270189222 8.5
vertex 10.5 6.06217782649107 11.7320508075689
endloop
endfacet
facet normal 1 0 0
outer loop
vertex 10.5 -1.66533453693773E-15 22.2583302491977
vertex 10.5 6.06217782649107 11.7320508075689
vertex 10.5 7.2583302491977 15
endloop
endfacet
facet normal 1 0 0
outer loop
vertex 10.5 -1.66533453693773E-15 22.2583302491977
vertex 10.5 7.2583302491977 15
vertex 10.5 6.06217782649107 18.2679491924311
endloop
endfacet
facet normal 1 0 0
outer loop
vertex 10.5 -1.66533453693773E-15 22.2583302491977
vertex 10.5 6.06217782649107 18.2679491924311
vertex 10.5 2.8301270189222 21.5
endloop
endfacet
facet normal 0 -1 0
outer loop
vertex 2.83012701892219 -10.5 8.5
vertex 6.06217782649108 -10.5 11.7320508075689
vertex 7.2583302491977 -10.5 15
endloop
endfacet
facet normal 0 -1 0
outer loop
vertex 2.83012701892219 -10.5 8.5
vertex 7.2583302491977 -10.5 15
vertex 6.06217782649107 -10.5 18.2679491924311
endloop
endfacet
facet normal 0 -1 0
outer loop
vertex 2.83012701892219 -10.5 8.5
vertex 6.06217782649107 -10.5 18.2679491924311
vertex 2.8301270189222 -10.5 21.5
endloop
endfacet
facet normal 0 -1 0
outer loop
vertex 2.83012701892219 -10.5 8.5
vertex 2.8301270189222 -10.5 21.5
vertex -5.55111512312578E-15 -10.5 22.2583302491977
endloop
endfacet
facet normal 0 -1 0
outer loop
vertex 2.83012701892219 -10.5 8.5
vertex -5.55111512312578E-15 -10.5 22.2583302491977
vertex -2.83012701892218 -10.5 21.5
endloop
endfacet
facet normal 0 -1 0
outer loop
vertex 2.83012701892219 -10.5 8.5
vertex -2.83012701892218 -10.5 21.5
vertex -6.06217782649107 -10.5 18.2679491924311
endloop
endfacet
facet normal 0 -1 0
outer loop
vertex 2.83012701892219 -10.5 8.5
vertex -6.06217782649107 -10.5 18.2679491924311
vertex -7.2583302491977 -10.5 15
endloop
endfacet
facet normal 0 -1 0
outer loop
vertex 2.83012701892219 -10.5 8.5
vertex -7.2583302491977 -10.5 15
vertex -6.06217782649107 -10.5 11.7320508075689
endloop
endfacet
facet normal 0 -1 0
outer loop
vertex 2.83012701892219 -10.5 8.5
vertex -6.06217782649107 -10.5 11.7320508075689
vertex -2.83012701892219 -10.5 8.5
endloop
endfacet
facet normal 0 -1 0
outer loop
vertex 2.83012701892219 -10.5 8.5
vertex -2.83012701892219 -10.5 8.5
vertex -1.94289029309402E-15 -10.5 7.7416697508023
endloop
endfacet
facet normal -1 0 0
outer loop
vertex -10.5 6.06217782649107 11.7320508075689
vertex -10.5 2.8301270189222 8.5
vertex -10.5 3.05311331771918E-15 7.7416697508023
endloop
endfacet
facet normal -1 0 0
outer loop
vertex -10.5 6.06217782649107 11.7320508075689
vertex -10.5 3.05311331771918E-15 7.7416697508023
vertex -10.5 -2.8301270189222 8.5
endloop
endfacet
facet normal -1 0 0
outer loop
vertex -10.5 6.06217782649107 11.7320508075689
vertex -10.5 -2.8301270189222 8.5
vertex -10.5 -6.06217782649107 11.7320508075689
endloop
endfacet
facet normal -1 0 0
outer loop
vertex -10.5 6.06217782649107 11.7320508075689
vertex -10.5 -6.06217782649107 11.7320508075689
vertex -10.5 -7.2583302491977 15
endloop
endfacet
facet normal -1 0 0
outer loop
vertex -10.5 6.06217782649107 11.7320508075689
vertex -10.5 -7.2583302491977 15
vertex -10.5 -6.06217782649107 18.2679491924311
endloop
endfacet
facet normal -1 0 0
outer loop
vertex -10.5 6.06217782649107 11.7320508075689
vertex -10.5 -6.06217782649107 18.2679491924311
vertex -10.5 -2.83012701892219 21.5
endloop
endfacet
facet normal -1 0 0
outer loop
vertex -10.5 6.06217782649107 11.7320508075689
vertex -10.5 -2.83012701892219 21.5
vertex -10.5 -2.77555756156289E-15 22.2583302491977
endloop
endfacet
facet normal -1 0 0
outer loop
vertex -10.5 6.06217782649107 11.7320508075689
vertex -10.5 -2.77555756156289E-15 22.2583302491977
vertex -10.5 2.8301270189222 21.5
endloop
endfacet
facet normal -1 0 0
outer loop
vertex -10.5 6.06217782649107 11.7320508075689
vertex -10.5 2.8301270189222 21.5
vertex -10.5 6.06217782649107 18.2679491924311
endloop
endfacet
facet normal -1 0 0
outer loop
vertex -10.5 6.06217782649107 11.7320508075689
vertex -10.5 6.06217782649107 18.2679491924311
vertex -10.5 7.2583302491977 15
endloop
endfacet
facet normal 0 1 0
outer loop
vertex 6.06217782649107 10.5 11.7320508075689
vertex 2.83012701892219 10.5 8.5
vertex 4.16333634234434E-15 10.5 7.7416697508023
endloop
endfacet
facet normal 0 1 0
outer loop
vertex 6.06217782649107 10.5 11.7320508075689
vertex 4.16333634234434E-15 10.5 7.7416697508023
vertex -2.83012701892219 10.5 8.5
endloop
endfacet
facet normal 0 1 0
outer loop
vertex 6.06217782649107 10.5 11.7320508075689
vertex -2.83012701892219 10.5 8.5
vertex -6.06217782649108 10.5 11.7320508075689
endloop
endfacet
facet normal 0 1 0
outer loop
vertex 6.06217782649107 10.5 11.7320508075689
vertex -6.06217782649108 10.5 11.7320508075689
vertex -7.2583302491977 10.5 15
endloop
endfacet
facet normal 0 1 0
outer loop
vertex 6.06217782649107 10.5 11.7320508075689
vertex -7.2583302491977 10.5 15
vertex -6.06217782649108 10.5 18.2679491924311
endloop
endfacet
facet normal 0 1 0
outer loop
vertex 6.06217782649107 10.5 11.7320508075689
vertex -6.06217782649108 10.5 18.2679491924311
vertex -2.8301270189222 10.5 21.5
endloop
endfacet
facet normal 0 1 0
outer loop
vertex 6.06217782649107 10.5 11.7320508075689
vertex -2.8301270189222 10.5 21.5
vertex -3.33066907387547E-15 10.5 22.2583302491977
endloop
endfacet
facet normal 0 1 0
outer loop
vertex 6.06217782649107 10.5 11.7320508075689
vertex -3.33066907387547E-15 10.5 22.2583302491977
vertex 2.8301270189222 10.5 21.5
endloop
endfacet
facet normal 0 1 0
outer loop
vertex 6.06217782649107 10.5 11.7320508075689
vertex 2.8301270189222 10.5 21.5
vertex 6.06217782649107 10.5 18.2679491924311
endloop
endfacet
facet normal 0 1 0
outer loop
vertex 6.06217782649107 10.5 11.7320508075689
vertex 6.06217782649107 10.5 18.2679491924311
vertex 7.2583302491977 10.5 15
endloop
endfacet
facet normal 0 0 -1
outer loop
vertex 7.2583302491977 5.55111512312578E-16 4.5
vertex 6.28589838486224 -3.62916512459885 4.5
vertex 3.62916512459885 -6.28589838486224 4.5
endloop
endfacet
facet normal 0 0 -1
outer loop
vertex 7.2583302491977 5.55111512312578E-16 4.5
vertex 3.62916512459885 -6.28589838486224 4.5
vertex 5.55111512312578E-16 -7.2583302491977 4.5
endloop
endfacet
facet normal 0 0 -1
outer loop
vertex 7.2583302491977 5.55111512312578E-16 4.5
vertex 5.55111512312578E-16 -7.2583302491977 4.5
vertex -3.62916512459885 -6.28589838486224 4.5
endloop
endfacet
facet normal 0 0 -1
outer loop
vertex 7.2583302491977 5.55111512312578E-16 4.5
vertex -3.62916512459885 -6.28589838486224 4.5
vertex -6.28589838486225 -3.62916512459885 4.5
endloop
endfacet
facet normal 0 0 -1
outer loop
vertex 7.2583302491977 5.55111512312578E-16 4.5
vertex -6.28589838486225 -3.62916512459885 4.5
vertex -7.2583302491977 -5.55111512312578E-16 4.5
endloop
endfacet
facet normal 0 0 -1
outer loop
vertex 7.2583302491977 5.55111512312578E-16 4.5
vertex -7.2583302491977 -5.55111512312578E-16 4.5
vertex -6.28589838486225 3.62916512459885 4.5
endloop
endfacet
facet normal 0 0 -1
outer loop
vertex 7.2583302491977 5.55111512312578E-16 4.5
vertex -6.28589838486225 3.62916512459885 4.5
vertex -3.62916512459886 6.28589838486224 4.5
endloop
endfacet
facet normal 0 0 -1
outer loop
vertex 7.2583302491977 5.55111512312578E-16 4.5
vertex -3.62916512459886 6.28589838486224 4.5
vertex 5.55111512312578E-16 7.2583302491977 4.5
endloop
endfacet
facet normal 0 0 -1
outer loop
vertex 7.2583302491977 5.55111512312578E-16 4.5
vertex 5.55111512312578E-16 7.2583302491977 4.5
vertex 3.62916512459885 6.28589838486224 4.5
endloop
endfacet
facet normal 0 0 -1
outer loop
vertex 7.2583302491977 5.55111512312578E-16 4.5
vertex 3.62916512459885 6.28589838486224 4.5
vertex 6.28589838486224 3.62916512459885 4.5
endloop
endfacet
facet normal 0 0 1
outer loop
vertex 3.62916512459885 -6.28589838486225 25.5
vertex 6.28589838486224 -3.62916512459885 25.5
vertex 7.2583302491977 4.9960036108132E-15 25.5
endloop
endfacet
facet normal 0 0 1
outer loop
vertex 3.62916512459885 -6.28589838486225 25.5
vertex 7.2583302491977 4.9960036108132E-15 25.5
vertex 6.28589838486224 3.62916512459886 25.5
endloop
endfacet
facet normal 0 0 1
outer loop
vertex 3.62916512459885 -6.28589838486225 25.5
vertex 6.28589838486224 3.62916512459886 25.5
vertex 3.62916512459886 6.28589838486224 25.5
endloop
endfacet
facet normal 0 0 1
outer loop
vertex 3.62916512459885 -6.28589838486225 25.5
vertex 3.62916512459886 6.28589838486224 25.5
vertex 0 7.2583302491977 25.5
endloop
endfacet
facet normal 0 0 1
outer loop
vertex 3.62916512459885 -6.28589838486225 25.5
vertex 0 7.2583302491977 25.5
vertex -3.62916512459885 6.28589838486224 25.5
endloop
endfacet
facet normal 0 0 1
outer loop
vertex 3.62916512459885 -6.28589838486225 25.5
vertex -3.62916512459885 6.28589838486224 25.5
vertex -6.28589838486224 3.62916512459885 25.5
endloop
endfacet
facet normal 0 0 1
outer loop
vertex 3.62916512459885 -6.28589838486225 25.5
vertex -6.28589838486224 3.62916512459885 25.5
vertex -7.2583302491977 -7.7715611723761E-15 25.5
endloop
endfacet
facet normal 0 0 1
outer loop
vertex 3.62916512459885 -6.28589838486225 25.5
vertex -7.2583302491977 -7.7715611723761E-15 25.5
vertex -6.28589838486225 -3.62916512459885 25.5
endloop
endfacet
facet normal 0 0 1
outer loop
vertex 3.62916512459885 -6.28589838486225 25.5
vertex -6.28589838486225 -3.62916512459885 25.5
vertex -3.62916512459885 -6.28589838486225 25.5
endloop
endfacet
facet normal 0 0 1
outer loop
vertex 3.62916512459885 -6.28589838486225 25.5
vertex -3.62916512459885 -6.28589838486225 25.5
vertex -1.11022302462516E-15 -7.2583302491977 25.5
endloop
endfacet
facet normal 0.935113126531029 -0.250562807085732 -0.250562807085731
outer loop
vertex 10.5 -6.06217782649107 11.7320508075689
vertex 9.75 -5.62916512459885 8.5
vertex 10.5 -2.8301270189222 8.5
endloop
endfacet
facet normal 0.935113126531029 -0.250562807085731 0.250562807085731
outer loop
vertex 10.5 -2.8301270189222 21.5
vertex 9.75 -5.62916512459885 21.5
vertex 10.5 -6.06217782649106 18.2679491924311
endloop
endfacet
facet normal 0.50858980270948 -0.50858980270948 -0.694746590606866
outer loop
vertex 6.28589838486224 -3.62916512459885 4.5
vertex 9.75 -5.62916512459885 8.5
vertex 5.62916512459885 -9.75 8.5
endloop
endfacet
facet normal 0.50858980270948 -0.50858980270948 -0.694746590606866
outer loop
vertex 6.28589838486224 -3.62916512459885 4.5
vertex 5.62916512459885 -9.75 8.5
vertex 3.62916512459885 -6.28589838486224 4.5
endloop
endfacet
facet normal 0.50858980270948 -0.508589802709481 0.694746590606866
outer loop
vertex 6.28589838486224 -3.62916512459885 25.5
vertex 3.62916512459885 -6.28589838486225 25.5
vertex 5.62916512459885 -9.75 21.5
endloop
endfacet
facet normal 0.50858980270948 -0.508589802709481 0.694746590606866
outer loop
vertex 6.28589838486224 -3.62916512459885 25.5
vertex 5.62916512459885 -9.75 21.5
vertex 9.75 -5.62916512459885 21.5
endloop
endfacet
facet normal 0.250562807085732 -0.935113126531029 -0.250562807085732
outer loop
vertex 6.06217782649108 -10.5 11.7320508075689
vertex 2.83012701892219 -10.5 8.5
vertex 5.62916512459885 -9.75 8.5
endloop
endfacet
facet normal 0.250562807085732 -0.935113126531029 0.250562807085731
outer loop
vertex 6.06217782649107 -10.5 18.2679491924311
vertex 5.62916512459885 -9.75 21.5
vertex 2.8301270189222 -10.5 21.5
endloop
endfacet
facet normal -0.250562807085732 -0.935113126531029 -0.250562807085731
outer loop
vertex -6.06217782649107 -10.5 11.7320508075689
vertex -5.62916512459885 -9.75 8.5
vertex -2.83012701892219 -10.5 8.5
endloop
endfacet
facet normal -0.250562807085732 -0.935113126531029 0.250562807085732
outer loop
vertex -2.83012701892218 -10.5 21.5
vertex -5.62916512459885 -9.75 21.5
vertex -6.06217782649107 -10.5 18.2679491924311
endloop
endfacet
facet normal -0.50858980270948 -0.50858980270948 -0.694746590606866
outer loop
vertex -3.62916512459885 -6.28589838486224 4.5
vertex -5.62916512459885 -9.75 8.5
vertex -9.75 -5.62916512459885 8.5
endloop
endfacet
facet normal -0.50858980270948 -0.50858980270948 -0.694746590606866
outer loop
vertex -3.62916512459885 -6.28589838486224 4.5
vertex -9.75 -5.62916512459885 8.5
vertex -6.28589838486225 -3.62916512459885 4.5
endloop
endfacet
facet normal -0.50858980270948 -0.508589802709481 0.694746590606866
outer loop
vertex -3.62916512459885 -6.28589838486225 25.5
vertex -6.28589838486225 -3.62916512459885 25.5
vertex -9.75 -5.62916512459885 21.5
endloop
endfacet
facet normal -0.50858980270948 -0.508589802709481 0.694746590606866
outer loop
vertex -3.62916512459885 -6.28589838486225 25.5
vertex -9.75 -5.62916512459885 21.5
vertex -5.62916512459885 -9.75 21.5
endloop
endfacet
facet normal -0.935113126531029 -0.250562807085732 -0.250562807085731
outer loop
vertex -10.5 -6.06217782649107 11.7320508075689
vertex -10.5 -2.8301270189222 8.5
vertex -9.75 -5.62916512459885 8.5
endloop
endfacet
facet normal -0.935113126531029 -0.250562807085731 0.250562807085731
outer loop
vertex -10.5 -6.06217782649107 18.2679491924311
vertex -9.75 -5.62916512459885 21.5
vertex -10.5 -2.83012701892219 21.5
endloop
endfacet
facet normal -0.93511312653103 0.250562807085731 -0.250562807085731
outer loop
vertex -10.5 6.06217782649107 11.7320508075689
vertex -9.75 5.62916512459885 8.5
vertex -10.5 2.8301270189222 8.5
endloop
endfacet
facet normal -0.935113126531029 0.250562807085731 0.250562807085732
outer loop
vertex -10.5 2.8301270189222 21.5
vertex -9.75 5.62916512459885 21.5
vertex -10.5 6.06217782649107 18.2679491924311
endloop
endfacet
facet normal -0.50858980270948 0.50858980270948 -0.694746590606866
outer loop
vertex -6.28589838486225 3.62916512459885 4.5
vertex -9.75 5.62916512459885 8.5
vertex -5.62916512459886 9.75 8.5
endloop
endfacet
facet normal -0.50858980270948 0.50858980270948 -0.694746590606866
outer loop
vertex -6.28589838486225 3.62916512459885 4.5
vertex -5.62916512459886 9.75 8.5
vertex -3.62916512459886 6.28589838486224 4.5
endloop
endfacet
facet normal -0.50858980270948 0.50858980270948 0.694746590606866
outer loop
vertex -6.28589838486224 3.62916512459885 25.5
vertex -3.62916512459885 6.28589838486224 25.5
vertex -5.62916512459886 9.75 21.5
endloop
endfacet
facet normal -0.50858980270948 0.50858980270948 0.694746590606866
outer loop
vertex -6.28589838486224 3.62916512459885 25.5
vertex -5.62916512459886 9.75 21.5
vertex -9.75 5.62916512459885 21.5
endloop
endfacet
facet normal -0.250562807085732 0.935113126531029 -0.250562807085732
outer loop
vertex -6.06217782649108 10.5 11.7320508075689
vertex -2.83012701892219 10.5 8.5
vertex -5.62916512459886 9.75 8.5
endloop
endfacet
facet normal -0.250562807085732 0.935113126531029 0.250562807085732
outer loop
vertex -6.06217782649108 10.5 18.2679491924311
vertex -5.62916512459886 9.75 21.5
vertex -2.8301270189222 10.5 21.5
endloop
endfacet
facet normal 0.250562807085732 0.935113126531029 -0.250562807085732
outer loop
vertex 6.06217782649107 10.5 11.7320508075689
vertex 5.62916512459885 9.75 8.5
vertex 2.83012701892219 10.5 8.5
endloop
endfacet
facet normal 0.250562807085731 0.935113126531029 0.250562807085732
outer loop
vertex 2.8301270189222 10.5 21.5
vertex 5.62916512459885 9.75 21.5
vertex 6.06217782649107 10.5 18.2679491924311
endloop
endfacet
facet normal 0.50858980270948 0.50858980270948 -0.694746590606866
outer loop
vertex 3.62916512459885 6.28589838486224 4.5
vertex 5.62916512459885 9.75 8.5
vertex 9.75 5.62916512459886 8.5
endloop
endfacet
facet normal 0.50858980270948 0.50858980270948 -0.694746590606866
outer loop
vertex 3.62916512459885 6.28589838486224 4.5
vertex 9.75 5.62916512459886 8.5
vertex 6.28589838486224 3.62916512459885 4.5
endloop
endfacet
facet normal 0.50858980270948 0.50858980270948 0.694746590606866
outer loop
vertex 3.62916512459886 6.28589838486224 25.5
vertex 6.28589838486224 3.62916512459886 25.5
vertex 9.75 5.62916512459886 21.5
endloop
endfacet
facet normal 0.50858980270948 0.50858980270948 0.694746590606866
outer loop
vertex 3.62916512459886 6.28589838486224 25.5
vertex 9.75 5.62916512459886 21.5
vertex 5.62916512459885 9.75 21.5
endloop
endfacet
facet normal 0.935113126531029 0.250562807085732 -0.250562807085732
outer loop
vertex 10.5 6.06217782649107 11.7320508075689
vertex 10.5 2.8301270189222 8.5
vertex 9.75 5.62916512459886 8.5
endloop
endfacet
facet normal 0.935113126531029 0.250562807085732 0.250562807085732
outer loop
vertex 10.5 6.06217782649107 18.2679491924311
vertex 9.75 5.62916512459886 21.5
vertex 10.5 2.8301270189222 21.5
endloop
endfacet
facet normal 0.694746590606866 -0.186156787897385 -0.694746590606866
outer loop
vertex 7.2583302491977 5.55111512312578E-16 4.5
vertex 10.5 -3.33066907387547E-15 7.7416697508023
vertex 10.5 -2.8301270189222 8.5
endloop
endfacet
facet normal 0.694746590606866 -0.186156787897385 -0.694746590606866
outer loop
vertex 7.2583302491977 5.55111512312578E-16 4.5
vertex 10.5 -2.8301270189222 8.5
vertex 9.75 -5.62916512459885 8.5
endloop
endfacet
facet normal 0.694746590606866 -0.186156787897385 -0.694746590606866
outer loop
vertex 7.2583302491977 5.55111512312578E-16 4.5
vertex 9.75 -5.62916512459885 8.5
vertex 6.28589838486224 -3.62916512459885 4.5
endloop
endfacet
facet normal 0.694746590606866 -0.186156787897386 0.694746590606866
outer loop
vertex 10.5 -1.66533453693773E-15 22.2583302491977
vertex 7.2583302491977 4.9960036108132E-15 25.5
vertex 6.28589838486224 -3.62916512459885 25.5
endloop
endfacet
facet normal 0.694746590606866 -0.186156787897386 0.694746590606866
outer loop
vertex 10.5 -1.66533453693773E-15 22.2583302491977
vertex 6.28589838486224 -3.62916512459885 25.5
vertex 9.75 -5.62916512459885 21.5
endloop
endfacet
facet normal 0.694746590606866 -0.186156787897386 0.694746590606866
outer loop
vertex 10.5 -1.66533453693773E-15 22.2583302491977
vertex 9.75 -5.62916512459885 21.5
vertex 10.5 -2.8301270189222 21.5
endloop
endfacet
facet normal 0.684550319445298 -0.684550319445298 -0.250562807085731
outer loop
vertex 10.5 -6.06217782649107 11.7320508075689
vertex 10.5 -7.2583302491977 15
vertex 7.2583302491977 -10.5 15
endloop
endfacet
facet normal 0.684550319445298 -0.684550319445298 -0.250562807085731
outer loop
vertex 10.5 -6.06217782649107 11.7320508075689
vertex 7.2583302491977 -10.5 15
vertex 6.06217782649108 -10.5 11.7320508075689
endloop
endfacet
facet normal 0.684550319445298 -0.684550319445298 -0.250562807085731
outer loop
vertex 10.5 -6.06217782649107 11.7320508075689
vertex 6.06217782649108 -10.5 11.7320508075689
vertex 5.62916512459885 -9.75 8.5
endloop
endfacet
facet normal 0.684550319445298 -0.684550319445298 -0.250562807085731
outer loop
vertex 10.5 -6.06217782649107 11.7320508075689
vertex 5.62916512459885 -9.75 8.5
vertex 9.75 -5.62916512459885 8.5
endloop
endfacet
facet normal 0.684550319445298 -0.684550319445298 0.250562807085731
outer loop
vertex 10.5 -6.06217782649106 18.2679491924311
vertex 9.75 -5.62916512459885 21.5
vertex 5.62916512459885 -9.75 21.5
endloop
endfacet
facet normal 0.684550319445298 -0.684550319445298 0.250562807085731
outer loop
vertex 10.5 -6.06217782649106 18.2679491924311
vertex 5.62916512459885 -9.75 21.5
vertex 6.06217782649107 -10.5 18.2679491924311
endloop
endfacet
facet normal 0.684550319445298 -0.684550319445298 0.250562807085731
outer loop
vertex 10.5 -6.06217782649106 18.2679491924311
vertex 6.06217782649107 -10.5 18.2679491924311
vertex 7.2583302491977 -10.5 15
endloop
endfacet
facet normal 0.684550319445298 -0.684550319445298 0.250562807085731
outer loop
vertex 10.5 -6.06217782649106 18.2679491924311
vertex 7.2583302491977 -10.5 15
vertex 10.5 -7.2583302491977 15
endloop
endfacet
facet normal 0.186156787897386 -0.694746590606866 -0.694746590606866
outer loop
vertex 3.62916512459885 -6.28589838486224 4.5
vertex 5.62916512459885 -9.75 8.5
vertex 2.83012701892219 -10.5 8.5
endloop
endfacet
facet normal 0.186156787897386 -0.694746590606866 -0.694746590606866
outer loop
vertex 3.62916512459885 -6.28589838486224 4.5
vertex 2.83012701892219 -10.5 8.5
vertex -1.94289029309402E-15 -10.5 7.7416697508023
endloop
endfacet
facet normal 0.186156787897386 -0.694746590606866 -0.694746590606866
outer loop
vertex 3.62916512459885 -6.28589838486224 4.5
vertex -1.94289029309402E-15 -10.5 7.7416697508023
vertex 5.55111512312578E-16 -7.2583302491977 4.5
endloop
endfacet
facet normal 0.186156787897386 -0.694746590606866 0.694746590606866
outer loop
vertex 3.62916512459885 -6.28589838486225 25.5
vertex -1.11022302462516E-15 -7.2583302491977 25.5
vertex -5.55111512312578E-15 -10.5 22.2583302491977
endloop
endfacet
facet normal 0.186156787897386 -0.694746590606866 0.694746590606866
outer loop
vertex 3.62916512459885 -6.28589838486225 25.5
vertex -5.55111512312578E-15 -10.5 22.2583302491977
vertex 2.8301270189222 -10.5 21.5
endloop
endfacet
facet normal 0.186156787897386 -0.694746590606866 0.694746590606866
outer loop
vertex 3.62916512459885 -6.28589838486225 25.5
vertex 2.8301270189222 -10.5 21.5
vertex 5.62916512459885 -9.75 21.5
endloop
endfacet
facet normal -0.186156787897385 -0.694746590606866 -0.694746590606866
outer loop
vertex 5.55111512312578E-16 -7.2583302491977 4.5
vertex -1.94289029309402E-15 -10.5 7.7416697508023
vertex -2.83012701892219 -10.5 8.5
endloop
endfacet
facet normal -0.186156787897385 -0.694746590606866 -0.694746590606866
outer loop
vertex 5.55111512312578E-16 -7.2583302491977 4.5
vertex -2.83012701892219 -10.5 8.5
vertex -5.62916512459885 -9.75 8.5
endloop
endfacet
facet normal -0.186156787897385 -0.694746590606866 -0.694746590606866
outer loop
vertex 5.55111512312578E-16 -7.2583302491977 4.5
vertex -5.62916512459885 -9.75 8.5
vertex -3.62916512459885 -6.28589838486224 4.5
endloop
endfacet
facet normal -0.186156787897386 -0.694746590606866 0.694746590606866
outer loop
vertex -5.55111512312578E-15 -10.5 22.2583302491977
vertex -1.11022302462516E-15 -7.2583302491977 25.5
vertex -3.62916512459885 -6.28589838486225 25.5
endloop
endfacet
facet normal -0.186156787897386 -0.694746590606866 0.694746590606866
outer loop
vertex -5.55111512312578E-15 -10.5 22.2583302491977
vertex -3.62916512459885 -6.28589838486225 25.5
vertex -5.62916512459885 -9.75 21.5
endloop
endfacet
facet normal -0.186156787897386 -0.694746590606866 0.694746590606866
outer loop
vertex -5.55111512312578E-15 -10.5 22.2583302491977
vertex -5.62916512459885 -9.75 21.5
vertex -2.83012701892218 -10.5 21.5
endloop
endfacet
facet normal -0.684550319445298 -0.684550319445298 -0.250562807085731
outer loop
vertex -6.06217782649107 -10.5 11.7320508075689
vertex -7.2583302491977 -10.5 15
vertex -10.5 -7.2583302491977 15
endloop
endfacet
facet normal -0.684550319445298 -0.684550319445298 -0.250562807085731
outer loop
vertex -6.06217782649107 -10.5 11.7320508075689
vertex -10.5 -7.2583302491977 15
vertex -10.5 -6.06217782649107 11.7320508075689
endloop
endfacet
facet normal -0.684550319445298 -0.684550319445298 -0.250562807085731
outer loop
vertex -6.06217782649107 -10.5 11.7320508075689
vertex -10.5 -6.06217782649107 11.7320508075689
vertex -9.75 -5.62916512459885 8.5
endloop
endfacet
facet normal -0.684550319445298 -0.684550319445298 -0.250562807085731
outer loop
vertex -6.06217782649107 -10.5 11.7320508075689
vertex -9.75 -5.62916512459885 8.5
vertex -5.62916512459885 -9.75 8.5
endloop
endfacet
facet normal -0.684550319445298 -0.684550319445298 0.250562807085732
outer loop
vertex -6.06217782649107 -10.5 18.2679491924311
vertex -5.62916512459885 -9.75 21.5
vertex -9.75 -5.62916512459885 21.5
endloop
endfacet
facet normal -0.684550319445298 -0.684550319445298 0.250562807085732
outer loop
vertex -6.06217782649107 -10.5 18.2679491924311
vertex -9.75 -5.62916512459885 21.5
vertex -10.5 -6.06217782649107 18.2679491924311
endloop
endfacet
facet normal -0.684550319445298 -0.684550319445298 0.250562807085732
outer loop
vertex -6.06217782649107 -10.5 18.2679491924311
vertex -10.5 -6.06217782649107 18.2679491924311
vertex -10.5 -7.2583302491977 15
endloop
endfacet
facet normal -0.684550319445298 -0.684550319445298 0.250562807085732
outer loop
vertex -6.06217782649107 -10.5 18.2679491924311
vertex -10.5 -7.2583302491977 15
vertex -7.2583302491977 -10.5 15
endloop
endfacet
facet normal -0.694746590606866 -0.186156787897385 -0.694746590606866
outer loop
vertex -6.28589838486225 -3.62916512459885 4.5
vertex -9.75 -5.62916512459885 8.5
vertex -10.5 -2.8301270189222 8.5
endloop
endfacet
facet normal -0.694746590606866 -0.186156787897385 -0.694746590606866
outer loop
vertex -6.28589838486225 -3.62916512459885 4.5
vertex -10.5 -2.8301270189222 8.5
vertex -10.5 3.05311331771918E-15 7.7416697508023
endloop
endfacet
facet normal -0.694746590606866 -0.186156787897385 -0.694746590606866
outer loop
vertex -6.28589838486225 -3.62916512459885 4.5
vertex -10.5 3.05311331771918E-15 7.7416697508023
vertex -7.2583302491977 -5.55111512312578E-16 4.5
endloop
endfacet
facet normal -0.694746590606866 -0.186156787897386 0.694746590606866
outer loop
vertex -6.28589838486225 -3.62916512459885 25.5
vertex -7.2583302491977 -7.7715611723761E-15 25.5
vertex -10.5 -2.77555756156289E-15 22.2583302491977
endloop
endfacet
facet normal -0.694746590606866 -0.186156787897386 0.694746590606866
outer loop
vertex -6.28589838486225 -3.62916512459885 25.5
vertex -10.5 -2.77555756156289E-15 22.2583302491977
vertex -10.5 -2.83012701892219 21.5
endloop
endfacet
facet normal -0.694746590606866 -0.186156787897386 0.694746590606866
outer loop
vertex -6.28589838486225 -3.62916512459885 25.5
vertex -10.5 -2.83012701892219 21.5
vertex -9.75 -5.62916512459885 21.5
endloop
endfacet
facet normal -0.694746590606866 0.186156787897385 -0.694746590606866
outer loop
vertex -7.2583302491977 -5.55111512312578E-16 4.5
vertex -10.5 3.05311331771918E-15 7.7416697508023
vertex -10.5 2.8301270189222 8.5
endloop
endfacet
facet normal -0.694746590606866 0.186156787897385 -0.694746590606866
outer loop
vertex -7.2583302491977 -5.55111512312578E-16 4.5
vertex -10.5 2.8301270189222 8.5
vertex -9.75 5.62916512459885 8.5
endloop
endfacet
facet normal -0.694746590606866 0.186156787897385 -0.694746590606866
outer loop
vertex -7.2583302491977 -5.55111512312578E-16 4.5
vertex -9.75 5.62916512459885 8.5
vertex -6.28589838486225 3.62916512459885 4.5
endloop
endfacet
facet normal -0.694746590606866 0.186156787897385 0.694746590606866
outer loop
vertex -10.5 -2.77555756156289E-15 22.2583302491977
vertex -7.2583302491977 -7.7715611723761E-15 25.5
vertex -6.28589838486224 3.62916512459885 25.5
endloop
endfacet
facet normal -0.694746590606866 0.186156787897385 0.694746590606866
outer loop
vertex -10.5 -2.77555756156289E-15 22.2583302491977
vertex -6.28589838486224 3.62916512459885 25.5
vertex -9.75 5.62916512459885 21.5
endloop
endfacet
facet normal -0.694746590606866 0.186156787897385 0.694746590606866
outer loop
vertex -10.5 -2.77555756156289E-15 22.2583302491977
vertex -9.75 5.62916512459885 21.5
vertex -10.5 2.8301270189222 21.5
endloop
endfacet
facet normal -0.684550319445298 0.684550319445298 -0.250562807085732
outer loop
vertex -10.5 6.06217782649107 11.7320508075689
vertex -10.5 7.2583302491977 15
vertex -7.2583302491977 10.5 15
endloop
endfacet
facet normal -0.684550319445298 0.684550319445298 -0.250562807085732
outer loop
vertex -10.5 6.06217782649107 11.7320508075689
vertex -7.2583302491977 10.5 15
vertex -6.06217782649108 10.5 11.7320508075689
endloop
endfacet
facet normal -0.684550319445298 0.684550319445298 -0.250562807085732
outer loop
vertex -10.5 6.06217782649107 11.7320508075689
vertex -6.06217782649108 10.5 11.7320508075689
vertex -5.62916512459886 9.75 8.5
endloop
endfacet
facet normal -0.684550319445298 0.684550319445298 -0.250562807085732
outer loop
vertex -10.5 6.06217782649107 11.7320508075689
vertex -5.62916512459886 9.75 8.5
vertex -9.75 5.62916512459885 8.5
endloop
endfacet
facet normal -0.684550319445298 0.684550319445298 0.250562807085732
outer loop
vertex -10.5 6.06217782649107 18.2679491924311
vertex -9.75 5.62916512459885 21.5
vertex -5.62916512459886 9.75 21.5
endloop
endfacet
facet normal -0.684550319445298 0.684550319445298 0.250562807085732
outer loop
vertex -10.5 6.06217782649107 18.2679491924311
vertex -5.62916512459886 9.75 21.5
vertex -6.06217782649108 10.5 18.2679491924311
endloop
endfacet
facet normal -0.684550319445298 0.684550319445298 0.250562807085732
outer loop
vertex -10.5 6.06217782649107 18.2679491924311
vertex -6.06217782649108 10.5 18.2679491924311
vertex -7.2583302491977 10.5 15
endloop
endfacet
facet normal -0.684550319445298 0.684550319445298 0.250562807085732
outer loop
vertex -10.5 6.06217782649107 18.2679491924311
vertex -7.2583302491977 10.5 15
vertex -10.5 7.2583302491977 15
endloop
endfacet
facet normal -0.186156787897386 0.694746590606866 -0.694746590606866
outer loop
vertex -3.62916512459886 6.28589838486224 4.5
vertex -5.62916512459886 9.75 8.5
vertex -2.83012701892219 10.5 8.5
endloop
endfacet
facet normal -0.186156787897386 0.694746590606866 -0.694746590606866
outer loop
vertex -3.62916512459886 6.28589838486224 4.5
vertex -2.83012701892219 10.5 8.5
vertex 4.16333634234434E-15 10.5 7.7416697508023
endloop
endfacet
facet normal -0.186156787897386 0.694746590606866 -0.694746590606866
outer loop
vertex -3.62916512459886 6.28589838486224 4.5
vertex 4.16333634234434E-15 10.5 7.7416697508023
vertex 5.55111512312578E-16 7.2583302491977 4.5
endloop
endfacet
facet normal -0.186156787897386 0.694746590606866 0.694746590606866
outer loop
vertex -3.62916512459885 6.28589838486224 25.5
vertex 0 7.2583302491977 25.5
vertex -3.33066907387547E-15 10.5 22.2583302491977
endloop
endfacet
facet normal -0.186156787897386 0.694746590606866 0.694746590606866
outer loop
vertex -3.62916512459885 6.28589838486224 25.5
vertex -3.33066907387547E-15 10.5 22.2583302491977
vertex -2.8301270189222 10.5 21.5
endloop
endfacet
facet normal -0.186156787897386 0.694746590606866 0.694746590606866
outer loop
vertex -3.62916512459885 6.28589838486224 25.5
vertex -2.8301270189222 10.5 21.5
vertex -5.62916512459886 9.75 21.5
endloop
endfacet
facet normal 0.186156787897385 0.694746590606866 -0.694746590606866
outer loop
vertex 5.55111512312578E-16 7.2583302491977 4.5
vertex 4.16333634234434E-15 10.5 7.7416697508023
vertex 2.83012701892219 10.5 8.5
endloop
endfacet
facet normal 0.186156787897385 0.694746590606866 -0.694746590606866
outer loop
vertex 5.55111512312578E-16 7.2583302491977 4.5
vertex 2.83012701892219 10.5 8.5
vertex 5.62916512459885 9.75 8.5
endloop
endfacet
facet normal 0.186156787897385 0.694746590606866 -0.694746590606866
outer loop
vertex 5.55111512312578E-16 7.2583302491977 4.5
vertex 5.62916512459885 9.75 8.5
vertex 3.62916512459885 6.28589838486224 4.5
endloop
endfacet
facet normal 0.186156787897386 0.694746590606866 0.694746590606866
outer loop
vertex -3.33066907387547E-15 10.5 22.2583302491977
vertex 0 7.2583302491977 25.5
vertex 3.62916512459886 6.28589838486224 25.5
endloop
endfacet
facet normal 0.186156787897386 0.694746590606866 0.694746590606866
outer loop
vertex -3.33066907387547E-15 10.5 22.2583302491977
vertex 3.62916512459886 6.28589838486224 25.5
vertex 5.62916512459885 9.75 21.5
endloop
endfacet
facet normal 0.186156787897386 0.694746590606866 0.694746590606866
outer loop
vertex -3.33066907387547E-15 10.5 22.2583302491977
vertex 5.62916512459885 9.75 21.5
vertex 2.8301270189222 10.5 21.5
endloop
endfacet
facet normal 0.684550319445298 0.684550319445298 -0.250562807085732
outer loop
vertex 6.06217782649107 10.5 11.7320508075689
vertex 7.2583302491977 10.5 15
vertex 10.5 7.2583302491977 15
endloop
endfacet
facet normal 0.684550319445298 0.684550319445298 -0.250562807085732
outer loop
vertex 6.06217782649107 10.5 11.7320508075689
vertex 10.5 7.2583302491977 15
vertex 10.5 6.06217782649107 11.7320508075689
endloop
endfacet
facet normal 0.684550319445298 0.684550319445298 -0.250562807085732
outer loop
vertex 6.06217782649107 10.5 11.7320508075689
vertex 10.5 6.06217782649107 11.7320508075689
vertex 9.75 5.62916512459886 8.5
endloop
endfacet
facet normal 0.684550319445298 0.684550319445298 -0.250562807085732
outer loop
vertex 6.06217782649107 10.5 11.7320508075689
vertex 9.75 5.62916512459886 8.5
vertex 5.62916512459885 9.75 8.5
endloop
endfacet
facet normal 0.684550319445298 0.684550319445298 0.250562807085732
outer loop
vertex 6.06217782649107 10.5 18.2679491924311
vertex 5.62916512459885 9.75 21.5
vertex 9.75 5.62916512459886 21.5
endloop
endfacet
facet normal 0.684550319445298 0.684550319445298 0.250562807085732
outer loop
vertex 6.06217782649107 10.5 18.2679491924311
vertex 9.75 5.62916512459886 21.5
vertex 10.5 6.06217782649107 18.2679491924311
endloop
endfacet
facet normal 0.684550319445298 0.684550319445298 0.250562807085732
outer loop
vertex 6.06217782649107 10.5 18.2679491924311
vertex 10.5 6.06217782649107 18.2679491924311
vertex 10.5 7.2583302491977 15
endloop
endfacet
facet normal 0.684550319445298 0.684550319445298 0.250562807085732
outer loop
vertex 6.06217782649107 10.5 18.2679491924311
vertex 10.5 7.2583302491977 15
vertex 7.2583302491977 10.5 15
endloop
endfacet
facet normal 0.694746590606866 0.186156787897386 -0.694746590606866
outer loop
vertex 6.28589838486224 3.62916512459885 4.5
vertex 9.75 5.62916512459886 8.5
vertex 10.5 2.8301270189222 8.5
endloop
endfacet
facet normal 0.694746590606866 0.186156787897386 -0.694746590606866
outer loop
vertex 6.28589838486224 3.62916512459885 4.5
vertex 10.5 2.8301270189222 8.5
vertex 10.5 -3.33066907387547E-15 7.7416697508023
endloop
endfacet
facet normal 0.694746590606866 0.186156787897386 -0.694746590606866
outer loop
vertex 6.28589838486224 3.62916512459885 4.5
vertex 10.5 -3.33066907387547E-15 7.7416697508023
vertex 7.2583302491977 5.55111512312578E-16 4.5
endloop
endfacet
facet normal 0.694746590606866 0.186156787897386 0.694746590606866
outer loop
vertex 6.28589838486224 3.62916512459886 25.5
vertex 7.2583302491977 4.9960036108132E-15 25.5
vertex 10.5 -1.66533453693773E-15 22.2583302491977
endloop
endfacet
facet normal 0.694746590606866 0.186156787897386 0.694746590606866
outer loop
vertex 6.28589838486224 3.62916512459886 25.5
vertex 10.5 -1.66533453693773E-15 22.2583302491977
vertex 10.5 2.8301270189222 21.5
endloop
endfacet
facet normal 0.694746590606866 0.186156787897386 0.694746590606866
outer loop
vertex 6.28589838486224 3.62916512459886 25.5
vertex 10.5 2.8301270189222 21.5
vertex 9.75 5.62916512459886 21.5
endloop
endfacet
endsolid OpenJsCadLogo
