solid BigRadius
facet normal 0.935113126531029 -0.250562807085731 -0.250562807085732
outer loop
vertex 1000000000000 0 0
vertex 866025403784.439 -500000000000 0
vertex 750000000000 -433012701892.219 -500000000000
endloop
endfacet
facet normal 0.935113126531029 -0.250562807085731 -0.250562807085732
outer loop
vertex 1000000000000 0 0
vertex 750000000000 -433012701892.219 -500000000000
vertex 866025403784.439 0 -500000000000
endloop
endfacet
facet normal 0.935113126531029 -0.250562807085732 0.250562807085732
outer loop
vertex 866025403784.439 0 500000000000
vertex 750000000000 -433012701892.219 500000000000
vertex 866025403784.439 -500000000000 0
endloop
endfacet
facet normal 0.935113126531029 -0.250562807085732 0.250562807085732
outer loop
vertex 866025403784.439 0 500000000000
vertex 866025403784.439 -500000000000 0
vertex 1000000000000 0 0
endloop
endfacet
facet normal 0.694746590606866 -0.186156787897385 -0.694746590606866
outer loop
vertex 866025403784.439 0 -500000000000
vertex 750000000000 -433012701892.219 -500000000000
vertex 433012701892.219 -250000000000 -866025403784.439
endloop
endfacet
facet normal 0.694746590606866 -0.186156787897385 -0.694746590606866
outer loop
vertex 866025403784.439 0 -500000000000
vertex 433012701892.219 -250000000000 -866025403784.439
vertex 500000000000 0 -866025403784.439
endloop
endfacet
facet normal 0.694746590606866 -0.186156787897385 0.694746590606866
outer loop
vertex 500000000000 0 866025403784.439
vertex 433012701892.219 -250000000000 866025403784.439
vertex 750000000000 -433012701892.219 500000000000
endloop
endfacet
facet normal 0.694746590606866 -0.186156787897385 0.694746590606866
outer loop
vertex 500000000000 0 866025403784.439
vertex 750000000000 -433012701892.219 500000000000
vertex 866025403784.439 0 500000000000
endloop
endfacet
facet normal 0.258198889747161 -0.0691841839943643 -0.96361137499428
outer loop
vertex 500000000000 0 -866025403784.439
vertex 433012701892.219 -250000000000 -866025403784.439
vertex 6.12303176911189E-05 0 -1000000000000
endloop
endfacet
facet normal 0.258198889747161 -0.0691841839943642 0.96361137499428
outer loop
vertex 6.12303176911189E-05 0 1000000000000
vertex 433012701892.219 -250000000000 866025403784.439
vertex 500000000000 0 866025403784.439
endloop
endfacet
facet normal 0.684550319445298 -0.684550319445298 -0.250562807085731
outer loop
vertex 866025403784.439 -500000000000 0
vertex 500000000000 -866025403784.439 0
vertex 433012701892.219 -750000000000 -500000000000
endloop
endfacet
facet normal 0.684550319445298 -0.684550319445298 -0.250562807085731
outer loop
vertex 866025403784.439 -500000000000 0
vertex 433012701892.219 -750000000000 -500000000000
vertex 750000000000 -433012701892.219 -500000000000
endloop
endfacet
facet normal 0.684550319445298 -0.684550319445298 0.250562807085732
outer loop
vertex 750000000000 -433012701892.219 500000000000
vertex 433012701892.219 -750000000000 500000000000
vertex 500000000000 -866025403784.439 0
endloop
endfacet
facet normal 0.684550319445298 -0.684550319445298 0.250562807085732
outer loop
vertex 750000000000 -433012701892.219 500000000000
vertex 500000000000 -866025403784.439 0
vertex 866025403784.439 -500000000000 0
endloop
endfacet
facet normal 0.50858980270948 -0.50858980270948 -0.694746590606866
outer loop
vertex 750000000000 -433012701892.219 -500000000000
vertex 433012701892.219 -750000000000 -500000000000
vertex 250000000000 -433012701892.219 -866025403784.439
endloop
endfacet
facet normal 0.50858980270948 -0.50858980270948 -0.694746590606866
outer loop
vertex 750000000000 -433012701892.219 -500000000000
vertex 250000000000 -433012701892.219 -866025403784.439
vertex 433012701892.219 -250000000000 -866025403784.439
endloop
endfacet
facet normal 0.50858980270948 -0.50858980270948 0.694746590606866
outer loop
vertex 433012701892.219 -250000000000 866025403784.439
vertex 250000000000 -433012701892.219 866025403784.439
vertex 433012701892.219 -750000000000 500000000000
endloop
endfacet
facet normal 0.50858980270948 -0.50858980270948 0.694746590606866
outer loop
vertex 433012701892.219 -250000000000 866025403784.439
vertex 433012701892.219 -750000000000 500000000000
vertex 750000000000 -433012701892.219 500000000000
endloop
endfacet
facet normal 0.189014705752797 -0.189014705752797 -0.96361137499428
outer loop
vertex 433012701892.219 -250000000000 -866025403784.439
vertex 250000000000 -433012701892.219 -866025403784.439
vertex 5.30270106023007E-05 -3.06151588455594E-05 -1000000000000
endloop
endfacet
facet normal 0.189014705752797 -0.189014705752797 0.96361137499428
outer loop
vertex 5.30270106023007E-05 -3.06151588455594E-05 1000000000000
vertex 250000000000 -433012701892.219 866025403784.439
vertex 433012701892.219 -250000000000 866025403784.439
endloop
endfacet
facet normal 0.250562807085732 -0.935113126531029 -0.250562807085731
outer loop
vertex 500000000000 -866025403784.439 0
vertex 6.12303176911189E-05 -1000000000000 0
vertex 5.30270106023007E-05 -866025403784.439 -500000000000
endloop
endfacet
facet normal 0.250562807085732 -0.935113126531029 -0.250562807085731
outer loop
vertex 500000000000 -866025403784.439 0
vertex 5.30270106023007E-05 -866025403784.439 -500000000000
vertex 433012701892.219 -750000000000 -500000000000
endloop
endfacet
facet normal 0.250562807085732 -0.935113126531029 0.250562807085731
outer loop
vertex 433012701892.219 -750000000000 500000000000
vertex 5.30270106023007E-05 -866025403784.439 500000000000
vertex 6.12303176911189E-05 -1000000000000 0
endloop
endfacet
facet normal 0.250562807085732 -0.935113126531029 0.250562807085731
outer loop
vertex 433012701892.219 -750000000000 500000000000
vertex 6.12303176911189E-05 -1000000000000 0
vertex 500000000000 -866025403784.439 0
endloop
endfacet
facet normal 0.186156787897386 -0.694746590606866 -0.694746590606866
outer loop
vertex 433012701892.219 -750000000000 -500000000000
vertex 5.30270106023007E-05 -866025403784.439 -500000000000
vertex 3.06151588455594E-05 -500000000000 -866025403784.439
endloop
endfacet
facet normal 0.186156787897386 -0.694746590606866 -0.694746590606866
outer loop
vertex 433012701892.219 -750000000000 -500000000000
vertex 3.06151588455594E-05 -500000000000 -866025403784.439
vertex 250000000000 -433012701892.219 -866025403784.439
endloop
endfacet
facet normal 0.186156787897386 -0.694746590606866 0.694746590606866
outer loop
vertex 250000000000 -433012701892.219 866025403784.439
vertex 3.06151588455594E-05 -500000000000 866025403784.439
vertex 5.30270106023007E-05 -866025403784.439 500000000000
endloop
endfacet
facet normal 0.186156787897386 -0.694746590606866 0.694746590606866
outer loop
vertex 250000000000 -433012701892.219 866025403784.439
vertex 5.30270106023007E-05 -866025403784.439 500000000000
vertex 433012701892.219 -750000000000 500000000000
endloop
endfacet
facet normal 0.0691841839943643 -0.258198889747161 -0.96361137499428
outer loop
vertex 250000000000 -433012701892.219 -866025403784.439
vertex 3.06151588455594E-05 -500000000000 -866025403784.439
vertex 3.06151588455594E-05 -5.30270106023007E-05 -1000000000000
endloop
endfacet
facet normal 0.0691841839943643 -0.258198889747161 0.96361137499428
outer loop
vertex 3.06151588455594E-05 -5.30270106023007E-05 1000000000000
vertex 3.06151588455594E-05 -500000000000 866025403784.439
vertex 250000000000 -433012701892.219 866025403784.439
endloop
endfacet
facet normal -0.250562807085732 -0.935113126531029 -0.250562807085732
outer loop
vertex 6.12303176911189E-05 -1000000000000 0
vertex -500000000000 -866025403784.439 0
vertex -433012701892.219 -750000000000 -500000000000
endloop
endfacet
facet normal -0.250562807085732 -0.935113126531029 -0.250562807085732
outer loop
vertex 6.12303176911189E-05 -1000000000000 0
vertex -433012701892.219 -750000000000 -500000000000
vertex 5.30270106023007E-05 -866025403784.439 -500000000000
endloop
endfacet
facet normal -0.250562807085732 -0.935113126531029 0.250562807085731
outer loop
vertex 5.30270106023007E-05 -866025403784.439 500000000000
vertex -433012701892.219 -750000000000 500000000000
vertex -500000000000 -866025403784.439 0
endloop
endfacet
facet normal -0.250562807085732 -0.935113126531029 0.250562807085731
outer loop
vertex 5.30270106023007E-05 -866025403784.439 500000000000
vertex -500000000000 -866025403784.439 0
vertex 6.12303176911189E-05 -1000000000000 0
endloop
endfacet
facet normal -0.186156787897386 -0.694746590606866 -0.694746590606866
outer loop
vertex 5.30270106023007E-05 -866025403784.439 -500000000000
vertex -433012701892.219 -750000000000 -500000000000
vertex -250000000000 -433012701892.219 -866025403784.439
endloop
endfacet
facet normal -0.186156787897386 -0.694746590606866 -0.694746590606866
outer loop
vertex 5.30270106023007E-05 -866025403784.439 -500000000000
vertex -250000000000 -433012701892.219 -866025403784.439
vertex 3.06151588455594E-05 -500000000000 -866025403784.439
endloop
endfacet
facet normal -0.186156787897385 -0.694746590606866 0.694746590606866
outer loop
vertex 3.06151588455594E-05 -500000000000 866025403784.439
vertex -250000000000 -433012701892.219 866025403784.439
vertex -433012701892.219 -750000000000 500000000000
endloop
endfacet
facet normal -0.186156787897385 -0.694746590606866 0.694746590606866
outer loop
vertex 3.06151588455594E-05 -500000000000 866025403784.439
vertex -433012701892.219 -750000000000 500000000000
vertex 5.30270106023007E-05 -866025403784.439 500000000000
endloop
endfacet
facet normal -0.0691841839943643 -0.258198889747161 -0.96361137499428
outer loop
vertex 3.06151588455594E-05 -500000000000 -866025403784.439
vertex -250000000000 -433012701892.219 -866025403784.439
vertex 3.74915180455534E-21 -6.12303176911189E-05 -1000000000000
endloop
endfacet
facet normal -0.0691841839943642 -0.258198889747161 0.96361137499428
outer loop
vertex 3.74915180455534E-21 -6.12303176911189E-05 1000000000000
vertex -250000000000 -433012701892.219 866025403784.439
vertex 3.06151588455594E-05 -500000000000 866025403784.439
endloop
endfacet
facet normal -0.684550319445298 -0.684550319445298 -0.250562807085731
outer loop
vertex -500000000000 -866025403784.439 0
vertex -866025403784.439 -500000000000 0
vertex -750000000000 -433012701892.219 -500000000000
endloop
endfacet
facet normal -0.684550319445298 -0.684550319445298 -0.250562807085731
outer loop
vertex -500000000000 -866025403784.439 0
vertex -750000000000 -433012701892.219 -500000000000
vertex -433012701892.219 -750000000000 -500000000000
endloop
endfacet
facet normal -0.684550319445298 -0.684550319445298 0.250562807085731
outer loop
vertex -433012701892.219 -750000000000 500000000000
vertex -750000000000 -433012701892.219 500000000000
vertex -866025403784.439 -500000000000 0
endloop
endfacet
facet normal -0.684550319445298 -0.684550319445298 0.250562807085731
outer loop
vertex -433012701892.219 -750000000000 500000000000
vertex -866025403784.439 -500000000000 0
vertex -500000000000 -866025403784.439 0
endloop
endfacet
facet normal -0.50858980270948 -0.50858980270948 -0.694746590606866
outer loop
vertex -433012701892.219 -750000000000 -500000000000
vertex -750000000000 -433012701892.219 -500000000000
vertex -433012701892.219 -250000000000 -866025403784.439
endloop
endfacet
facet normal -0.50858980270948 -0.50858980270948 -0.694746590606866
outer loop
vertex -433012701892.219 -750000000000 -500000000000
vertex -433012701892.219 -250000000000 -866025403784.439
vertex -250000000000 -433012701892.219 -866025403784.439
endloop
endfacet
facet normal -0.50858980270948 -0.50858980270948 0.694746590606866
outer loop
vertex -250000000000 -433012701892.219 866025403784.439
vertex -433012701892.219 -250000000000 866025403784.439
vertex -750000000000 -433012701892.219 500000000000
endloop
endfacet
facet normal -0.50858980270948 -0.50858980270948 0.694746590606866
outer loop
vertex -250000000000 -433012701892.219 866025403784.439
vertex -750000000000 -433012701892.219 500000000000
vertex -433012701892.219 -750000000000 500000000000
endloop
endfacet
facet normal -0.189014705752797 -0.189014705752797 -0.96361137499428
outer loop
vertex -250000000000 -433012701892.219 -866025403784.439
vertex -433012701892.219 -250000000000 -866025403784.439
vertex -3.06151588455594E-05 -5.30270106023007E-05 -1000000000000
endloop
endfacet
facet normal -0.189014705752797 -0.189014705752797 0.96361137499428
outer loop
vertex -3.06151588455594E-05 -5.30270106023007E-05 1000000000000
vertex -433012701892.219 -250000000000 866025403784.439
vertex -250000000000 -433012701892.219 866025403784.439
endloop
endfacet
facet normal -0.935113126531029 -0.250562807085732 -0.250562807085731
outer loop
vertex -866025403784.439 -500000000000 0
vertex -1000000000000 -0.000122460635382238 0
vertex -866025403784.439 -0.000106054021204601 -500000000000
endloop
endfacet
facet normal -0.935113126531029 -0.250562807085732 -0.250562807085731
outer loop
vertex -866025403784.439 -500000000000 0
vertex -866025403784.439 -0.000106054021204601 -500000000000
vertex -750000000000 -433012701892.219 -500000000000
endloop
endfacet
facet normal -0.935113126531029 -0.250562807085732 0.250562807085731
outer loop
vertex -750000000000 -433012701892.219 500000000000
vertex -866025403784.439 -0.000106054021204601 500000000000
vertex -1000000000000 -0.000122460635382238 0
endloop
endfacet
facet normal -0.935113126531029 -0.250562807085732 0.250562807085731
outer loop
vertex -750000000000 -433012701892.219 500000000000
vertex -1000000000000 -0.000122460635382238 0
vertex -866025403784.439 -500000000000 0
endloop
endfacet
facet normal -0.694746590606866 -0.186156787897385 -0.694746590606866
outer loop
vertex -750000000000 -433012701892.219 -500000000000
vertex -866025403784.439 -0.000106054021204601 -500000000000
vertex -500000000000 -6.12303176911189E-05 -866025403784.439
endloop
endfacet
facet normal -0.694746590606866 -0.186156787897385 -0.694746590606866
outer loop
vertex -750000000000 -433012701892.219 -500000000000
vertex -500000000000 -6.12303176911189E-05 -866025403784.439
vertex -433012701892.219 -250000000000 -866025403784.439
endloop
endfacet
facet normal -0.694746590606866 -0.186156787897385 0.694746590606866
outer loop
vertex -433012701892.219 -250000000000 866025403784.439
vertex -500000000000 -6.12303176911189E-05 866025403784.439
vertex -866025403784.439 -0.000106054021204601 500000000000
endloop
endfacet
facet normal -0.694746590606866 -0.186156787897385 0.694746590606866
outer loop
vertex -433012701892.219 -250000000000 866025403784.439
vertex -866025403784.439 -0.000106054021204601 500000000000
vertex -750000000000 -433012701892.219 500000000000
endloop
endfacet
facet normal -0.258198889747161 -0.0691841839943643 -0.96361137499428
outer loop
vertex -433012701892.219 -250000000000 -866025403784.439
vertex -500000000000 -6.12303176911189E-05 -866025403784.439
vertex -5.30270106023007E-05 -3.06151588455594E-05 -1000000000000
endloop
endfacet
facet normal -0.258198889747161 -0.0691841839943643 0.96361137499428
outer loop
vertex -5.30270106023007E-05 -3.06151588455594E-05 1000000000000
vertex -500000000000 -6.12303176911189E-05 866025403784.439
vertex -433012701892.219 -250000000000 866025403784.439
endloop
endfacet
facet normal -0.935113126531029 0.250562807085731 -0.250562807085731
outer loop
vertex -1000000000000 -0.000122460635382238 0
vertex -866025403784.439 500000000000 0
vertex -750000000000 433012701892.219 -500000000000
endloop
endfacet
facet normal -0.935113126531029 0.250562807085731 -0.250562807085731
outer loop
vertex -1000000000000 -0.000122460635382238 0
vertex -750000000000 433012701892.219 -500000000000
vertex -866025403784.439 -0.000106054021204601 -500000000000
endloop
endfacet
facet normal -0.935113126531029 0.250562807085731 0.250562807085731
outer loop
vertex -866025403784.439 -0.000106054021204601 500000000000
vertex -750000000000 433012701892.219 500000000000
vertex -866025403784.439 500000000000 0
endloop
endfacet
facet normal -0.935113126531029 0.250562807085731 0.250562807085731
outer loop
vertex -866025403784.439 -0.000106054021204601 500000000000
vertex -866025403784.439 500000000000 0
vertex -1000000000000 -0.000122460635382238 0
endloop
endfacet
facet normal -0.694746590606866 0.186156787897385 -0.694746590606866
outer loop
vertex -866025403784.439 -0.000106054021204601 -500000000000
vertex -750000000000 433012701892.219 -500000000000
vertex -433012701892.22 250000000000 -866025403784.439
endloop
endfacet
facet normal -0.694746590606866 0.186156787897385 -0.694746590606866
outer loop
vertex -866025403784.439 -0.000106054021204601 -500000000000
vertex -433012701892.22 250000000000 -866025403784.439
vertex -500000000000 -6.12303176911189E-05 -866025403784.439
endloop
endfacet
facet normal -0.694746590606866 0.186156787897385 0.694746590606866
outer loop
vertex -500000000000 -6.12303176911189E-05 866025403784.439
vertex -433012701892.22 250000000000 866025403784.439
vertex -750000000000 433012701892.219 500000000000
endloop
endfacet
facet normal -0.694746590606866 0.186156787897385 0.694746590606866
outer loop
vertex -500000000000 -6.12303176911189E-05 866025403784.439
vertex -750000000000 433012701892.219 500000000000
vertex -866025403784.439 -0.000106054021204601 500000000000
endloop
endfacet
facet normal -0.258198889747161 0.0691841839943642 -0.96361137499428
outer loop
vertex -500000000000 -6.12303176911189E-05 -866025403784.439
vertex -433012701892.22 250000000000 -866025403784.439
vertex -6.12303176911189E-05 -7.49830360911069E-21 -1000000000000
endloop
endfacet
facet normal -0.258198889747161 0.0691841839943642 0.96361137499428
outer loop
vertex -6.12303176911189E-05 -7.49830360911069E-21 1000000000000
vertex -433012701892.22 250000000000 866025403784.439
vertex -500000000000 -6.12303176911189E-05 866025403784.439
endloop
endfacet
facet normal -0.684550319445298 0.684550319445298 -0.250562807085732
outer loop
vertex -866025403784.439 500000000000 0
vertex -500000000000 866025403784.438 0
vertex -433012701892.22 750000000000 -500000000000
endloop
endfacet
facet normal -0.684550319445298 0.684550319445298 -0.250562807085732
outer loop
vertex -866025403784.439 500000000000 0
vertex -433012701892.22 750000000000 -500000000000
vertex -750000000000 433012701892.219 -500000000000
endloop
endfacet
facet normal -0.684550319445298 0.684550319445298 0.250562807085732
outer loop
vertex -750000000000 433012701892.219 500000000000
vertex -433012701892.22 750000000000 500000000000
vertex -500000000000 866025403784.438 0
endloop
endfacet
facet normal -0.684550319445298 0.684550319445298 0.250562807085732
outer loop
vertex -750000000000 433012701892.219 500000000000
vertex -500000000000 866025403784.438 0
vertex -866025403784.439 500000000000 0
endloop
endfacet
facet normal -0.50858980270948 0.50858980270948 -0.694746590606866
outer loop
vertex -750000000000 433012701892.219 -500000000000
vertex -433012701892.22 750000000000 -500000000000
vertex -250000000000 433012701892.219 -866025403784.439
endloop
endfacet
facet normal -0.50858980270948 0.50858980270948 -0.694746590606866
outer loop
vertex -750000000000 433012701892.219 -500000000000
vertex -250000000000 433012701892.219 -866025403784.439
vertex -433012701892.22 250000000000 -866025403784.439
endloop
endfacet
facet normal -0.508589802709481 0.50858980270948 0.694746590606866
outer loop
vertex -433012701892.22 250000000000 866025403784.439
vertex -250000000000 433012701892.219 866025403784.439
vertex -433012701892.22 750000000000 500000000000
endloop
endfacet
facet normal -0.508589802709481 0.50858980270948 0.694746590606866
outer loop
vertex -433012701892.22 250000000000 866025403784.439
vertex -433012701892.22 750000000000 500000000000
vertex -750000000000 433012701892.219 500000000000
endloop
endfacet
facet normal -0.189014705752797 0.189014705752797 -0.96361137499428
outer loop
vertex -433012701892.22 250000000000 -866025403784.439
vertex -250000000000 433012701892.219 -866025403784.439
vertex -5.30270106023007E-05 3.06151588455594E-05 -1000000000000
endloop
endfacet
facet normal -0.189014705752797 0.189014705752797 0.96361137499428
outer loop
vertex -5.30270106023007E-05 3.06151588455594E-05 1000000000000
vertex -250000000000 433012701892.219 866025403784.439
vertex -433012701892.22 250000000000 866025403784.439
endloop
endfacet
facet normal -0.250562807085732 0.935113126531029 -0.250562807085731
outer loop
vertex -500000000000 866025403784.438 0
vertex -0.000183690953073357 1000000000000 0
vertex -0.000159081031806902 866025403784.439 -500000000000
endloop
endfacet
facet normal -0.250562807085732 0.935113126531029 -0.250562807085731
outer loop
vertex -500000000000 866025403784.438 0
vertex -0.000159081031806902 866025403784.439 -500000000000
vertex -433012701892.22 750000000000 -500000000000
endloop
endfacet
facet normal -0.250562807085732 0.935113126531029 0.250562807085731
outer loop
vertex -433012701892.22 750000000000 500000000000
vertex -0.000159081031806902 866025403784.439 500000000000
vertex -0.000183690953073357 1000000000000 0
endloop
endfacet
facet normal -0.250562807085732 0.935113126531029 0.250562807085731
outer loop
vertex -433012701892.22 750000000000 500000000000
vertex -0.000183690953073357 1000000000000 0
vertex -500000000000 866025403784.438 0
endloop
endfacet
facet normal -0.186156787897386 0.694746590606866 -0.694746590606866
outer loop
vertex -433012701892.22 750000000000 -500000000000
vertex -0.000159081031806902 866025403784.439 -500000000000
vertex -9.18454765366783E-05 500000000000 -866025403784.439
endloop
endfacet
facet normal -0.186156787897386 0.694746590606866 -0.694746590606866
outer loop
vertex -433012701892.22 750000000000 -500000000000
vertex -9.18454765366783E-05 500000000000 -866025403784.439
vertex -250000000000 433012701892.219 -866025403784.439
endloop
endfacet
facet normal -0.186156787897386 0.694746590606866 0.694746590606866
outer loop
vertex -250000000000 433012701892.219 866025403784.439
vertex -9.18454765366783E-05 500000000000 866025403784.439
vertex -0.000159081031806902 866025403784.439 500000000000
endloop
endfacet
facet normal -0.186156787897386 0.694746590606866 0.694746590606866
outer loop
vertex -250000000000 433012701892.219 866025403784.439
vertex -0.000159081031806902 866025403784.439 500000000000
vertex -433012701892.22 750000000000 500000000000
endloop
endfacet
facet normal -0.0691841839943644 0.258198889747161 -0.96361137499428
outer loop
vertex -250000000000 433012701892.219 -866025403784.439
vertex -9.18454765366783E-05 500000000000 -866025403784.439
vertex -3.06151588455595E-05 5.30270106023007E-05 -1000000000000
endloop
endfacet
facet normal -0.0691841839943644 0.258198889747161 0.96361137499428
outer loop
vertex -3.06151588455595E-05 5.30270106023007E-05 1000000000000
vertex -9.18454765366783E-05 500000000000 866025403784.439
vertex -250000000000 433012701892.219 866025403784.439
endloop
endfacet
facet normal 0.250562807085732 0.935113126531029 -0.250562807085731
outer loop
vertex -0.000183690953073357 1000000000000 0
vertex 500000000000 866025403784.439 0
vertex 433012701892.219 750000000000 -500000000000
endloop
endfacet
facet normal 0.250562807085732 0.935113126531029 -0.250562807085731
outer loop
vertex -0.000183690953073357 1000000000000 0
vertex 433012701892.219 750000000000 -500000000000
vertex -0.000159081031806902 866025403784.439 -500000000000
endloop
endfacet
facet normal 0.250562807085732 0.935113126531029 0.250562807085731
outer loop
vertex -0.000159081031806902 866025403784.439 500000000000
vertex 433012701892.219 750000000000 500000000000
vertex 500000000000 866025403784.439 0
endloop
endfacet
facet normal 0.250562807085732 0.935113126531029 0.250562807085731
outer loop
vertex -0.000159081031806902 866025403784.439 500000000000
vertex 500000000000 866025403784.439 0
vertex -0.000183690953073357 1000000000000 0
endloop
endfacet
facet normal 0.186156787897386 0.694746590606866 -0.694746590606866
outer loop
vertex -0.000159081031806902 866025403784.439 -500000000000
vertex 433012701892.219 750000000000 -500000000000
vertex 250000000000 433012701892.219 -866025403784.439
endloop
endfacet
facet normal 0.186156787897386 0.694746590606866 -0.694746590606866
outer loop
vertex -0.000159081031806902 866025403784.439 -500000000000
vertex 250000000000 433012701892.219 -866025403784.439
vertex -9.18454765366783E-05 500000000000 -866025403784.439
endloop
endfacet
facet normal 0.186156787897385 0.694746590606866 0.694746590606866
outer loop
vertex -9.18454765366783E-05 500000000000 866025403784.439
vertex 250000000000 433012701892.219 866025403784.439
vertex 433012701892.219 750000000000 500000000000
endloop
endfacet
facet normal 0.186156787897385 0.694746590606866 0.694746590606866
outer loop
vertex -9.18454765366783E-05 500000000000 866025403784.439
vertex 433012701892.219 750000000000 500000000000
vertex -0.000159081031806902 866025403784.439 500000000000
endloop
endfacet
facet normal 0.0691841839943643 0.258198889747161 -0.96361137499428
outer loop
vertex -9.18454765366783E-05 500000000000 -866025403784.439
vertex 250000000000 433012701892.219 -866025403784.439
vertex -1.1247455413666E-20 6.12303176911189E-05 -1000000000000
endloop
endfacet
facet normal 0.0691841839943643 0.258198889747161 0.96361137499428
outer loop
vertex -1.1247455413666E-20 6.12303176911189E-05 1000000000000
vertex 250000000000 433012701892.219 866025403784.439
vertex -9.18454765366783E-05 500000000000 866025403784.439
endloop
endfacet
facet normal 0.684550319445298 0.684550319445298 -0.250562807085732
outer loop
vertex 500000000000 866025403784.439 0
vertex 866025403784.438 500000000000 0
vertex 750000000000 433012701892.22 -500000000000
endloop
endfacet
facet normal 0.684550319445298 0.684550319445298 -0.250562807085732
outer loop
vertex 500000000000 866025403784.439 0
vertex 750000000000 433012701892.22 -500000000000
vertex 433012701892.219 750000000000 -500000000000
endloop
endfacet
facet normal 0.684550319445298 0.684550319445298 0.250562807085732
outer loop
vertex 433012701892.219 750000000000 500000000000
vertex 750000000000 433012701892.22 500000000000
vertex 866025403784.438 500000000000 0
endloop
endfacet
facet normal 0.684550319445298 0.684550319445298 0.250562807085732
outer loop
vertex 433012701892.219 750000000000 500000000000
vertex 866025403784.438 500000000000 0
vertex 500000000000 866025403784.439 0
endloop
endfacet
facet normal 0.50858980270948 0.50858980270948 -0.694746590606866
outer loop
vertex 433012701892.219 750000000000 -500000000000
vertex 750000000000 433012701892.22 -500000000000
vertex 433012701892.219 250000000000 -866025403784.439
endloop
endfacet
facet normal 0.50858980270948 0.50858980270948 -0.694746590606866
outer loop
vertex 433012701892.219 750000000000 -500000000000
vertex 433012701892.219 250000000000 -866025403784.439
vertex 250000000000 433012701892.219 -866025403784.439
endloop
endfacet
facet normal 0.50858980270948 0.50858980270948 0.694746590606866
outer loop
vertex 250000000000 433012701892.219 866025403784.439
vertex 433012701892.219 250000000000 866025403784.439
vertex 750000000000 433012701892.22 500000000000
endloop
endfacet
facet normal 0.50858980270948 0.50858980270948 0.694746590606866
outer loop
vertex 250000000000 433012701892.219 866025403784.439
vertex 750000000000 433012701892.22 500000000000
vertex 433012701892.219 750000000000 500000000000
endloop
endfacet
facet normal 0.189014705752797 0.189014705752797 -0.96361137499428
outer loop
vertex 250000000000 433012701892.219 -866025403784.439
vertex 433012701892.219 250000000000 -866025403784.439
vertex 3.06151588455594E-05 5.30270106023007E-05 -1000000000000
endloop
endfacet
facet normal 0.189014705752797 0.189014705752797 0.96361137499428
outer loop
vertex 3.06151588455594E-05 5.30270106023007E-05 1000000000000
vertex 433012701892.219 250000000000 866025403784.439
vertex 250000000000 433012701892.219 866025403784.439
endloop
endfacet
facet normal 0.935113126531029 0.250562807085732 -0.250562807085731
outer loop
vertex 866025403784.438 500000000000 0
vertex 1000000000000 0.000244921270764475 0
vertex 866025403784.439 0.000212108042409203 -500000000000
endloop
endfacet
facet normal 0.935113126531029 0.250562807085732 -0.250562807085731
outer loop
vertex 866025403784.438 500000000000 0
vertex 866025403784.439 0.000212108042409203 -500000000000
vertex 750000000000 433012701892.22 -500000000000
endloop
endfacet
facet normal 0.935113126531029 0.250562807085732 0.250562807085732
outer loop
vertex 750000000000 433012701892.22 500000000000
vertex 866025403784.439 0.000212108042409203 500000000000
vertex 1000000000000 0.000244921270764475 0
endloop
endfacet
facet normal 0.935113126531029 0.250562807085732 0.250562807085732
outer loop
vertex 750000000000 433012701892.22 500000000000
vertex 1000000000000 0.000244921270764475 0
vertex 866025403784.438 500000000000 0
endloop
endfacet
facet normal 0.694746590606866 0.186156787897386 -0.694746590606866
outer loop
vertex 750000000000 433012701892.22 -500000000000
vertex 866025403784.439 0.000212108042409203 -500000000000
vertex 500000000000 0.000122460635382238 -866025403784.439
endloop
endfacet
facet normal 0.694746590606866 0.186156787897386 -0.694746590606866
outer loop
vertex 750000000000 433012701892.22 -500000000000
vertex 500000000000 0.000122460635382238 -866025403784.439
vertex 433012701892.219 250000000000 -866025403784.439
endloop
endfacet
facet normal 0.694746590606866 0.186156787897386 0.694746590606866
outer loop
vertex 433012701892.219 250000000000 866025403784.439
vertex 500000000000 0.000122460635382238 866025403784.439
vertex 866025403784.439 0.000212108042409203 500000000000
endloop
endfacet
facet normal 0.694746590606866 0.186156787897386 0.694746590606866
outer loop
vertex 433012701892.219 250000000000 866025403784.439
vertex 866025403784.439 0.000212108042409203 500000000000
vertex 750000000000 433012701892.22 500000000000
endloop
endfacet
facet normal 0.258198889747161 0.0691841839943644 -0.96361137499428
outer loop
vertex 433012701892.219 250000000000 -866025403784.439
vertex 500000000000 0.000122460635382238 -866025403784.439
vertex 5.30270106023007E-05 3.06151588455595E-05 -1000000000000
endloop
endfacet
facet normal 0.258198889747161 0.0691841839943644 0.96361137499428
outer loop
vertex 5.30270106023007E-05 3.06151588455595E-05 1000000000000
vertex 500000000000 0.000122460635382238 866025403784.439
vertex 433012701892.219 250000000000 866025403784.439
endloop
endfacet
endsolid BigRadius
