solid Unit
facet normal 0.935113126531029 -0.250562807085731 -0.250562807085732
outer loop
vertex 1 0 0
vertex 0.866025403784439 -0.5 0
vertex 0.75 -0.433012701892219 -0.5
endloop
endfacet
facet normal 0.935113126531029 -0.250562807085731 -0.250562807085732
outer loop
vertex 1 0 0
vertex 0.75 -0.433012701892219 -0.5
vertex 0.866025403784439 0 -0.5
endloop
endfacet
facet normal 0.935113126531029 -0.250562807085732 0.250562807085732
outer loop
vertex 0.866025403784439 0 0.5
vertex 0.75 -0.433012701892219 0.5
vertex 0.866025403784439 -0.5 0
endloop
endfacet
facet normal 0.935113126531029 -0.250562807085732 0.250562807085732
outer loop
vertex 0.866025403784439 0 0.5
vertex 0.866025403784439 -0.5 0
vertex 1 0 0
endloop
endfacet
facet normal 0.694746590606866 -0.186156787897385 -0.694746590606866
outer loop
vertex 0.866025403784439 0 -0.5
vertex 0.75 -0.433012701892219 -0.5
vertex 0.433012701892219 -0.25 -0.866025403784439
endloop
endfacet
facet normal 0.694746590606866 -0.186156787897385 -0.694746590606866
outer loop
vertex 0.866025403784439 0 -0.5
vertex 0.433012701892219 -0.25 -0.866025403784439
vertex 0.5 0 -0.866025403784439
endloop
endfacet
facet normal 0.694746590606866 -0.186156787897385 0.694746590606866
outer loop
vertex 0.5 0 0.866025403784439
vertex 0.433012701892219 -0.25 0.866025403784439
vertex 0.75 -0.433012701892219 0.5
endloop
endfacet
facet normal 0.694746590606866 -0.186156787897385 0.694746590606866
outer loop
vertex 0.5 0 0.866025403784439
vertex 0.75 -0.433012701892219 0.5
vertex 0.866025403784439 0 0.5
endloop
endfacet
facet normal 0.258198889747161 -0.0691841839943643 -0.96361137499428
outer loop
vertex 0.5 0 -0.866025403784439
vertex 0.433012701892219 -0.25 -0.866025403784439
vertex 6.12303176911189E-17 0 -1
endloop
endfacet
facet normal 0.258198889747161 -0.0691841839943643 0.96361137499428
outer loop
vertex 6.12303176911189E-17 0 1
vertex 0.433012701892219 -0.25 0.866025403784439
vertex 0.5 0 0.866025403784439
endloop
endfacet
facet normal 0.684550319445298 -0.684550319445298 -0.250562807085732
outer loop
vertex 0.866025403784439 -0.5 0
vertex 0.5 -0.866025403784439 0
vertex 0.433012701892219 -0.75 -0.5
endloop
endfacet
facet normal 0.684550319445298 -0.684550319445298 -0.250562807085732
outer loop
vertex 0.866025403784439 -0.5 0
vertex 0.433012701892219 -0.75 -0.5
vertex 0.75 -0.433012701892219 -0.5
endloop
endfacet
facet normal 0.684550319445298 -0.684550319445298 0.250562807085732
outer loop
vertex 0.75 -0.433012701892219 0.5
vertex 0.433012701892219 -0.75 0.5
vertex 0.5 -0.866025403784439 0
endloop
endfacet
facet normal 0.684550319445298 -0.684550319445298 0.250562807085732
outer loop
vertex 0.75 -0.433012701892219 0.5
vertex 0.5 -0.866025403784439 0
vertex 0.866025403784439 -0.5 0
endloop
endfacet
facet normal 0.50858980270948 -0.50858980270948 -0.694746590606866
outer loop
vertex 0.75 -0.433012701892219 -0.5
vertex 0.433012701892219 -0.75 -0.5
vertex 0.25 -0.433012701892219 -0.866025403784439
endloop
endfacet
facet normal 0.50858980270948 -0.50858980270948 -0.694746590606866
outer loop
vertex 0.75 -0.433012701892219 -0.5
vertex 0.25 -0.433012701892219 -0.866025403784439
vertex 0.433012701892219 -0.25 -0.866025403784439
endloop
endfacet
facet normal 0.50858980270948 -0.50858980270948 0.694746590606866
outer loop
vertex 0.433012701892219 -0.25 0.866025403784439
vertex 0.25 -0.433012701892219 0.866025403784439
vertex 0.433012701892219 -0.75 0.5
endloop
endfacet
facet normal 0.50858980270948 -0.50858980270948 0.694746590606866
outer loop
vertex 0.433012701892219 -0.25 0.866025403784439
vertex 0.433012701892219 -0.75 0.5
vertex 0.75 -0.433012701892219 0.5
endloop
endfacet
facet normal 0.189014705752797 -0.189014705752797 -0.96361137499428
outer loop
vertex 0.433012701892219 -0.25 -0.866025403784439
vertex 0.25 -0.433012701892219 -0.866025403784439
vertex 5.30270106023007E-17 -3.06151588455594E-17 -1
endloop
endfacet
facet normal 0.189014705752797 -0.189014705752797 0.96361137499428
outer loop
vertex 5.30270106023007E-17 -3.06151588455594E-17 1
vertex 0.25 -0.433012701892219 0.866025403784439
vertex 0.433012701892219 -0.25 0.866025403784439
endloop
endfacet
facet normal 0.250562807085732 -0.935113126531029 -0.250562807085732
outer loop
vertex 0.5 -0.866025403784439 0
vertex 6.12303176911189E-17 -1 0
vertex 5.30270106023007E-17 -0.866025403784439 -0.5
endloop
endfacet
facet normal 0.250562807085732 -0.935113126531029 -0.250562807085732
outer loop
vertex 0.5 -0.866025403784439 0
vertex 5.30270106023007E-17 -0.866025403784439 -0.5
vertex 0.433012701892219 -0.75 -0.5
endloop
endfacet
facet normal 0.250562807085732 -0.935113126531029 0.250562807085731
outer loop
vertex 0.433012701892219 -0.75 0.5
vertex 5.30270106023007E-17 -0.866025403784439 0.5
vertex 6.12303176911189E-17 -1 0
endloop
endfacet
facet normal 0.250562807085732 -0.935113126531029 0.250562807085731
outer loop
vertex 0.433012701892219 -0.75 0.5
vertex 6.12303176911189E-17 -1 0
vertex 0.5 -0.866025403784439 0
endloop
endfacet
facet normal 0.186156787897386 -0.694746590606866 -0.694746590606866
outer loop
vertex 0.433012701892219 -0.75 -0.5
vertex 5.30270106023007E-17 -0.866025403784439 -0.5
vertex 3.06151588455594E-17 -0.5 -0.866025403784439
endloop
endfacet
facet normal 0.186156787897386 -0.694746590606866 -0.694746590606866
outer loop
vertex 0.433012701892219 -0.75 -0.5
vertex 3.06151588455594E-17 -0.5 -0.866025403784439
vertex 0.25 -0.433012701892219 -0.866025403784439
endloop
endfacet
facet normal 0.186156787897386 -0.694746590606866 0.694746590606866
outer loop
vertex 0.25 -0.433012701892219 0.866025403784439
vertex 3.06151588455594E-17 -0.5 0.866025403784439
vertex 5.30270106023007E-17 -0.866025403784439 0.5
endloop
endfacet
facet normal 0.186156787897386 -0.694746590606866 0.694746590606866
outer loop
vertex 0.25 -0.433012701892219 0.866025403784439
vertex 5.30270106023007E-17 -0.866025403784439 0.5
vertex 0.433012701892219 -0.75 0.5
endloop
endfacet
facet normal 0.0691841839943643 -0.258198889747161 -0.96361137499428
outer loop
vertex 0.25 -0.433012701892219 -0.866025403784439
vertex 3.06151588455594E-17 -0.5 -0.866025403784439
vertex 3.06151588455594E-17 -5.30270106023007E-17 -1
endloop
endfacet
facet normal 0.0691841839943644 -0.258198889747161 0.96361137499428
outer loop
vertex 3.06151588455594E-17 -5.30270106023007E-17 1
vertex 3.06151588455594E-17 -0.5 0.866025403784439
vertex 0.25 -0.433012701892219 0.866025403784439
endloop
endfacet
facet normal -0.250562807085732 -0.935113126531029 -0.250562807085731
outer loop
vertex 6.12303176911189E-17 -1 0
vertex -0.5 -0.866025403784439 0
vertex -0.433012701892219 -0.75 -0.5
endloop
endfacet
facet normal -0.250562807085732 -0.935113126531029 -0.250562807085731
outer loop
vertex 6.12303176911189E-17 -1 0
vertex -0.433012701892219 -0.75 -0.5
vertex 5.30270106023007E-17 -0.866025403784439 -0.5
endloop
endfacet
facet normal -0.250562807085732 -0.935113126531029 0.250562807085731
outer loop
vertex 5.30270106023007E-17 -0.866025403784439 0.5
vertex -0.433012701892219 -0.75 0.5
vertex -0.5 -0.866025403784439 0
endloop
endfacet
facet normal -0.250562807085732 -0.935113126531029 0.250562807085731
outer loop
vertex 5.30270106023007E-17 -0.866025403784439 0.5
vertex -0.5 -0.866025403784439 0
vertex 6.12303176911189E-17 -1 0
endloop
endfacet
facet normal -0.186156787897385 -0.694746590606866 -0.694746590606866
outer loop
vertex 5.30270106023007E-17 -0.866025403784439 -0.5
vertex -0.433012701892219 -0.75 -0.5
vertex -0.25 -0.433012701892219 -0.866025403784439
endloop
endfacet
facet normal -0.186156787897385 -0.694746590606866 -0.694746590606866
outer loop
vertex 5.30270106023007E-17 -0.866025403784439 -0.5
vertex -0.25 -0.433012701892219 -0.866025403784439
vertex 3.06151588455594E-17 -0.5 -0.866025403784439
endloop
endfacet
facet normal -0.186156787897385 -0.694746590606866 0.694746590606866
outer loop
vertex 3.06151588455594E-17 -0.5 0.866025403784439
vertex -0.25 -0.433012701892219 0.866025403784439
vertex -0.433012701892219 -0.75 0.5
endloop
endfacet
facet normal -0.186156787897385 -0.694746590606866 0.694746590606866
outer loop
vertex 3.06151588455594E-17 -0.5 0.866025403784439
vertex -0.433012701892219 -0.75 0.5
vertex 5.30270106023007E-17 -0.866025403784439 0.5
endloop
endfacet
facet normal -0.0691841839943643 -0.258198889747161 -0.96361137499428
outer loop
vertex 3.06151588455594E-17 -0.5 -0.866025403784439
vertex -0.25 -0.433012701892219 -0.866025403784439
vertex 3.74915180455534E-33 -6.12303176911189E-17 -1
endloop
endfacet
facet normal -0.0691841839943643 -0.258198889747161 0.96361137499428
outer loop
vertex 3.74915180455534E-33 -6.12303176911189E-17 1
vertex -0.25 -0.433012701892219 0.866025403784439
vertex 3.06151588455594E-17 -0.5 0.866025403784439
endloop
endfacet
facet normal -0.684550319445298 -0.684550319445298 -0.250562807085731
outer loop
vertex -0.5 -0.866025403784439 0
vertex -0.866025403784439 -0.5 0
vertex -0.75 -0.433012701892219 -0.5
endloop
endfacet
facet normal -0.684550319445298 -0.684550319445298 -0.250562807085731
outer loop
vertex -0.5 -0.866025403784439 0
vertex -0.75 -0.433012701892219 -0.5
vertex -0.433012701892219 -0.75 -0.5
endloop
endfacet
facet normal -0.684550319445298 -0.684550319445298 0.250562807085731
outer loop
vertex -0.433012701892219 -0.75 0.5
vertex -0.75 -0.433012701892219 0.5
vertex -0.866025403784439 -0.5 0
endloop
endfacet
facet normal -0.684550319445298 -0.684550319445298 0.250562807085731
outer loop
vertex -0.433012701892219 -0.75 0.5
vertex -0.866025403784439 -0.5 0
vertex -0.5 -0.866025403784439 0
endloop
endfacet
facet normal -0.50858980270948 -0.50858980270948 -0.694746590606866
outer loop
vertex -0.433012701892219 -0.75 -0.5
vertex -0.75 -0.433012701892219 -0.5
vertex -0.433012701892219 -0.25 -0.866025403784439
endloop
endfacet
facet normal -0.50858980270948 -0.50858980270948 -0.694746590606866
outer loop
vertex -0.433012701892219 -0.75 -0.5
vertex -0.433012701892219 -0.25 -0.866025403784439
vertex -0.25 -0.433012701892219 -0.866025403784439
endloop
endfacet
facet normal -0.50858980270948 -0.50858980270948 0.694746590606866
outer loop
vertex -0.25 -0.433012701892219 0.866025403784439
vertex -0.433012701892219 -0.25 0.866025403784439
vertex -0.75 -0.433012701892219 0.5
endloop
endfacet
facet normal -0.50858980270948 -0.50858980270948 0.694746590606866
outer loop
vertex -0.25 -0.433012701892219 0.866025403784439
vertex -0.75 -0.433012701892219 0.5
vertex -0.433012701892219 -0.75 0.5
endloop
endfacet
facet normal -0.189014705752797 -0.189014705752797 -0.96361137499428
outer loop
vertex -0.25 -0.433012701892219 -0.866025403784439
vertex -0.433012701892219 -0.25 -0.866025403784439
vertex -3.06151588455594E-17 -5.30270106023007E-17 -1
endloop
endfacet
facet normal -0.189014705752797 -0.189014705752797 0.96361137499428
outer loop
vertex -3.06151588455594E-17 -5.30270106023007E-17 1
vertex -0.433012701892219 -0.25 0.866025403784439
vertex -0.25 -0.433012701892219 0.866025403784439
endloop
endfacet
facet normal -0.935113126531029 -0.250562807085732 -0.250562807085731
outer loop
vertex -0.866025403784439 -0.5 0
vertex -1 -1.22460635382238E-16 0
vertex -0.866025403784439 -1.06054021204601E-16 -0.5
endloop
endfacet
facet normal -0.935113126531029 -0.250562807085732 -0.250562807085731
outer loop
vertex -0.866025403784439 -0.5 0
vertex -0.866025403784439 -1.06054021204601E-16 -0.5
vertex -0.75 -0.433012701892219 -0.5
endloop
endfacet
facet normal -0.935113126531029 -0.250562807085732 0.250562807085732
outer loop
vertex -0.75 -0.433012701892219 0.5
vertex -0.866025403784439 -1.06054021204601E-16 0.5
vertex -1 -1.22460635382238E-16 0
endloop
endfacet
facet normal -0.935113126531029 -0.250562807085732 0.250562807085732
outer loop
vertex -0.75 -0.433012701892219 0.5
vertex -1 -1.22460635382238E-16 0
vertex -0.866025403784439 -0.5 0
endloop
endfacet
facet normal -0.694746590606866 -0.186156787897385 -0.694746590606866
outer loop
vertex -0.75 -0.433012701892219 -0.5
vertex -0.866025403784439 -1.06054021204601E-16 -0.5
vertex -0.5 -6.12303176911189E-17 -0.866025403784439
endloop
endfacet
facet normal -0.694746590606866 -0.186156787897385 -0.694746590606866
outer loop
vertex -0.75 -0.433012701892219 -0.5
vertex -0.5 -6.12303176911189E-17 -0.866025403784439
vertex -0.433012701892219 -0.25 -0.866025403784439
endloop
endfacet
facet normal -0.694746590606866 -0.186156787897385 0.694746590606866
outer loop
vertex -0.433012701892219 -0.25 0.866025403784439
vertex -0.5 -6.12303176911189E-17 0.866025403784439
vertex -0.866025403784439 -1.06054021204601E-16 0.5
endloop
endfacet
facet normal -0.694746590606866 -0.186156787897385 0.694746590606866
outer loop
vertex -0.433012701892219 -0.25 0.866025403784439
vertex -0.866025403784439 -1.06054021204601E-16 0.5
vertex -0.75 -0.433012701892219 0.5
endloop
endfacet
facet normal -0.258198889747161 -0.0691841839943643 -0.96361137499428
outer loop
vertex -0.433012701892219 -0.25 -0.866025403784439
vertex -0.5 -6.12303176911189E-17 -0.866025403784439
vertex -5.30270106023007E-17 -3.06151588455594E-17 -1
endloop
endfacet
facet normal -0.258198889747161 -0.0691841839943644 0.96361137499428
outer loop
vertex -5.30270106023007E-17 -3.06151588455594E-17 1
vertex -0.5 -6.12303176911189E-17 0.866025403784439
vertex -0.433012701892219 -0.25 0.866025403784439
endloop
endfacet
facet normal -0.935113126531029 0.250562807085731 -0.250562807085731
outer loop
vertex -1 -1.22460635382238E-16 0
vertex -0.866025403784439 0.5 0
vertex -0.75 0.433012701892219 -0.5
endloop
endfacet
facet normal -0.935113126531029 0.250562807085731 -0.250562807085731
outer loop
vertex -1 -1.22460635382238E-16 0
vertex -0.75 0.433012701892219 -0.5
vertex -0.866025403784439 -1.06054021204601E-16 -0.5
endloop
endfacet
facet normal -0.935113126531029 0.250562807085731 0.250562807085731
outer loop
vertex -0.866025403784439 -1.06054021204601E-16 0.5
vertex -0.75 0.433012701892219 0.5
vertex -0.866025403784439 0.5 0
endloop
endfacet
facet normal -0.935113126531029 0.250562807085731 0.250562807085731
outer loop
vertex -0.866025403784439 -1.06054021204601E-16 0.5
vertex -0.866025403784439 0.5 0
vertex -1 -1.22460635382238E-16 0
endloop
endfacet
facet normal -0.694746590606866 0.186156787897385 -0.694746590606866
outer loop
vertex -0.866025403784439 -1.06054021204601E-16 -0.5
vertex -0.75 0.433012701892219 -0.5
vertex -0.43301270189222 0.25 -0.866025403784439
endloop
endfacet
facet normal -0.694746590606866 0.186156787897385 -0.694746590606866
outer loop
vertex -0.866025403784439 -1.06054021204601E-16 -0.5
vertex -0.43301270189222 0.25 -0.866025403784439
vertex -0.5 -6.12303176911189E-17 -0.866025403784439
endloop
endfacet
facet normal -0.694746590606866 0.186156787897385 0.694746590606866
outer loop
vertex -0.5 -6.12303176911189E-17 0.866025403784439
vertex -0.43301270189222 0.25 0.866025403784439
vertex -0.75 0.433012701892219 0.5
endloop
endfacet
facet normal -0.694746590606866 0.186156787897385 0.694746590606866
outer loop
vertex -0.5 -6.12303176911189E-17 0.866025403784439
vertex -0.75 0.433012701892219 0.5
vertex -0.866025403784439 -1.06054021204601E-16 0.5
endloop
endfacet
facet normal -0.258198889747161 0.0691841839943643 -0.96361137499428
outer loop
vertex -0.5 -6.12303176911189E-17 -0.866025403784439
vertex -0.43301270189222 0.25 -0.866025403784439
vertex -6.12303176911189E-17 -7.49830360911069E-33 -1
endloop
endfacet
facet normal -0.258198889747161 0.0691841839943642 0.96361137499428
outer loop
vertex -6.12303176911189E-17 -7.49830360911069E-33 1
vertex -0.43301270189222 0.25 0.866025403784439
vertex -0.5 -6.12303176911189E-17 0.866025403784439
endloop
endfacet
facet normal -0.684550319445298 0.684550319445298 -0.250562807085732
outer loop
vertex -0.866025403784439 0.5 0
vertex -0.5 0.866025403784438 0
vertex -0.43301270189222 0.75 -0.5
endloop
endfacet
facet normal -0.684550319445298 0.684550319445298 -0.250562807085732
outer loop
vertex -0.866025403784439 0.5 0
vertex -0.43301270189222 0.75 -0.5
vertex -0.75 0.433012701892219 -0.5
endloop
endfacet
facet normal -0.684550319445298 0.684550319445298 0.250562807085732
outer loop
vertex -0.75 0.433012701892219 0.5
vertex -0.43301270189222 0.75 0.5
vertex -0.5 0.866025403784438 0
endloop
endfacet
facet normal -0.684550319445298 0.684550319445298 0.250562807085732
outer loop
vertex -0.75 0.433012701892219 0.5
vertex -0.5 0.866025403784438 0
vertex -0.866025403784439 0.5 0
endloop
endfacet
facet normal -0.508589802709481 0.50858980270948 -0.694746590606866
outer loop
vertex -0.75 0.433012701892219 -0.5
vertex -0.43301270189222 0.75 -0.5
vertex -0.25 0.433012701892219 -0.866025403784439
endloop
endfacet
facet normal -0.508589802709481 0.50858980270948 -0.694746590606866
outer loop
vertex -0.75 0.433012701892219 -0.5
vertex -0.25 0.433012701892219 -0.866025403784439
vertex -0.43301270189222 0.25 -0.866025403784439
endloop
endfacet
facet normal -0.508589802709481 0.50858980270948 0.694746590606866
outer loop
vertex -0.43301270189222 0.25 0.866025403784439
vertex -0.25 0.433012701892219 0.866025403784439
vertex -0.43301270189222 0.75 0.5
endloop
endfacet
facet normal -0.508589802709481 0.50858980270948 0.694746590606866
outer loop
vertex -0.43301270189222 0.25 0.866025403784439
vertex -0.43301270189222 0.75 0.5
vertex -0.75 0.433012701892219 0.5
endloop
endfacet
facet normal -0.189014705752797 0.189014705752797 -0.96361137499428
outer loop
vertex -0.43301270189222 0.25 -0.866025403784439
vertex -0.25 0.433012701892219 -0.866025403784439
vertex -5.30270106023007E-17 3.06151588455594E-17 -1
endloop
endfacet
facet normal -0.189014705752797 0.189014705752797 0.96361137499428
outer loop
vertex -5.30270106023007E-17 3.06151588455594E-17 1
vertex -0.25 0.433012701892219 0.866025403784439
vertex -0.43301270189222 0.25 0.866025403784439
endloop
endfacet
facet normal -0.250562807085732 0.935113126531029 -0.250562807085732
outer loop
vertex -0.5 0.866025403784438 0
vertex -1.83690953073357E-16 1 0
vertex -1.59081031806902E-16 0.866025403784439 -0.5
endloop
endfacet
facet normal -0.250562807085732 0.935113126531029 -0.250562807085732
outer loop
vertex -0.5 0.866025403784438 0
vertex -1.59081031806902E-16 0.866025403784439 -0.5
vertex -0.43301270189222 0.75 -0.5
endloop
endfacet
facet normal -0.250562807085732 0.935113126531029 0.250562807085731
outer loop
vertex -0.43301270189222 0.75 0.5
vertex -1.59081031806902E-16 0.866025403784439 0.5
vertex -1.83690953073357E-16 1 0
endloop
endfacet
facet normal -0.250562807085732 0.935113126531029 0.250562807085731
outer loop
vertex -0.43301270189222 0.75 0.5
vertex -1.83690953073357E-16 1 0
vertex -0.5 0.866025403784438 0
endloop
endfacet
facet normal -0.186156787897386 0.694746590606866 -0.694746590606866
outer loop
vertex -0.43301270189222 0.75 -0.5
vertex -1.59081031806902E-16 0.866025403784439 -0.5
vertex -9.18454765366783E-17 0.5 -0.866025403784439
endloop
endfacet
facet normal -0.186156787897386 0.694746590606866 -0.694746590606866
outer loop
vertex -0.43301270189222 0.75 -0.5
vertex -9.18454765366783E-17 0.5 -0.866025403784439
vertex -0.25 0.433012701892219 -0.866025403784439
endloop
endfacet
facet normal -0.186156787897386 0.694746590606866 0.694746590606866
outer loop
vertex -0.25 0.433012701892219 0.866025403784439
vertex -9.18454765366783E-17 0.5 0.866025403784439
vertex -1.59081031806902E-16 0.866025403784439 0.5
endloop
endfacet
facet normal -0.186156787897386 0.694746590606866 0.694746590606866
outer loop
vertex -0.25 0.433012701892219 0.866025403784439
vertex -1.59081031806902E-16 0.866025403784439 0.5
vertex -0.43301270189222 0.75 0.5
endloop
endfacet
facet normal -0.0691841839943644 0.258198889747161 -0.96361137499428
outer loop
vertex -0.25 0.433012701892219 -0.866025403784439
vertex -9.18454765366783E-17 0.5 -0.866025403784439
vertex -3.06151588455595E-17 5.30270106023007E-17 -1
endloop
endfacet
facet normal -0.0691841839943645 0.258198889747161 0.96361137499428
outer loop
vertex -3.06151588455595E-17 5.30270106023007E-17 1
vertex -9.18454765366783E-17 0.5 0.866025403784439
vertex -0.25 0.433012701892219 0.866025403784439
endloop
endfacet
facet normal 0.250562807085732 0.93511312653103 -0.250562807085732
outer loop
vertex -1.83690953073357E-16 1 0
vertex 0.5 0.866025403784439 0
vertex 0.433012701892219 0.75 -0.5
endloop
endfacet
facet normal 0.250562807085732 0.93511312653103 -0.250562807085732
outer loop
vertex -1.83690953073357E-16 1 0
vertex 0.433012701892219 0.75 -0.5
vertex -1.59081031806902E-16 0.866025403784439 -0.5
endloop
endfacet
facet normal 0.250562807085732 0.935113126531029 0.250562807085731
outer loop
vertex -1.59081031806902E-16 0.866025403784439 0.5
vertex 0.433012701892219 0.75 0.5
vertex 0.5 0.866025403784439 0
endloop
endfacet
facet normal 0.250562807085732 0.935113126531029 0.250562807085731
outer loop
vertex -1.59081031806902E-16 0.866025403784439 0.5
vertex 0.5 0.866025403784439 0
vertex -1.83690953073357E-16 1 0
endloop
endfacet
facet normal 0.186156787897385 0.694746590606866 -0.694746590606866
outer loop
vertex -1.59081031806902E-16 0.866025403784439 -0.5
vertex 0.433012701892219 0.75 -0.5
vertex 0.25 0.433012701892219 -0.866025403784439
endloop
endfacet
facet normal 0.186156787897385 0.694746590606866 -0.694746590606866
outer loop
vertex -1.59081031806902E-16 0.866025403784439 -0.5
vertex 0.25 0.433012701892219 -0.866025403784439
vertex -9.18454765366783E-17 0.5 -0.866025403784439
endloop
endfacet
facet normal 0.186156787897385 0.694746590606866 0.694746590606866
outer loop
vertex -9.18454765366783E-17 0.5 0.866025403784439
vertex 0.25 0.433012701892219 0.866025403784439
vertex 0.433012701892219 0.75 0.5
endloop
endfacet
facet normal 0.186156787897385 0.694746590606866 0.694746590606866
outer loop
vertex -9.18454765366783E-17 0.5 0.866025403784439
vertex 0.433012701892219 0.75 0.5
vertex -1.59081031806902E-16 0.866025403784439 0.5
endloop
endfacet
facet normal 0.0691841839943643 0.258198889747161 -0.96361137499428
outer loop
vertex -9.18454765366783E-17 0.5 -0.866025403784439
vertex 0.25 0.433012701892219 -0.866025403784439
vertex -1.1247455413666E-32 6.12303176911189E-17 -1
endloop
endfacet
facet normal 0.0691841839943643 0.258198889747161 0.96361137499428
outer loop
vertex -1.1247455413666E-32 6.12303176911189E-17 1
vertex 0.25 0.433012701892219 0.866025403784439
vertex -9.18454765366783E-17 0.5 0.866025403784439
endloop
endfacet
facet normal 0.684550319445298 0.684550319445298 -0.250562807085732
outer loop
vertex 0.5 0.866025403784439 0
vertex 0.866025403784438 0.5 0
vertex 0.75 0.43301270189222 -0.5
endloop
endfacet
facet normal 0.684550319445298 0.684550319445298 -0.250562807085732
outer loop
vertex 0.5 0.866025403784439 0
vertex 0.75 0.43301270189222 -0.5
vertex 0.433012701892219 0.75 -0.5
endloop
endfacet
facet normal 0.684550319445298 0.684550319445298 0.250562807085732
outer loop
vertex 0.433012701892219 0.75 0.5
vertex 0.75 0.43301270189222 0.5
vertex 0.866025403784438 0.5 0
endloop
endfacet
facet normal 0.684550319445298 0.684550319445298 0.250562807085732
outer loop
vertex 0.433012701892219 0.75 0.5
vertex 0.866025403784438 0.5 0
vertex 0.5 0.866025403784439 0
endloop
endfacet
facet normal 0.50858980270948 0.50858980270948 -0.694746590606866
outer loop
vertex 0.433012701892219 0.75 -0.5
vertex 0.75 0.43301270189222 -0.5
vertex 0.433012701892219 0.25 -0.866025403784439
endloop
endfacet
facet normal 0.50858980270948 0.50858980270948 -0.694746590606866
outer loop
vertex 0.433012701892219 0.75 -0.5
vertex 0.433012701892219 0.25 -0.866025403784439
vertex 0.25 0.433012701892219 -0.866025403784439
endloop
endfacet
facet normal 0.50858980270948 0.50858980270948 0.694746590606866
outer loop
vertex 0.25 0.433012701892219 0.866025403784439
vertex 0.433012701892219 0.25 0.866025403784439
vertex 0.75 0.43301270189222 0.5
endloop
endfacet
facet normal 0.50858980270948 0.50858980270948 0.694746590606866
outer loop
vertex 0.25 0.433012701892219 0.866025403784439
vertex 0.75 0.43301270189222 0.5
vertex 0.433012701892219 0.75 0.5
endloop
endfacet
facet normal 0.189014705752797 0.189014705752797 -0.96361137499428
outer loop
vertex 0.25 0.433012701892219 -0.866025403784439
vertex 0.433012701892219 0.25 -0.866025403784439
vertex 3.06151588455594E-17 5.30270106023007E-17 -1
endloop
endfacet
facet normal 0.189014705752797 0.189014705752797 0.96361137499428
outer loop
vertex 3.06151588455594E-17 5.30270106023007E-17 1
vertex 0.433012701892219 0.25 0.866025403784439
vertex 0.25 0.433012701892219 0.866025403784439
endloop
endfacet
facet normal 0.935113126531029 0.250562807085732 -0.250562807085731
outer loop
vertex 0.866025403784438 0.5 0
vertex 1 2.44921270764475E-16 0
vertex 0.866025403784439 2.12108042409203E-16 -0.5
endloop
endfacet
facet normal 0.935113126531029 0.250562807085732 -0.250562807085731
outer loop
vertex 0.866025403784438 0.5 0
vertex 0.866025403784439 2.12108042409203E-16 -0.5
vertex 0.75 0.43301270189222 -0.5
endloop
endfacet
facet normal 0.935113126531029 0.250562807085732 0.250562807085731
outer loop
vertex 0.75 0.43301270189222 0.5
vertex 0.866025403784439 2.12108042409203E-16 0.5
vertex 1 2.44921270764475E-16 0
endloop
endfacet
facet normal 0.935113126531029 0.250562807085732 0.250562807085731
outer loop
vertex 0.75 0.43301270189222 0.5
vertex 1 2.44921270764475E-16 0
vertex 0.866025403784438 0.5 0
endloop
endfacet
facet normal 0.694746590606866 0.186156787897386 -0.694746590606866
outer loop
vertex 0.75 0.43301270189222 -0.5
vertex 0.866025403784439 2.12108042409203E-16 -0.5
vertex 0.5 1.22460635382238E-16 -0.866025403784439
endloop
endfacet
facet normal 0.694746590606866 0.186156787897386 -0.694746590606866
outer loop
vertex 0.75 0.43301270189222 -0.5
vertex 0.5 1.22460635382238E-16 -0.866025403784439
vertex 0.433012701892219 0.25 -0.866025403784439
endloop
endfacet
facet normal 0.694746590606866 0.186156787897386 0.694746590606866
outer loop
vertex 0.433012701892219 0.25 0.866025403784439
vertex 0.5 1.22460635382238E-16 0.866025403784439
vertex 0.866025403784439 2.12108042409203E-16 0.5
endloop
endfacet
facet normal 0.694746590606866 0.186156787897386 0.694746590606866
outer loop
vertex 0.433012701892219 0.25 0.866025403784439
vertex 0.866025403784439 2.12108042409203E-16 0.5
vertex 0.75 0.43301270189222 0.5
endloop
endfacet
facet normal 0.258198889747161 0.0691841839943644 -0.96361137499428
outer loop
vertex 0.433012701892219 0.25 -0.866025403784439
vertex 0.5 1.22460635382238E-16 -0.866025403784439
vertex 5.30270106023007E-17 3.06151588455595E-17 -1
endloop
endfacet
facet normal 0.258198889747161 0.0691841839943645 0.96361137499428
outer loop
vertex 5.30270106023007E-17 3.06151588455595E-17 1
vertex 0.5 1.22460635382238E-16 0.866025403784439
vertex 0.433012701892219 0.25 0.866025403784439
endloop
endfacet
endsolid Unit
