solid CoplanarInset
facet normal -1 0 0
outer loop
vertex -4 -2 -2
vertex -4 -2 2
vertex -4 2 2
endloop
endfacet
facet normal -1 0 0
outer loop
vertex -4 -2 -2
vertex -4 2 2
vertex -4 2 -2
endloop
endfacet
facet normal 0 -1 0
outer loop
vertex -4 -2 -2
vertex 0 -2 -2
vertex 0 -2 2
endloop
endfacet
facet normal 0 -1 0
outer loop
vertex -4 -2 -2
vertex 0 -2 2
vertex -4 -2 2
endloop
endfacet
facet normal 0 1 0
outer loop
vertex -4 2 -2
vertex -4 2 2
vertex 0 2 2
endloop
endfacet
facet normal 0 1 0
outer loop
vertex -4 2 -2
vertex 0 2 2
vertex 0 2 -2
endloop
endfacet
facet normal 0 0 -1
outer loop
vertex -4 -2 -2
vertex -4 2 -2
vertex 0 2 -2
endloop
endfacet
facet normal 0 0 -1
outer loop
vertex -4 -2 -2
vertex 0 2 -2
vertex 0 -2 -2
endloop
endfacet
facet normal 0 0 1
outer loop
vertex -4 -2 2
vertex 0 -2 2
vertex 0 2 2
endloop
endfacet
facet normal 0 0 1
outer loop
vertex -4 -2 2
vertex 0 2 2
vertex -4 2 2
endloop
endfacet
facet normal 1 0 0
outer loop
vertex 0 2 -2
vertex 0 2 -1
vertex 0 -2 -1
endloop
endfacet
facet normal 1 0 0
outer loop
vertex 0 2 -2
vertex 0 -2 -1
vertex 0 -2 -2
endloop
endfacet
facet normal 1 0 0
outer loop
vertex 0 -1 -1
vertex 0 -1 1
vertex 0 -2 1
endloop
endfacet
facet normal 1 0 0
outer loop
vertex 0 -1 -1
vertex 0 -2 1
vertex 0 -2 -1
endloop
endfacet
facet normal 1 0 0
outer loop
vertex 0 2 -1
vertex 0 2 1
vertex 0 1 1
endloop
endfacet
facet normal 1 0 0
outer loop
vertex 0 2 -1
vertex 0 1 1
vertex 0 1 -1
endloop
endfacet
facet normal 1 0 0
outer loop
vertex 0 2 1
vertex 0 2 2
vertex 0 -2 2
endloop
endfacet
facet normal 1 0 0
outer loop
vertex 0 2 1
vertex 0 -2 2
vertex 0 -2 1
endloop
endfacet
facet normal 1 0 0
outer loop
vertex 2 -1 -1
vertex 2 1 -1
vertex 2 1 1
endloop
endfacet
facet normal 1 0 0
outer loop
vertex 2 -1 -1
vertex 2 1 1
vertex 2 -1 1
endloop
endfacet
facet normal 0 -1 0
outer loop
vertex 0 -1 -1
vertex 2 -1 -1
vertex 2 -1 1
endloop
endfacet
facet normal 0 -1 0
outer loop
vertex 0 -1 -1
vertex 2 -1 1
vertex 0 -1 1
endloop
endfacet
facet normal 0 1 0
outer loop
vertex 0 1 -1
vertex 0 1 1
vertex 2 1 1
endloop
endfacet
facet normal 0 1 0
outer loop
vertex 0 1 -1
vertex 2 1 1
vertex 2 1 -1
endloop
endfacet
facet normal 0 0 -1
outer loop
vertex 0 -1 -1
vertex 0 1 -1
vertex 2 1 -1
endloop
endfacet
facet normal 0 0 -1
outer loop
vertex 0 -1 -1
vertex 2 1 -1
vertex 2 -1 -1
endloop
endfacet
facet normal 0 0 1
outer loop
vertex 0 -1 1
vertex 2 -1 1
vertex 2 1 1
endloop
endfacet
facet normal 0 0 1
outer loop
vertex 0 -1 1
vertex 2 1 1
vertex 0 1 1
endloop
endfacet
endsolid CoplanarInset
