solid CoplanarExact
facet normal -1 0 0
outer loop
vertex -4 -2 -2
vertex -4 -2 2
vertex -4 2 2
endloop
endfacet
facet normal -1 0 0
outer loop
vertex -4 -2 -2
vertex -4 2 2
vertex -4 2 -2
endloop
endfacet
facet normal 0 -1 0
outer loop
vertex 4 -2 -2
vertex 4 -2 2
vertex -4 -2 2
endloop
endfacet
facet normal 0 -1 0
outer loop
vertex 4 -2 -2
vertex -4 -2 2
vertex -4 -2 -2
endloop
endfacet
facet normal 0 1 0
outer loop
vertex 4 2 2
vertex 4 2 -2
vertex -4 2 -2
endloop
endfacet
facet normal 0 1 0
outer loop
vertex 4 2 2
vertex -4 2 -2
vertex -4 2 2
endloop
endfacet
facet normal 0 0 -1
outer loop
vertex 4 2 -2
vertex 4 -2 -2
vertex -4 -2 -2
endloop
endfacet
facet normal 0 0 -1
outer loop
vertex 4 2 -2
vertex -4 -2 -2
vertex -4 2 -2
endloop
endfacet
facet normal 0 0 1
outer loop
vertex 4 -2 2
vertex 4 2 2
vertex -4 2 2
endloop
endfacet
facet normal 0 0 1
outer loop
vertex 4 -2 2
vertex -4 2 2
vertex -4 -2 2
endloop
endfacet
facet normal 1 0 0
outer loop
vertex 4 -2 -2
vertex 4 2 -2
vertex 4 2 2
endloop
endfacet
facet normal 1 0 0
outer loop
vertex 4 -2 -2
vertex 4 2 2
vertex 4 -2 2
endloop
endfacet
endsolid CoplanarExact
