solid UnitSphere_UnitSphere
facet normal 0.258198889747161 -0.0691841839943643 -0.96361137499428
outer loop
vertex 1.11022302462516E-16 0 -0.866025403784439
vertex -0.0669872981077805 -0.25 -0.866025403784439
vertex -0.5 0 -1
endloop
endfacet
facet normal 0.258198889747161 -0.0691841839943643 0.96361137499428
outer loop
vertex -0.5 0 1
vertex -0.0669872981077805 -0.25 0.866025403784439
vertex 1.11022302462516E-16 0 0.866025403784439
endloop
endfacet
facet normal 0.189014705752797 -0.189014705752797 -0.96361137499428
outer loop
vertex -0.0669872981077805 -0.25 -0.866025403784439
vertex -0.25 -0.433012701892219 -0.866025403784439
vertex -0.5 0 -1
endloop
endfacet
facet normal 0.189014705752797 -0.189014705752797 0.96361137499428
outer loop
vertex -0.5 0 1
vertex -0.25 -0.433012701892219 0.866025403784439
vertex -0.0669872981077805 -0.25 0.866025403784439
endloop
endfacet
facet normal 0.250562807085732 -0.935113126531029 -0.250562807085731
outer loop
vertex 1.11022302462516E-16 -0.866025403784439 0
vertex -0.5 -1 0
vertex -0.5 -0.866025403784439 -0.5
endloop
endfacet
facet normal 0.250562807085732 -0.935113126531029 -0.250562807085731
outer loop
vertex 1.11022302462516E-16 -0.866025403784439 0
vertex -0.5 -0.866025403784439 -0.5
vertex -0.0669872981077805 -0.75 -0.5
endloop
endfacet
facet normal 0.250562807085732 -0.935113126531029 0.250562807085731
outer loop
vertex -0.0669872981077805 -0.75 0.5
vertex -0.5 -0.866025403784439 0.5
vertex -0.5 -1 0
endloop
endfacet
facet normal 0.250562807085732 -0.935113126531029 0.250562807085731
outer loop
vertex -0.0669872981077805 -0.75 0.5
vertex -0.5 -1 0
vertex 1.11022302462516E-16 -0.866025403784439 0
endloop
endfacet
facet normal 0.186156787897386 -0.694746590606866 -0.694746590606866
outer loop
vertex -0.0669872981077805 -0.75 -0.5
vertex -0.5 -0.866025403784439 -0.5
vertex -0.5 -0.5 -0.866025403784439
endloop
endfacet
facet normal 0.186156787897386 -0.694746590606866 -0.694746590606866
outer loop
vertex -0.0669872981077805 -0.75 -0.5
vertex -0.5 -0.5 -0.866025403784439
vertex -0.25 -0.433012701892219 -0.866025403784439
endloop
endfacet
facet normal 0.186156787897386 -0.694746590606866 0.694746590606866
outer loop
vertex -0.25 -0.433012701892219 0.866025403784439
vertex -0.5 -0.5 0.866025403784439
vertex -0.5 -0.866025403784439 0.5
endloop
endfacet
facet normal 0.186156787897386 -0.694746590606866 0.694746590606866
outer loop
vertex -0.25 -0.433012701892219 0.866025403784439
vertex -0.5 -0.866025403784439 0.5
vertex -0.0669872981077805 -0.75 0.5
endloop
endfacet
facet normal 0.0691841839943643 -0.258198889747161 -0.96361137499428
outer loop
vertex -0.25 -0.433012701892219 -0.866025403784439
vertex -0.5 -0.5 -0.866025403784439
vertex -0.5 0 -1
endloop
endfacet
facet normal 0.0691841839943644 -0.258198889747161 0.96361137499428
outer loop
vertex -0.5 0 1
vertex -0.5 -0.5 0.866025403784439
vertex -0.25 -0.433012701892219 0.866025403784439
endloop
endfacet
facet normal -0.250562807085732 -0.935113126531029 -0.250562807085731
outer loop
vertex -0.5 -1 0
vertex -1 -0.866025403784439 0
vertex -0.933012701892219 -0.75 -0.5
endloop
endfacet
facet normal -0.250562807085732 -0.935113126531029 -0.250562807085731
outer loop
vertex -0.5 -1 0
vertex -0.933012701892219 -0.75 -0.5
vertex -0.5 -0.866025403784439 -0.5
endloop
endfacet
facet normal -0.250562807085732 -0.935113126531029 0.250562807085731
outer loop
vertex -0.5 -0.866025403784439 0.5
vertex -0.933012701892219 -0.75 0.5
vertex -1 -0.866025403784439 0
endloop
endfacet
facet normal -0.250562807085732 -0.935113126531029 0.250562807085731
outer loop
vertex -0.5 -0.866025403784439 0.5
vertex -1 -0.866025403784439 0
vertex -0.5 -1 0
endloop
endfacet
facet normal -0.186156787897385 -0.694746590606866 -0.694746590606866
outer loop
vertex -0.5 -0.866025403784439 -0.5
vertex -0.933012701892219 -0.75 -0.5
vertex -0.75 -0.433012701892219 -0.866025403784439
endloop
endfacet
facet normal -0.186156787897385 -0.694746590606866 -0.694746590606866
outer loop
vertex -0.5 -0.866025403784439 -0.5
vertex -0.75 -0.433012701892219 -0.866025403784439
vertex -0.5 -0.5 -0.866025403784439
endloop
endfacet
facet normal -0.186156787897385 -0.694746590606866 0.694746590606866
outer loop
vertex -0.5 -0.5 0.866025403784439
vertex -0.75 -0.433012701892219 0.866025403784439
vertex -0.933012701892219 -0.75 0.5
endloop
endfacet
facet normal -0.186156787897385 -0.694746590606866 0.694746590606866
outer loop
vertex -0.5 -0.5 0.866025403784439
vertex -0.933012701892219 -0.75 0.5
vertex -0.5 -0.866025403784439 0.5
endloop
endfacet
facet normal -0.0691841839943643 -0.258198889747161 -0.96361137499428
outer loop
vertex -0.5 -0.5 -0.866025403784439
vertex -0.75 -0.433012701892219 -0.866025403784439
vertex -0.5 0 -1
endloop
endfacet
facet normal -0.0691841839943643 -0.258198889747161 0.96361137499428
outer loop
vertex -0.5 0 1
vertex -0.75 -0.433012701892219 0.866025403784439
vertex -0.5 -0.5 0.866025403784439
endloop
endfacet
facet normal -0.684550319445297 -0.684550319445298 -0.250562807085732
outer loop
vertex -1 -0.866025403784439 0
vertex -1.36602540378444 -0.5 0
vertex -1.25 -0.433012701892219 -0.5
endloop
endfacet
facet normal -0.684550319445297 -0.684550319445298 -0.250562807085732
outer loop
vertex -1 -0.866025403784439 0
vertex -1.25 -0.433012701892219 -0.5
vertex -0.933012701892219 -0.75 -0.5
endloop
endfacet
facet normal -0.684550319445298 -0.684550319445298 0.250562807085732
outer loop
vertex -0.933012701892219 -0.75 0.5
vertex -1.25 -0.433012701892219 0.5
vertex -1.36602540378444 -0.5 0
endloop
endfacet
facet normal -0.684550319445298 -0.684550319445298 0.250562807085732
outer loop
vertex -0.933012701892219 -0.75 0.5
vertex -1.36602540378444 -0.5 0
vertex -1 -0.866025403784439 0
endloop
endfacet
facet normal -0.50858980270948 -0.50858980270948 -0.694746590606866
outer loop
vertex -0.933012701892219 -0.75 -0.5
vertex -1.25 -0.433012701892219 -0.5
vertex -0.933012701892219 -0.25 -0.866025403784439
endloop
endfacet
facet normal -0.50858980270948 -0.50858980270948 -0.694746590606866
outer loop
vertex -0.933012701892219 -0.75 -0.5
vertex -0.933012701892219 -0.25 -0.866025403784439
vertex -0.75 -0.433012701892219 -0.866025403784439
endloop
endfacet
facet normal -0.50858980270948 -0.50858980270948 0.694746590606866
outer loop
vertex -0.75 -0.433012701892219 0.866025403784439
vertex -0.933012701892219 -0.25 0.866025403784439
vertex -1.25 -0.433012701892219 0.5
endloop
endfacet
facet normal -0.50858980270948 -0.50858980270948 0.694746590606866
outer loop
vertex -0.75 -0.433012701892219 0.866025403784439
vertex -1.25 -0.433012701892219 0.5
vertex -0.933012701892219 -0.75 0.5
endloop
endfacet
facet normal -0.189014705752797 -0.189014705752797 -0.96361137499428
outer loop
vertex -0.75 -0.433012701892219 -0.866025403784439
vertex -0.933012701892219 -0.25 -0.866025403784439
vertex -0.5 0 -1
endloop
endfacet
facet normal -0.189014705752797 -0.189014705752797 0.96361137499428
outer loop
vertex -0.5 0 1
vertex -0.933012701892219 -0.25 0.866025403784439
vertex -0.75 -0.433012701892219 0.866025403784439
endloop
endfacet
facet normal -0.935113126531029 -0.250562807085731 -0.250562807085731
outer loop
vertex -1.36602540378444 -0.5 0
vertex -1.5 -1.22460635382238E-16 0
vertex -1.36602540378444 -1.06054021204601E-16 -0.5
endloop
endfacet
facet normal -0.935113126531029 -0.250562807085731 -0.250562807085731
outer loop
vertex -1.36602540378444 -0.5 0
vertex -1.36602540378444 -1.06054021204601E-16 -0.5
vertex -1.25 -0.433012701892219 -0.5
endloop
endfacet
facet normal -0.935113126531029 -0.250562807085732 0.250562807085731
outer loop
vertex -1.25 -0.433012701892219 0.5
vertex -1.36602540378444 -1.06054021204601E-16 0.5
vertex -1.5 -1.22460635382238E-16 0
endloop
endfacet
facet normal -0.935113126531029 -0.250562807085732 0.250562807085731
outer loop
vertex -1.25 -0.433012701892219 0.5
vertex -1.5 -1.22460635382238E-16 0
vertex -1.36602540378444 -0.5 0
endloop
endfacet
facet normal -0.694746590606866 -0.186156787897386 -0.694746590606866
outer loop
vertex -1.25 -0.433012701892219 -0.5
vertex -1.36602540378444 -1.06054021204601E-16 -0.5
vertex -1 -6.12303176911189E-17 -0.866025403784439
endloop
endfacet
facet normal -0.694746590606866 -0.186156787897386 -0.694746590606866
outer loop
vertex -1.25 -0.433012701892219 -0.5
vertex -1 -6.12303176911189E-17 -0.866025403784439
vertex -0.933012701892219 -0.25 -0.866025403784439
endloop
endfacet
facet normal -0.694746590606866 -0.186156787897385 0.694746590606866
outer loop
vertex -0.933012701892219 -0.25 0.866025403784439
vertex -1 -6.12303176911189E-17 0.866025403784439
vertex -1.36602540378444 -1.06054021204601E-16 0.5
endloop
endfacet
facet normal -0.694746590606866 -0.186156787897385 0.694746590606866
outer loop
vertex -0.933012701892219 -0.25 0.866025403784439
vertex -1.36602540378444 -1.06054021204601E-16 0.5
vertex -1.25 -0.433012701892219 0.5
endloop
endfacet
facet normal -0.258198889747161 -0.0691841839943643 -0.96361137499428
outer loop
vertex -0.933012701892219 -0.25 -0.866025403784439
vertex -1 -6.12303176911189E-17 -0.866025403784439
vertex -0.5 0 -1
endloop
endfacet
facet normal -0.258198889747161 -0.0691841839943643 0.96361137499428
outer loop
vertex -0.5 0 1
vertex -1 -6.12303176911189E-17 0.866025403784439
vertex -0.933012701892219 -0.25 0.866025403784439
endloop
endfacet
facet normal -0.935113126531029 0.250562807085731 -0.250562807085731
outer loop
vertex -1.5 -1.22460635382238E-16 0
vertex -1.36602540378444 0.5 0
vertex -1.25 0.433012701892219 -0.5
endloop
endfacet
facet normal -0.935113126531029 0.250562807085731 -0.250562807085731
outer loop
vertex -1.5 -1.22460635382238E-16 0
vertex -1.25 0.433012701892219 -0.5
vertex -1.36602540378444 -1.06054021204601E-16 -0.5
endloop
endfacet
facet normal -0.935113126531029 0.250562807085732 0.250562807085731
outer loop
vertex -1.36602540378444 -1.06054021204601E-16 0.5
vertex -1.25 0.433012701892219 0.5
vertex -1.36602540378444 0.5 0
endloop
endfacet
facet normal -0.935113126531029 0.250562807085732 0.250562807085731
outer loop
vertex -1.36602540378444 -1.06054021204601E-16 0.5
vertex -1.36602540378444 0.5 0
vertex -1.5 -1.22460635382238E-16 0
endloop
endfacet
facet normal -0.694746590606866 0.186156787897385 -0.694746590606866
outer loop
vertex -1.36602540378444 -1.06054021204601E-16 -0.5
vertex -1.25 0.433012701892219 -0.5
vertex -0.93301270189222 0.25 -0.866025403784439
endloop
endfacet
facet normal -0.694746590606866 0.186156787897385 -0.694746590606866
outer loop
vertex -1.36602540378444 -1.06054021204601E-16 -0.5
vertex -0.93301270189222 0.25 -0.866025403784439
vertex -1 -6.12303176911189E-17 -0.866025403784439
endloop
endfacet
facet normal -0.694746590606866 0.186156787897385 0.694746590606866
outer loop
vertex -1 -6.12303176911189E-17 0.866025403784439
vertex -0.93301270189222 0.25 0.866025403784439
vertex -1.25 0.433012701892219 0.5
endloop
endfacet
facet normal -0.694746590606866 0.186156787897385 0.694746590606866
outer loop
vertex -1 -6.12303176911189E-17 0.866025403784439
vertex -1.25 0.433012701892219 0.5
vertex -1.36602540378444 -1.06054021204601E-16 0.5
endloop
endfacet
facet normal -0.258198889747161 0.0691841839943642 -0.96361137499428
outer loop
vertex -1 -6.12303176911189E-17 -0.866025403784439
vertex -0.93301270189222 0.25 -0.866025403784439
vertex -0.5 0 -1
endloop
endfacet
facet normal -0.258198889747161 0.0691841839943642 0.96361137499428
outer loop
vertex -0.5 0 1
vertex -0.93301270189222 0.25 0.866025403784439
vertex -1 -6.12303176911189E-17 0.866025403784439
endloop
endfacet
facet normal -0.684550319445298 0.684550319445298 -0.250562807085732
outer loop
vertex -1.36602540378444 0.5 0
vertex -1 0.866025403784438 0
vertex -0.93301270189222 0.75 -0.5
endloop
endfacet
facet normal -0.684550319445298 0.684550319445298 -0.250562807085732
outer loop
vertex -1.36602540378444 0.5 0
vertex -0.93301270189222 0.75 -0.5
vertex -1.25 0.433012701892219 -0.5
endloop
endfacet
facet normal -0.684550319445298 0.684550319445298 0.250562807085732
outer loop
vertex -1.25 0.433012701892219 0.5
vertex -0.93301270189222 0.75 0.5
vertex -1 0.866025403784438 0
endloop
endfacet
facet normal -0.684550319445298 0.684550319445298 0.250562807085732
outer loop
vertex -1.25 0.433012701892219 0.5
vertex -1 0.866025403784438 0
vertex -1.36602540378444 0.5 0
endloop
endfacet
facet normal -0.50858980270948 0.50858980270948 -0.694746590606866
outer loop
vertex -1.25 0.433012701892219 -0.5
vertex -0.93301270189222 0.75 -0.5
vertex -0.75 0.433012701892219 -0.866025403784439
endloop
endfacet
facet normal -0.50858980270948 0.50858980270948 -0.694746590606866
outer loop
vertex -1.25 0.433012701892219 -0.5
vertex -0.75 0.433012701892219 -0.866025403784439
vertex -0.93301270189222 0.25 -0.866025403784439
endloop
endfacet
facet normal -0.50858980270948 0.50858980270948 0.694746590606866
outer loop
vertex -0.93301270189222 0.25 0.866025403784439
vertex -0.75 0.433012701892219 0.866025403784439
vertex -0.93301270189222 0.75 0.5
endloop
endfacet
facet normal -0.50858980270948 0.50858980270948 0.694746590606866
outer loop
vertex -0.93301270189222 0.25 0.866025403784439
vertex -0.93301270189222 0.75 0.5
vertex -1.25 0.433012701892219 0.5
endloop
endfacet
facet normal -0.189014705752797 0.189014705752797 -0.96361137499428
outer loop
vertex -0.93301270189222 0.25 -0.866025403784439
vertex -0.75 0.433012701892219 -0.866025403784439
vertex -0.5 0 -1
endloop
endfacet
facet normal -0.189014705752797 0.189014705752797 0.96361137499428
outer loop
vertex -0.5 0 1
vertex -0.75 0.433012701892219 0.866025403784439
vertex -0.93301270189222 0.25 0.866025403784439
endloop
endfacet
facet normal -0.250562807085732 0.935113126531029 -0.250562807085732
outer loop
vertex -1 0.866025403784438 0
vertex -0.5 1 0
vertex -0.5 0.866025403784439 -0.5
endloop
endfacet
facet normal -0.250562807085732 0.935113126531029 -0.250562807085732
outer loop
vertex -1 0.866025403784438 0
vertex -0.5 0.866025403784439 -0.5
vertex -0.93301270189222 0.75 -0.5
endloop
endfacet
facet normal -0.250562807085732 0.935113126531029 0.250562807085732
outer loop
vertex -0.93301270189222 0.75 0.5
vertex -0.5 0.866025403784439 0.5
vertex -0.5 1 0
endloop
endfacet
facet normal -0.250562807085732 0.935113126531029 0.250562807085732
outer loop
vertex -0.93301270189222 0.75 0.5
vertex -0.5 1 0
vertex -1 0.866025403784438 0
endloop
endfacet
facet normal -0.186156787897386 0.694746590606866 -0.694746590606866
outer loop
vertex -0.93301270189222 0.75 -0.5
vertex -0.5 0.866025403784439 -0.5
vertex -0.5 0.5 -0.866025403784439
endloop
endfacet
facet normal -0.186156787897386 0.694746590606866 -0.694746590606866
outer loop
vertex -0.93301270189222 0.75 -0.5
vertex -0.5 0.5 -0.866025403784439
vertex -0.75 0.433012701892219 -0.866025403784439
endloop
endfacet
facet normal -0.186156787897386 0.694746590606866 0.694746590606866
outer loop
vertex -0.75 0.433012701892219 0.866025403784439
vertex -0.5 0.5 0.866025403784439
vertex -0.5 0.866025403784439 0.5
endloop
endfacet
facet normal -0.186156787897386 0.694746590606866 0.694746590606866
outer loop
vertex -0.75 0.433012701892219 0.866025403784439
vertex -0.5 0.866025403784439 0.5
vertex -0.93301270189222 0.75 0.5
endloop
endfacet
facet normal -0.0691841839943644 0.258198889747161 -0.96361137499428
outer loop
vertex -0.75 0.433012701892219 -0.866025403784439
vertex -0.5 0.5 -0.866025403784439
vertex -0.5 0 -1
endloop
endfacet
facet normal -0.0691841839943645 0.258198889747161 0.96361137499428
outer loop
vertex -0.5 0 1
vertex -0.5 0.5 0.866025403784439
vertex -0.75 0.433012701892219 0.866025403784439
endloop
endfacet
facet normal 0.250562807085732 0.93511312653103 -0.250562807085732
outer loop
vertex -0.5 1 0
vertex 1.11022302462516E-16 0.866025403784439 0
vertex -0.0669872981077805 0.75 -0.5
endloop
endfacet
facet normal 0.250562807085732 0.93511312653103 -0.250562807085732
outer loop
vertex -0.5 1 0
vertex -0.0669872981077805 0.75 -0.5
vertex -0.5 0.866025403784439 -0.5
endloop
endfacet
facet normal 0.250562807085732 0.935113126531029 0.250562807085732
outer loop
vertex -0.5 0.866025403784439 0.5
vertex -0.0669872981077805 0.75 0.5
vertex 1.11022302462516E-16 0.866025403784439 0
endloop
endfacet
facet normal 0.250562807085732 0.935113126531029 0.250562807085732
outer loop
vertex -0.5 0.866025403784439 0.5
vertex 1.11022302462516E-16 0.866025403784439 0
vertex -0.5 1 0
endloop
endfacet
facet normal 0.186156787897385 0.694746590606866 -0.694746590606866
outer loop
vertex -0.5 0.866025403784439 -0.5
vertex -0.0669872981077805 0.75 -0.5
vertex -0.25 0.433012701892219 -0.866025403784439
endloop
endfacet
facet normal 0.186156787897385 0.694746590606866 -0.694746590606866
outer loop
vertex -0.5 0.866025403784439 -0.5
vertex -0.25 0.433012701892219 -0.866025403784439
vertex -0.5 0.5 -0.866025403784439
endloop
endfacet
facet normal 0.186156787897385 0.694746590606866 0.694746590606866
outer loop
vertex -0.5 0.5 0.866025403784439
vertex -0.25 0.433012701892219 0.866025403784439
vertex -0.0669872981077805 0.75 0.5
endloop
endfacet
facet normal 0.186156787897385 0.694746590606866 0.694746590606866
outer loop
vertex -0.5 0.5 0.866025403784439
vertex -0.0669872981077805 0.75 0.5
vertex -0.5 0.866025403784439 0.5
endloop
endfacet
facet normal 0.0691841839943643 0.258198889747161 -0.96361137499428
outer loop
vertex -0.5 0.5 -0.866025403784439
vertex -0.25 0.433012701892219 -0.866025403784439
vertex -0.5 0 -1
endloop
endfacet
facet normal 0.0691841839943643 0.258198889747161 0.96361137499428
outer loop
vertex -0.5 0 1
vertex -0.25 0.433012701892219 0.866025403784439
vertex -0.5 0.5 0.866025403784439
endloop
endfacet
facet normal 0.189014705752797 0.189014705752797 -0.96361137499428
outer loop
vertex -0.25 0.433012701892219 -0.866025403784439
vertex -0.0669872981077807 0.25 -0.866025403784439
vertex -0.5 0 -1
endloop
endfacet
facet normal 0.189014705752797 0.189014705752797 0.96361137499428
outer loop
vertex -0.5 0 1
vertex -0.0669872981077807 0.25 0.866025403784439
vertex -0.25 0.433012701892219 0.866025403784439
endloop
endfacet
facet normal 0.258198889747161 0.0691841839943644 -0.96361137499428
outer loop
vertex -0.0669872981077807 0.25 -0.866025403784439
vertex 1.11022302462516E-16 0 -0.866025403784439
vertex -0.5 0 -1
endloop
endfacet
facet normal 0.258198889747161 0.0691841839943644 0.96361137499428
outer loop
vertex -0.5 0 1
vertex 1.11022302462516E-16 0 0.866025403784439
vertex -0.0669872981077807 0.25 0.866025403784439
endloop
endfacet
facet normal 0.694746590606866 -0.186156787897385 -0.694746590606866
outer loop
vertex 1.11022302462516E-16 0 -0.866025403784439
vertex -5.55111512312578E-17 -0.288675134594813 -0.788675134594813
vertex -0.0669872981077805 -0.25 -0.866025403784439
endloop
endfacet
facet normal 0.694746590606866 -0.186156787897385 0.694746590606866
outer loop
vertex 1.11022302462516E-16 0 0.866025403784439
vertex -0.0669872981077805 -0.25 0.866025403784439
vertex 1.11022302462516E-16 -0.288675134594813 0.788675134594813
endloop
endfacet
facet normal 0.684550319445298 -0.684550319445298 -0.250562807085732
outer loop
vertex 1.11022302462516E-16 -0.866025403784439 0
vertex -0.0669872981077805 -0.75 -0.5
vertex -5.55111512312578E-17 -0.68301270189222 -0.5
endloop
endfacet
facet normal 0.684550319445298 -0.684550319445298 0.250562807085732
outer loop
vertex -0.0669872981077805 -0.75 0.5
vertex 1.11022302462516E-16 -0.866025403784439 0
vertex 1.66533453693773E-16 -0.683012701892219 0.5
endloop
endfacet
facet normal 0.50858980270948 -0.50858980270948 -0.694746590606866
outer loop
vertex -0.0669872981077805 -0.25 -0.866025403784439
vertex -5.55111512312578E-17 -0.288675134594813 -0.788675134594813
vertex -5.55111512312578E-17 -0.68301270189222 -0.5
endloop
endfacet
facet normal 0.50858980270948 -0.50858980270948 -0.694746590606866
outer loop
vertex -0.0669872981077805 -0.25 -0.866025403784439
vertex -5.55111512312578E-17 -0.68301270189222 -0.5
vertex -0.0669872981077805 -0.75 -0.5
endloop
endfacet
facet normal 0.50858980270948 -0.50858980270948 -0.694746590606866
outer loop
vertex -0.0669872981077805 -0.25 -0.866025403784439
vertex -0.0669872981077805 -0.75 -0.5
vertex -0.25 -0.433012701892219 -0.866025403784439
endloop
endfacet
facet normal 0.50858980270948 -0.50858980270948 0.694746590606866
outer loop
vertex 1.11022302462516E-16 -0.288675134594813 0.788675134594813
vertex -0.0669872981077805 -0.25 0.866025403784439
vertex -0.25 -0.433012701892219 0.866025403784439
endloop
endfacet
facet normal 0.50858980270948 -0.50858980270948 0.694746590606866
outer loop
vertex 1.11022302462516E-16 -0.288675134594813 0.788675134594813
vertex -0.25 -0.433012701892219 0.866025403784439
vertex -0.0669872981077805 -0.75 0.5
endloop
endfacet
facet normal 0.50858980270948 -0.50858980270948 0.694746590606866
outer loop
vertex 1.11022302462516E-16 -0.288675134594813 0.788675134594813
vertex -0.0669872981077805 -0.75 0.5
vertex 1.66533453693773E-16 -0.683012701892219 0.5
endloop
endfacet
facet normal 0.684550319445298 0.684550319445298 -0.250562807085732
outer loop
vertex 8.32667268468867E-17 0.683012701892219 -0.5
vertex -0.0669872981077805 0.75 -0.5
vertex 1.11022302462516E-16 0.866025403784439 0
endloop
endfacet
facet normal 0.684550319445298 0.684550319445298 0.250562807085732
outer loop
vertex -0.0669872981077805 0.75 0.5
vertex 1.38777878078145E-17 0.683012701892219 0.5
vertex 1.11022302462516E-16 0.866025403784439 0
endloop
endfacet
facet normal 0.50858980270948 0.50858980270948 -0.694746590606866
outer loop
vertex 8.32667268468867E-17 0.683012701892219 -0.5
vertex -1.66533453693773E-16 0.288675134594813 -0.788675134594813
vertex -0.0669872981077807 0.25 -0.866025403784439
endloop
endfacet
facet normal 0.50858980270948 0.50858980270948 -0.694746590606866
outer loop
vertex 8.32667268468867E-17 0.683012701892219 -0.5
vertex -0.0669872981077807 0.25 -0.866025403784439
vertex -0.25 0.433012701892219 -0.866025403784439
endloop
endfacet
facet normal 0.50858980270948 0.50858980270948 -0.694746590606866
outer loop
vertex 8.32667268468867E-17 0.683012701892219 -0.5
vertex -0.25 0.433012701892219 -0.866025403784439
vertex -0.0669872981077805 0.75 -0.5
endloop
endfacet
facet normal 0.50858980270948 0.50858980270948 0.694746590606866
outer loop
vertex -2.22044604925031E-16 0.288675134594813 0.788675134594813
vertex 1.38777878078145E-17 0.683012701892219 0.5
vertex -0.0669872981077805 0.75 0.5
endloop
endfacet
facet normal 0.50858980270948 0.50858980270948 0.694746590606866
outer loop
vertex -2.22044604925031E-16 0.288675134594813 0.788675134594813
vertex -0.0669872981077805 0.75 0.5
vertex -0.25 0.433012701892219 0.866025403784439
endloop
endfacet
facet normal 0.50858980270948 0.50858980270948 0.694746590606866
outer loop
vertex -2.22044604925031E-16 0.288675134594813 0.788675134594813
vertex -0.25 0.433012701892219 0.866025403784439
vertex -0.0669872981077807 0.25 0.866025403784439
endloop
endfacet
facet normal 0.694746590606866 0.186156787897386 -0.694746590606866
outer loop
vertex 1.11022302462516E-16 0 -0.866025403784439
vertex -0.0669872981077807 0.25 -0.866025403784439
vertex -1.66533453693773E-16 0.288675134594813 -0.788675134594813
endloop
endfacet
facet normal 0.694746590606866 0.186156787897386 0.694746590606866
outer loop
vertex -0.0669872981077807 0.25 0.866025403784439
vertex 1.11022302462516E-16 0 0.866025403784439
vertex -2.22044604925031E-16 0.288675134594813 0.788675134594813
endloop
endfacet
facet normal 0.935113126531029 -0.250562807085731 -0.250562807085732
outer loop
vertex 1.5 0 0
vertex 1.36602540378444 -0.5 0
vertex 1.25 -0.433012701892219 -0.5
endloop
endfacet
facet normal 0.935113126531029 -0.250562807085731 -0.250562807085732
outer loop
vertex 1.5 0 0
vertex 1.25 -0.433012701892219 -0.5
vertex 1.36602540378444 0 -0.5
endloop
endfacet
facet normal 0.935113126531029 -0.250562807085732 0.250562807085732
outer loop
vertex 1.36602540378444 0 0.5
vertex 1.25 -0.433012701892219 0.5
vertex 1.36602540378444 -0.5 0
endloop
endfacet
facet normal 0.935113126531029 -0.250562807085732 0.250562807085732
outer loop
vertex 1.36602540378444 0 0.5
vertex 1.36602540378444 -0.5 0
vertex 1.5 0 0
endloop
endfacet
facet normal 0.694746590606866 -0.186156787897386 -0.694746590606866
outer loop
vertex 1.36602540378444 0 -0.5
vertex 1.25 -0.433012701892219 -0.5
vertex 0.933012701892219 -0.25 -0.866025403784439
endloop
endfacet
facet normal 0.694746590606866 -0.186156787897386 -0.694746590606866
outer loop
vertex 1.36602540378444 0 -0.5
vertex 0.933012701892219 -0.25 -0.866025403784439
vertex 1 0 -0.866025403784439
endloop
endfacet
facet normal 0.694746590606866 -0.186156787897385 0.694746590606866
outer loop
vertex 1 0 0.866025403784439
vertex 0.933012701892219 -0.25 0.866025403784439
vertex 1.25 -0.433012701892219 0.5
endloop
endfacet
facet normal 0.694746590606866 -0.186156787897385 0.694746590606866
outer loop
vertex 1 0 0.866025403784439
vertex 1.25 -0.433012701892219 0.5
vertex 1.36602540378444 0 0.5
endloop
endfacet
facet normal 0.258198889747161 -0.0691841839943643 -0.96361137499428
outer loop
vertex 1 0 -0.866025403784439
vertex 0.933012701892219 -0.25 -0.866025403784439
vertex 0.5 0 -1
endloop
endfacet
facet normal 0.258198889747161 -0.0691841839943643 0.96361137499428
outer loop
vertex 0.5 0 1
vertex 0.933012701892219 -0.25 0.866025403784439
vertex 1 0 0.866025403784439
endloop
endfacet
facet normal 0.684550319445298 -0.684550319445298 -0.250562807085731
outer loop
vertex 1.36602540378444 -0.5 0
vertex 1 -0.866025403784439 0
vertex 0.933012701892219 -0.75 -0.5
endloop
endfacet
facet normal 0.684550319445298 -0.684550319445298 -0.250562807085731
outer loop
vertex 1.36602540378444 -0.5 0
vertex 0.933012701892219 -0.75 -0.5
vertex 1.25 -0.433012701892219 -0.5
endloop
endfacet
facet normal 0.684550319445298 -0.684550319445298 0.250562807085731
outer loop
vertex 1.25 -0.433012701892219 0.5
vertex 0.933012701892219 -0.75 0.5
vertex 1 -0.866025403784439 0
endloop
endfacet
facet normal 0.684550319445298 -0.684550319445298 0.250562807085731
outer loop
vertex 1.25 -0.433012701892219 0.5
vertex 1 -0.866025403784439 0
vertex 1.36602540378444 -0.5 0
endloop
endfacet
facet normal 0.50858980270948 -0.50858980270948 -0.694746590606866
outer loop
vertex 1.25 -0.433012701892219 -0.5
vertex 0.933012701892219 -0.75 -0.5
vertex 0.75 -0.433012701892219 -0.866025403784439
endloop
endfacet
facet normal 0.50858980270948 -0.50858980270948 -0.694746590606866
outer loop
vertex 1.25 -0.433012701892219 -0.5
vertex 0.75 -0.433012701892219 -0.866025403784439
vertex 0.933012701892219 -0.25 -0.866025403784439
endloop
endfacet
facet normal 0.508589802709481 -0.50858980270948 0.694746590606866
outer loop
vertex 0.933012701892219 -0.25 0.866025403784439
vertex 0.75 -0.433012701892219 0.866025403784439
vertex 0.933012701892219 -0.75 0.5
endloop
endfacet
facet normal 0.508589802709481 -0.50858980270948 0.694746590606866
outer loop
vertex 0.933012701892219 -0.25 0.866025403784439
vertex 0.933012701892219 -0.75 0.5
vertex 1.25 -0.433012701892219 0.5
endloop
endfacet
facet normal 0.189014705752797 -0.189014705752797 -0.96361137499428
outer loop
vertex 0.933012701892219 -0.25 -0.866025403784439
vertex 0.75 -0.433012701892219 -0.866025403784439
vertex 0.5 0 -1
endloop
endfacet
facet normal 0.189014705752797 -0.189014705752797 0.96361137499428
outer loop
vertex 0.5 0 1
vertex 0.75 -0.433012701892219 0.866025403784439
vertex 0.933012701892219 -0.25 0.866025403784439
endloop
endfacet
facet normal 0.250562807085732 -0.935113126531029 -0.250562807085732
outer loop
vertex 1 -0.866025403784439 0
vertex 0.5 -1 0
vertex 0.5 -0.866025403784439 -0.5
endloop
endfacet
facet normal 0.250562807085732 -0.935113126531029 -0.250562807085732
outer loop
vertex 1 -0.866025403784439 0
vertex 0.5 -0.866025403784439 -0.5
vertex 0.933012701892219 -0.75 -0.5
endloop
endfacet
facet normal 0.250562807085732 -0.935113126531029 0.250562807085732
outer loop
vertex 0.933012701892219 -0.75 0.5
vertex 0.5 -0.866025403784439 0.5
vertex 0.5 -1 0
endloop
endfacet
facet normal 0.250562807085732 -0.935113126531029 0.250562807085732
outer loop
vertex 0.933012701892219 -0.75 0.5
vertex 0.5 -1 0
vertex 1 -0.866025403784439 0
endloop
endfacet
facet normal 0.186156787897386 -0.694746590606866 -0.694746590606866
outer loop
vertex 0.933012701892219 -0.75 -0.5
vertex 0.5 -0.866025403784439 -0.5
vertex 0.5 -0.5 -0.866025403784439
endloop
endfacet
facet normal 0.186156787897386 -0.694746590606866 -0.694746590606866
outer loop
vertex 0.933012701892219 -0.75 -0.5
vertex 0.5 -0.5 -0.866025403784439
vertex 0.75 -0.433012701892219 -0.866025403784439
endloop
endfacet
facet normal 0.186156787897386 -0.694746590606866 0.694746590606866
outer loop
vertex 0.75 -0.433012701892219 0.866025403784439
vertex 0.5 -0.5 0.866025403784439
vertex 0.5 -0.866025403784439 0.5
endloop
endfacet
facet normal 0.186156787897386 -0.694746590606866 0.694746590606866
outer loop
vertex 0.75 -0.433012701892219 0.866025403784439
vertex 0.5 -0.866025403784439 0.5
vertex 0.933012701892219 -0.75 0.5
endloop
endfacet
facet normal 0.0691841839943643 -0.258198889747161 -0.96361137499428
outer loop
vertex 0.75 -0.433012701892219 -0.866025403784439
vertex 0.5 -0.5 -0.866025403784439
vertex 0.5 0 -1
endloop
endfacet
facet normal 0.0691841839943644 -0.258198889747161 0.96361137499428
outer loop
vertex 0.5 0 1
vertex 0.5 -0.5 0.866025403784439
vertex 0.75 -0.433012701892219 0.866025403784439
endloop
endfacet
facet normal -0.250562807085731 -0.935113126531029 -0.250562807085731
outer loop
vertex 0.5 -1 0
vertex 1.11022302462516E-16 -0.866025403784439 0
vertex 0.0669872981077808 -0.75 -0.5
endloop
endfacet
facet normal -0.250562807085731 -0.935113126531029 -0.250562807085731
outer loop
vertex 0.5 -1 0
vertex 0.0669872981077808 -0.75 -0.5
vertex 0.5 -0.866025403784439 -0.5
endloop
endfacet
facet normal -0.250562807085732 -0.935113126531029 0.250562807085731
outer loop
vertex 0.5 -0.866025403784439 0.5
vertex 0.0669872981077808 -0.75 0.5
vertex 1.11022302462516E-16 -0.866025403784439 0
endloop
endfacet
facet normal -0.250562807085732 -0.935113126531029 0.250562807085731
outer loop
vertex 0.5 -0.866025403784439 0.5
vertex 1.11022302462516E-16 -0.866025403784439 0
vertex 0.5 -1 0
endloop
endfacet
facet normal -0.186156787897385 -0.694746590606866 -0.694746590606866
outer loop
vertex 0.5 -0.866025403784439 -0.5
vertex 0.0669872981077808 -0.75 -0.5
vertex 0.25 -0.433012701892219 -0.866025403784439
endloop
endfacet
facet normal -0.186156787897385 -0.694746590606866 -0.694746590606866
outer loop
vertex 0.5 -0.866025403784439 -0.5
vertex 0.25 -0.433012701892219 -0.866025403784439
vertex 0.5 -0.5 -0.866025403784439
endloop
endfacet
facet normal -0.186156787897385 -0.694746590606866 0.694746590606866
outer loop
vertex 0.5 -0.5 0.866025403784439
vertex 0.25 -0.433012701892219 0.866025403784439
vertex 0.0669872981077808 -0.75 0.5
endloop
endfacet
facet normal -0.186156787897385 -0.694746590606866 0.694746590606866
outer loop
vertex 0.5 -0.5 0.866025403784439
vertex 0.0669872981077808 -0.75 0.5
vertex 0.5 -0.866025403784439 0.5
endloop
endfacet
facet normal -0.0691841839943643 -0.258198889747161 -0.96361137499428
outer loop
vertex 0.5 -0.5 -0.866025403784439
vertex 0.25 -0.433012701892219 -0.866025403784439
vertex 0.5 0 -1
endloop
endfacet
facet normal -0.0691841839943643 -0.258198889747161 0.96361137499428
outer loop
vertex 0.5 0 1
vertex 0.25 -0.433012701892219 0.866025403784439
vertex 0.5 -0.5 0.866025403784439
endloop
endfacet
facet normal -0.189014705752797 -0.189014705752797 -0.96361137499428
outer loop
vertex 0.25 -0.433012701892219 -0.866025403784439
vertex 0.0669872981077805 -0.25 -0.866025403784439
vertex 0.5 0 -1
endloop
endfacet
facet normal -0.189014705752797 -0.189014705752797 0.96361137499428
outer loop
vertex 0.5 0 1
vertex 0.0669872981077805 -0.25 0.866025403784439
vertex 0.25 -0.433012701892219 0.866025403784439
endloop
endfacet
facet normal -0.258198889747161 -0.0691841839943643 -0.96361137499428
outer loop
vertex 0.0669872981077805 -0.25 -0.866025403784439
vertex 1.11022302462516E-16 0 -0.866025403784439
vertex 0.5 0 -1
endloop
endfacet
facet normal -0.258198889747161 -0.0691841839943643 0.96361137499428
outer loop
vertex 0.5 0 1
vertex 1.11022302462516E-16 0 0.866025403784439
vertex 0.0669872981077805 -0.25 0.866025403784439
endloop
endfacet
facet normal -0.258198889747161 0.0691841839943643 -0.96361137499428
outer loop
vertex 1.11022302462516E-16 0 -0.866025403784439
vertex 0.0669872981077805 0.25 -0.866025403784439
vertex 0.5 0 -1
endloop
endfacet
facet normal -0.258198889747161 0.0691841839943642 0.96361137499428
outer loop
vertex 0.5 0 1
vertex 0.0669872981077805 0.25 0.866025403784439
vertex 1.11022302462516E-16 0 0.866025403784439
endloop
endfacet
facet normal -0.189014705752797 0.189014705752797 -0.96361137499428
outer loop
vertex 0.0669872981077805 0.25 -0.866025403784439
vertex 0.25 0.433012701892219 -0.866025403784439
vertex 0.5 0 -1
endloop
endfacet
facet normal -0.189014705752797 0.189014705752797 0.96361137499428
outer loop
vertex 0.5 0 1
vertex 0.25 0.433012701892219 0.866025403784439
vertex 0.0669872981077805 0.25 0.866025403784439
endloop
endfacet
facet normal -0.250562807085732 0.935113126531029 -0.250562807085731
outer loop
vertex 1.11022302462516E-16 0.866025403784439 0
vertex 0.5 1 0
vertex 0.5 0.866025403784439 -0.5
endloop
endfacet
facet normal -0.250562807085732 0.935113126531029 -0.250562807085731
outer loop
vertex 1.11022302462516E-16 0.866025403784439 0
vertex 0.5 0.866025403784439 -0.5
vertex 0.0669872981077803 0.75 -0.5
endloop
endfacet
facet normal -0.250562807085732 0.935113126531029 0.250562807085731
outer loop
vertex 0.0669872981077803 0.75 0.5
vertex 0.5 0.866025403784439 0.5
vertex 0.5 1 0
endloop
endfacet
facet normal -0.250562807085732 0.935113126531029 0.250562807085731
outer loop
vertex 0.0669872981077803 0.75 0.5
vertex 0.5 1 0
vertex 1.11022302462516E-16 0.866025403784439 0
endloop
endfacet
facet normal -0.186156787897386 0.694746590606866 -0.694746590606866
outer loop
vertex 0.0669872981077803 0.75 -0.5
vertex 0.5 0.866025403784439 -0.5
vertex 0.5 0.5 -0.866025403784439
endloop
endfacet
facet normal -0.186156787897386 0.694746590606866 -0.694746590606866
outer loop
vertex 0.0669872981077803 0.75 -0.5
vertex 0.5 0.5 -0.866025403784439
vertex 0.25 0.433012701892219 -0.866025403784439
endloop
endfacet
facet normal -0.186156787897386 0.694746590606866 0.694746590606866
outer loop
vertex 0.25 0.433012701892219 0.866025403784439
vertex 0.5 0.5 0.866025403784439
vertex 0.5 0.866025403784439 0.5
endloop
endfacet
facet normal -0.186156787897386 0.694746590606866 0.694746590606866
outer loop
vertex 0.25 0.433012701892219 0.866025403784439
vertex 0.5 0.866025403784439 0.5
vertex 0.0669872981077803 0.75 0.5
endloop
endfacet
facet normal -0.0691841839943644 0.258198889747161 -0.96361137499428
outer loop
vertex 0.25 0.433012701892219 -0.866025403784439
vertex 0.5 0.5 -0.866025403784439
vertex 0.5 0 -1
endloop
endfacet
facet normal -0.0691841839943645 0.258198889747161 0.96361137499428
outer loop
vertex 0.5 0 1
vertex 0.5 0.5 0.866025403784439
vertex 0.25 0.433012701892219 0.866025403784439
endloop
endfacet
facet normal 0.250562807085732 0.93511312653103 -0.250562807085732
outer loop
vertex 0.5 1 0
vertex 1 0.866025403784439 0
vertex 0.933012701892219 0.75 -0.5
endloop
endfacet
facet normal 0.250562807085732 0.93511312653103 -0.250562807085732
outer loop
vertex 0.5 1 0
vertex 0.933012701892219 0.75 -0.5
vertex 0.5 0.866025403784439 -0.5
endloop
endfacet
facet normal 0.250562807085732 0.935113126531029 0.250562807085732
outer loop
vertex 0.5 0.866025403784439 0.5
vertex 0.933012701892219 0.75 0.5
vertex 1 0.866025403784439 0
endloop
endfacet
facet normal 0.250562807085732 0.935113126531029 0.250562807085732
outer loop
vertex 0.5 0.866025403784439 0.5
vertex 1 0.866025403784439 0
vertex 0.5 1 0
endloop
endfacet
facet normal 0.186156787897385 0.694746590606866 -0.694746590606866
outer loop
vertex 0.5 0.866025403784439 -0.5
vertex 0.933012701892219 0.75 -0.5
vertex 0.75 0.433012701892219 -0.866025403784439
endloop
endfacet
facet normal 0.186156787897385 0.694746590606866 -0.694746590606866
outer loop
vertex 0.5 0.866025403784439 -0.5
vertex 0.75 0.433012701892219 -0.866025403784439
vertex 0.5 0.5 -0.866025403784439
endloop
endfacet
facet normal 0.186156787897385 0.694746590606866 0.694746590606866
outer loop
vertex 0.5 0.5 0.866025403784439
vertex 0.75 0.433012701892219 0.866025403784439
vertex 0.933012701892219 0.75 0.5
endloop
endfacet
facet normal 0.186156787897385 0.694746590606866 0.694746590606866
outer loop
vertex 0.5 0.5 0.866025403784439
vertex 0.933012701892219 0.75 0.5
vertex 0.5 0.866025403784439 0.5
endloop
endfacet
facet normal 0.0691841839943643 0.258198889747161 -0.96361137499428
outer loop
vertex 0.5 0.5 -0.866025403784439
vertex 0.75 0.433012701892219 -0.866025403784439
vertex 0.5 0 -1
endloop
endfacet
facet normal 0.0691841839943643 0.258198889747161 0.96361137499428
outer loop
vertex 0.5 0 1
vertex 0.75 0.433012701892219 0.866025403784439
vertex 0.5 0.5 0.866025403784439
endloop
endfacet
facet normal 0.684550319445298 0.684550319445298 -0.250562807085732
outer loop
vertex 1 0.866025403784439 0
vertex 1.36602540378444 0.5 0
vertex 1.25 0.43301270189222 -0.5
endloop
endfacet
facet normal 0.684550319445298 0.684550319445298 -0.250562807085732
outer loop
vertex 1 0.866025403784439 0
vertex 1.25 0.43301270189222 -0.5
vertex 0.933012701892219 0.75 -0.5
endloop
endfacet
facet normal 0.684550319445298 0.684550319445298 0.250562807085732
outer loop
vertex 0.933012701892219 0.75 0.5
vertex 1.25 0.43301270189222 0.5
vertex 1.36602540378444 0.5 0
endloop
endfacet
facet normal 0.684550319445298 0.684550319445298 0.250562807085732
outer loop
vertex 0.933012701892219 0.75 0.5
vertex 1.36602540378444 0.5 0
vertex 1 0.866025403784439 0
endloop
endfacet
facet normal 0.50858980270948 0.50858980270948 -0.694746590606866
outer loop
vertex 0.933012701892219 0.75 -0.5
vertex 1.25 0.43301270189222 -0.5
vertex 0.933012701892219 0.25 -0.866025403784439
endloop
endfacet
facet normal 0.50858980270948 0.50858980270948 -0.694746590606866
outer loop
vertex 0.933012701892219 0.75 -0.5
vertex 0.933012701892219 0.25 -0.866025403784439
vertex 0.75 0.433012701892219 -0.866025403784439
endloop
endfacet
facet normal 0.50858980270948 0.50858980270948 0.694746590606866
outer loop
vertex 0.75 0.433012701892219 0.866025403784439
vertex 0.933012701892219 0.25 0.866025403784439
vertex 1.25 0.43301270189222 0.5
endloop
endfacet
facet normal 0.50858980270948 0.50858980270948 0.694746590606866
outer loop
vertex 0.75 0.433012701892219 0.866025403784439
vertex 1.25 0.43301270189222 0.5
vertex 0.933012701892219 0.75 0.5
endloop
endfacet
facet normal 0.189014705752797 0.189014705752797 -0.96361137499428
outer loop
vertex 0.75 0.433012701892219 -0.866025403784439
vertex 0.933012701892219 0.25 -0.866025403784439
vertex 0.5 0 -1
endloop
endfacet
facet normal 0.189014705752797 0.189014705752797 0.96361137499428
outer loop
vertex 0.5 0 1
vertex 0.933012701892219 0.25 0.866025403784439
vertex 0.75 0.433012701892219 0.866025403784439
endloop
endfacet
facet normal 0.935113126531029 0.250562807085732 -0.250562807085731
outer loop
vertex 1.36602540378444 0.5 0
vertex 1.5 0 0
vertex 1.36602540378444 0 -0.5
endloop
endfacet
facet normal 0.935113126531029 0.250562807085732 -0.250562807085731
outer loop
vertex 1.36602540378444 0.5 0
vertex 1.36602540378444 0 -0.5
vertex 1.25 0.43301270189222 -0.5
endloop
endfacet
facet normal 0.935113126531029 0.250562807085732 0.250562807085731
outer loop
vertex 1.25 0.43301270189222 0.5
vertex 1.36602540378444 0 0.5
vertex 1.5 0 0
endloop
endfacet
facet normal 0.935113126531029 0.250562807085732 0.250562807085731
outer loop
vertex 1.25 0.43301270189222 0.5
vertex 1.5 0 0
vertex 1.36602540378444 0.5 0
endloop
endfacet
facet normal 0.694746590606866 0.186156787897386 -0.694746590606866
outer loop
vertex 1.25 0.43301270189222 -0.5
vertex 1.36602540378444 0 -0.5
vertex 1 0 -0.866025403784439
endloop
endfacet
facet normal 0.694746590606866 0.186156787897386 -0.694746590606866
outer loop
vertex 1.25 0.43301270189222 -0.5
vertex 1 0 -0.866025403784439
vertex 0.933012701892219 0.25 -0.866025403784439
endloop
endfacet
facet normal 0.694746590606866 0.186156787897385 0.694746590606866
outer loop
vertex 0.933012701892219 0.25 0.866025403784439
vertex 1 0 0.866025403784439
vertex 1.36602540378444 0 0.5
endloop
endfacet
facet normal 0.694746590606866 0.186156787897385 0.694746590606866
outer loop
vertex 0.933012701892219 0.25 0.866025403784439
vertex 1.36602540378444 0 0.5
vertex 1.25 0.43301270189222 0.5
endloop
endfacet
facet normal 0.258198889747161 0.0691841839943643 -0.96361137499428
outer loop
vertex 0.933012701892219 0.25 -0.866025403784439
vertex 1 0 -0.866025403784439
vertex 0.5 0 -1
endloop
endfacet
facet normal 0.258198889747161 0.0691841839943643 0.96361137499428
outer loop
vertex 0.5 0 1
vertex 1 0 0.866025403784439
vertex 0.933012701892219 0.25 0.866025403784439
endloop
endfacet
facet normal -0.684550319445298 -0.684550319445298 -0.250562807085731
outer loop
vertex 1.11022302462516E-16 -0.866025403784439 0
vertex -5.55111512312578E-17 -0.68301270189222 -0.5
vertex 0.0669872981077808 -0.75 -0.5
endloop
endfacet
facet normal -0.684550319445298 -0.684550319445298 0.250562807085731
outer loop
vertex 0.0669872981077808 -0.75 0.5
vertex 1.66533453693773E-16 -0.683012701892219 0.5
vertex 1.11022302462516E-16 -0.866025403784439 0
endloop
endfacet
facet normal -0.50858980270948 -0.50858980270948 -0.694746590606866
outer loop
vertex 0.25 -0.433012701892219 -0.866025403784439
vertex 0.0669872981077808 -0.75 -0.5
vertex -5.55111512312578E-17 -0.68301270189222 -0.5
endloop
endfacet
facet normal -0.50858980270948 -0.50858980270948 -0.694746590606866
outer loop
vertex 0.25 -0.433012701892219 -0.866025403784439
vertex -5.55111512312578E-17 -0.68301270189222 -0.5
vertex -5.55111512312578E-17 -0.288675134594813 -0.788675134594813
endloop
endfacet
facet normal -0.50858980270948 -0.50858980270948 -0.694746590606866
outer loop
vertex 0.25 -0.433012701892219 -0.866025403784439
vertex -5.55111512312578E-17 -0.288675134594813 -0.788675134594813
vertex 0.0669872981077805 -0.25 -0.866025403784439
endloop
endfacet
facet normal -0.50858980270948 -0.50858980270948 0.694746590606866
outer loop
vertex 0.25 -0.433012701892219 0.866025403784439
vertex 0.0669872981077805 -0.25 0.866025403784439
vertex 1.11022302462516E-16 -0.288675134594813 0.788675134594813
endloop
endfacet
facet normal -0.50858980270948 -0.50858980270948 0.694746590606866
outer loop
vertex 0.25 -0.433012701892219 0.866025403784439
vertex 1.11022302462516E-16 -0.288675134594813 0.788675134594813
vertex 1.66533453693773E-16 -0.683012701892219 0.5
endloop
endfacet
facet normal -0.50858980270948 -0.50858980270948 0.694746590606866
outer loop
vertex 0.25 -0.433012701892219 0.866025403784439
vertex 1.66533453693773E-16 -0.683012701892219 0.5
vertex 0.0669872981077808 -0.75 0.5
endloop
endfacet
facet normal -0.694746590606866 -0.186156787897385 -0.694746590606866
outer loop
vertex 1.11022302462516E-16 0 -0.866025403784439
vertex 0.0669872981077805 -0.25 -0.866025403784439
vertex -5.55111512312578E-17 -0.288675134594813 -0.788675134594813
endloop
endfacet
facet normal -0.694746590606866 -0.186156787897385 0.694746590606866
outer loop
vertex 0.0669872981077805 -0.25 0.866025403784439
vertex 1.11022302462516E-16 0 0.866025403784439
vertex 1.11022302462516E-16 -0.288675134594813 0.788675134594813
endloop
endfacet
facet normal -0.694746590606866 0.186156787897385 -0.694746590606866
outer loop
vertex 0.0669872981077805 0.25 -0.866025403784439
vertex 1.11022302462516E-16 0 -0.866025403784439
vertex -1.66533453693773E-16 0.288675134594813 -0.788675134594813
endloop
endfacet
facet normal -0.694746590606866 0.186156787897385 0.694746590606866
outer loop
vertex -2.22044604925031E-16 0.288675134594813 0.788675134594813
vertex 1.11022302462516E-16 0 0.866025403784439
vertex 0.0669872981077805 0.25 0.866025403784439
endloop
endfacet
facet normal -0.684550319445298 0.684550319445298 -0.250562807085732
outer loop
vertex 1.11022302462516E-16 0.866025403784439 0
vertex 0.0669872981077803 0.75 -0.5
vertex 8.32667268468867E-17 0.683012701892219 -0.5
endloop
endfacet
facet normal -0.684550319445298 0.684550319445298 0.250562807085732
outer loop
vertex 0.0669872981077803 0.75 0.5
vertex 1.11022302462516E-16 0.866025403784439 0
vertex 1.38777878078145E-17 0.683012701892219 0.5
endloop
endfacet
facet normal -0.508589802709481 0.50858980270948 -0.694746590606866
outer loop
vertex 0.0669872981077803 0.75 -0.5
vertex 0.25 0.433012701892219 -0.866025403784439
vertex 0.0669872981077805 0.25 -0.866025403784439
endloop
endfacet
facet normal -0.508589802709481 0.50858980270948 -0.694746590606866
outer loop
vertex 0.0669872981077803 0.75 -0.5
vertex 0.0669872981077805 0.25 -0.866025403784439
vertex -1.66533453693773E-16 0.288675134594813 -0.788675134594813
endloop
endfacet
facet normal -0.508589802709481 0.50858980270948 -0.694746590606866
outer loop
vertex 0.0669872981077803 0.75 -0.5
vertex -1.66533453693773E-16 0.288675134594813 -0.788675134594813
vertex 8.32667268468867E-17 0.683012701892219 -0.5
endloop
endfacet
facet normal -0.508589802709481 0.50858980270948 0.694746590606866
outer loop
vertex 0.0669872981077803 0.75 0.5
vertex 1.38777878078145E-17 0.683012701892219 0.5
vertex -2.22044604925031E-16 0.288675134594813 0.788675134594813
endloop
endfacet
facet normal -0.508589802709481 0.50858980270948 0.694746590606866
outer loop
vertex 0.0669872981077803 0.75 0.5
vertex -2.22044604925031E-16 0.288675134594813 0.788675134594813
vertex 0.0669872981077805 0.25 0.866025403784439
endloop
endfacet
facet normal -0.508589802709481 0.50858980270948 0.694746590606866
outer loop
vertex 0.0669872981077803 0.75 0.5
vertex 0.0669872981077805 0.25 0.866025403784439
vertex 0.25 0.433012701892219 0.866025403784439
endloop
endfacet
endsolid UnitSphere_UnitSphere
