solid UnitSphere_NoOverlap_UnitSphere
facet normal 0.93511312653103 -0.250562807085727 -0.250562807085736
outer loop
vertex -49 0 0
vertex -49.1339745962156 -0.5 0
vertex -49.25 -0.433012701892219 -0.5
endloop
endfacet
facet normal 0.93511312653103 -0.250562807085727 -0.250562807085736
outer loop
vertex -49 0 0
vertex -49.25 -0.433012701892219 -0.5
vertex -49.1339745962156 0 -0.5
endloop
endfacet
facet normal 0.935113126531027 -0.250562807085736 0.250562807085736
outer loop
vertex -49.1339745962156 0 0.5
vertex -49.25 -0.433012701892219 0.5
vertex -49.1339745962156 -0.5 0
endloop
endfacet
facet normal 0.935113126531027 -0.250562807085736 0.250562807085736
outer loop
vertex -49.1339745962156 0 0.5
vertex -49.1339745962156 -0.5 0
vertex -49 0 0
endloop
endfacet
facet normal 0.694746590606862 -0.186156787897388 -0.694746590606869
outer loop
vertex -49.1339745962156 0 -0.5
vertex -49.25 -0.433012701892219 -0.5
vertex -49.5669872981078 -0.25 -0.866025403784439
endloop
endfacet
facet normal 0.694746590606862 -0.186156787897388 -0.694746590606869
outer loop
vertex -49.1339745962156 0 -0.5
vertex -49.5669872981078 -0.25 -0.866025403784439
vertex -49.5 0 -0.866025403784439
endloop
endfacet
facet normal 0.694746590606861 -0.186156787897391 0.694746590606869
outer loop
vertex -49.5 0 0.866025403784439
vertex -49.5669872981078 -0.25 0.866025403784439
vertex -49.25 -0.433012701892219 0.5
endloop
endfacet
facet normal 0.694746590606861 -0.186156787897391 0.694746590606869
outer loop
vertex -49.5 0 0.866025403784439
vertex -49.25 -0.433012701892219 0.5
vertex -49.1339745962156 0 0.5
endloop
endfacet
facet normal 0.258198889747161 -0.0691841839943668 -0.96361137499428
outer loop
vertex -49.5 0 -0.866025403784439
vertex -49.5669872981078 -0.25 -0.866025403784439
vertex -50 0 -1
endloop
endfacet
facet normal 0.258198889747161 -0.0691841839943668 0.96361137499428
outer loop
vertex -50 0 1
vertex -49.5669872981078 -0.25 0.866025403784439
vertex -49.5 0 0.866025403784439
endloop
endfacet
facet normal 0.684550319445295 -0.6845503194453 -0.250562807085735
outer loop
vertex -49.1339745962156 -0.5 0
vertex -49.5 -0.866025403784439 0
vertex -49.5669872981078 -0.75 -0.5
endloop
endfacet
facet normal 0.684550319445295 -0.6845503194453 -0.250562807085735
outer loop
vertex -49.1339745962156 -0.5 0
vertex -49.5669872981078 -0.75 -0.5
vertex -49.25 -0.433012701892219 -0.5
endloop
endfacet
facet normal 0.684550319445295 -0.6845503194453 0.250562807085735
outer loop
vertex -49.25 -0.433012701892219 0.5
vertex -49.5669872981078 -0.75 0.5
vertex -49.5 -0.866025403784439 0
endloop
endfacet
facet normal 0.684550319445295 -0.6845503194453 0.250562807085735
outer loop
vertex -49.25 -0.433012701892219 0.5
vertex -49.5 -0.866025403784439 0
vertex -49.1339745962156 -0.5 0
endloop
endfacet
facet normal 0.508589802709479 -0.508589802709483 -0.694746590606864
outer loop
vertex -49.25 -0.433012701892219 -0.5
vertex -49.5669872981078 -0.75 -0.5
vertex -49.75 -0.433012701892219 -0.866025403784439
endloop
endfacet
facet normal 0.508589802709479 -0.508589802709483 -0.694746590606864
outer loop
vertex -49.25 -0.433012701892219 -0.5
vertex -49.75 -0.433012701892219 -0.866025403784439
vertex -49.5669872981078 -0.25 -0.866025403784439
endloop
endfacet
facet normal 0.508589802709485 -0.508589802709478 0.694746590606863
outer loop
vertex -49.5669872981078 -0.25 0.866025403784439
vertex -49.75 -0.433012701892219 0.866025403784439
vertex -49.5669872981078 -0.75 0.5
endloop
endfacet
facet normal 0.508589802709485 -0.508589802709478 0.694746590606863
outer loop
vertex -49.5669872981078 -0.25 0.866025403784439
vertex -49.5669872981078 -0.75 0.5
vertex -49.25 -0.433012701892219 0.5
endloop
endfacet
facet normal 0.189014705752798 -0.189014705752796 -0.96361137499428
outer loop
vertex -49.5669872981078 -0.25 -0.866025403784439
vertex -49.75 -0.433012701892219 -0.866025403784439
vertex -50 0 -1
endloop
endfacet
facet normal 0.189014705752798 -0.189014705752796 0.96361137499428
outer loop
vertex -50 0 1
vertex -49.75 -0.433012701892219 0.866025403784439
vertex -49.5669872981078 -0.25 0.866025403784439
endloop
endfacet
facet normal 0.250562807085732 -0.935113126531029 -0.250562807085731
outer loop
vertex -49.5 -0.866025403784439 0
vertex -50 -1 0
vertex -50 -0.866025403784439 -0.5
endloop
endfacet
facet normal 0.250562807085732 -0.935113126531029 -0.250562807085731
outer loop
vertex -49.5 -0.866025403784439 0
vertex -50 -0.866025403784439 -0.5
vertex -49.5669872981078 -0.75 -0.5
endloop
endfacet
facet normal 0.250562807085733 -0.935113126531029 0.250562807085731
outer loop
vertex -49.5669872981078 -0.75 0.5
vertex -50 -0.866025403784439 0.5
vertex -50 -1 0
endloop
endfacet
facet normal 0.250562807085733 -0.935113126531029 0.250562807085731
outer loop
vertex -49.5669872981078 -0.75 0.5
vertex -50 -1 0
vertex -49.5 -0.866025403784439 0
endloop
endfacet
facet normal 0.186156787897387 -0.694746590606866 -0.694746590606866
outer loop
vertex -49.5669872981078 -0.75 -0.5
vertex -50 -0.866025403784439 -0.5
vertex -50 -0.5 -0.866025403784439
endloop
endfacet
facet normal 0.186156787897387 -0.694746590606866 -0.694746590606866
outer loop
vertex -49.5669872981078 -0.75 -0.5
vertex -50 -0.5 -0.866025403784439
vertex -49.75 -0.433012701892219 -0.866025403784439
endloop
endfacet
facet normal 0.186156787897386 -0.694746590606866 0.694746590606866
outer loop
vertex -49.75 -0.433012701892219 0.866025403784439
vertex -50 -0.5 0.866025403784439
vertex -50 -0.866025403784439 0.5
endloop
endfacet
facet normal 0.186156787897386 -0.694746590606866 0.694746590606866
outer loop
vertex -49.75 -0.433012701892219 0.866025403784439
vertex -50 -0.866025403784439 0.5
vertex -49.5669872981078 -0.75 0.5
endloop
endfacet
facet normal 0.0691841839943644 -0.258198889747161 -0.96361137499428
outer loop
vertex -49.75 -0.433012701892219 -0.866025403784439
vertex -50 -0.5 -0.866025403784439
vertex -50 0 -1
endloop
endfacet
facet normal 0.0691841839943644 -0.258198889747161 0.96361137499428
outer loop
vertex -50 0 1
vertex -50 -0.5 0.866025403784439
vertex -49.75 -0.433012701892219 0.866025403784439
endloop
endfacet
facet normal -0.250562807085731 -0.935113126531029 -0.250562807085733
outer loop
vertex -50 -1 0
vertex -50.5 -0.866025403784439 0
vertex -50.4330127018922 -0.75 -0.5
endloop
endfacet
facet normal -0.250562807085731 -0.935113126531029 -0.250562807085733
outer loop
vertex -50 -1 0
vertex -50.4330127018922 -0.75 -0.5
vertex -50 -0.866025403784439 -0.5
endloop
endfacet
facet normal -0.250562807085733 -0.935113126531029 0.250562807085733
outer loop
vertex -50 -0.866025403784439 0.5
vertex -50.4330127018922 -0.75 0.5
vertex -50.5 -0.866025403784439 0
endloop
endfacet
facet normal -0.250562807085733 -0.935113126531029 0.250562807085733
outer loop
vertex -50 -0.866025403784439 0.5
vertex -50.5 -0.866025403784439 0
vertex -50 -1 0
endloop
endfacet
facet normal -0.186156787897386 -0.694746590606866 -0.694746590606865
outer loop
vertex -50 -0.866025403784439 -0.5
vertex -50.4330127018922 -0.75 -0.5
vertex -50.25 -0.433012701892219 -0.866025403784439
endloop
endfacet
facet normal -0.186156787897386 -0.694746590606866 -0.694746590606865
outer loop
vertex -50 -0.866025403784439 -0.5
vertex -50.25 -0.433012701892219 -0.866025403784439
vertex -50 -0.5 -0.866025403784439
endloop
endfacet
facet normal -0.186156787897386 -0.694746590606866 0.694746590606865
outer loop
vertex -50 -0.5 0.866025403784439
vertex -50.25 -0.433012701892219 0.866025403784439
vertex -50.4330127018922 -0.75 0.5
endloop
endfacet
facet normal -0.186156787897386 -0.694746590606866 0.694746590606865
outer loop
vertex -50 -0.5 0.866025403784439
vertex -50.4330127018922 -0.75 0.5
vertex -50 -0.866025403784439 0.5
endloop
endfacet
facet normal -0.0691841839943643 -0.258198889747161 -0.96361137499428
outer loop
vertex -50 -0.5 -0.866025403784439
vertex -50.25 -0.433012701892219 -0.866025403784439
vertex -50 0 -1
endloop
endfacet
facet normal -0.0691841839943643 -0.258198889747161 0.96361137499428
outer loop
vertex -50 0 1
vertex -50.25 -0.433012701892219 0.866025403784439
vertex -50 -0.5 0.866025403784439
endloop
endfacet
facet normal -0.684550319445295 -0.684550319445299 -0.250562807085734
outer loop
vertex -50.5 -0.866025403784439 0
vertex -50.8660254037844 -0.5 0
vertex -50.75 -0.433012701892219 -0.5
endloop
endfacet
facet normal -0.684550319445295 -0.684550319445299 -0.250562807085734
outer loop
vertex -50.5 -0.866025403784439 0
vertex -50.75 -0.433012701892219 -0.5
vertex -50.4330127018922 -0.75 -0.5
endloop
endfacet
facet normal -0.684550319445295 -0.6845503194453 0.250562807085734
outer loop
vertex -50.4330127018922 -0.75 0.5
vertex -50.75 -0.433012701892219 0.5
vertex -50.8660254037844 -0.5 0
endloop
endfacet
facet normal -0.684550319445295 -0.6845503194453 0.250562807085734
outer loop
vertex -50.4330127018922 -0.75 0.5
vertex -50.8660254037844 -0.5 0
vertex -50.5 -0.866025403784439 0
endloop
endfacet
facet normal -0.508589802709478 -0.508589802709481 -0.694746590606867
outer loop
vertex -50.4330127018922 -0.75 -0.5
vertex -50.75 -0.433012701892219 -0.5
vertex -50.4330127018922 -0.25 -0.866025403784439
endloop
endfacet
facet normal -0.508589802709478 -0.508589802709481 -0.694746590606867
outer loop
vertex -50.4330127018922 -0.75 -0.5
vertex -50.4330127018922 -0.25 -0.866025403784439
vertex -50.25 -0.433012701892219 -0.866025403784439
endloop
endfacet
facet normal -0.508589802709482 -0.508589802709475 0.694746590606868
outer loop
vertex -50.25 -0.433012701892219 0.866025403784439
vertex -50.4330127018922 -0.25 0.866025403784439
vertex -50.75 -0.433012701892219 0.5
endloop
endfacet
facet normal -0.508589802709482 -0.508589802709475 0.694746590606868
outer loop
vertex -50.25 -0.433012701892219 0.866025403784439
vertex -50.75 -0.433012701892219 0.5
vertex -50.4330127018922 -0.75 0.5
endloop
endfacet
facet normal -0.189014705752798 -0.189014705752796 -0.96361137499428
outer loop
vertex -50.25 -0.433012701892219 -0.866025403784439
vertex -50.4330127018922 -0.25 -0.866025403784439
vertex -50 0 -1
endloop
endfacet
facet normal -0.189014705752798 -0.189014705752796 0.96361137499428
outer loop
vertex -50 0 1
vertex -50.4330127018922 -0.25 0.866025403784439
vertex -50.25 -0.433012701892219 0.866025403784439
endloop
endfacet
facet normal -0.935113126531032 -0.250562807085728 -0.250562807085728
outer loop
vertex -50.8660254037844 -0.5 0
vertex -51 -1.22460635382238E-16 0
vertex -50.8660254037844 -1.06054021204601E-16 -0.5
endloop
endfacet
facet normal -0.935113126531032 -0.250562807085728 -0.250562807085728
outer loop
vertex -50.8660254037844 -0.5 0
vertex -50.8660254037844 -1.06054021204601E-16 -0.5
vertex -50.75 -0.433012701892219 -0.5
endloop
endfacet
facet normal -0.935113126531029 -0.250562807085737 0.250562807085727
outer loop
vertex -50.75 -0.433012701892219 0.5
vertex -50.8660254037844 -1.06054021204601E-16 0.5
vertex -51 -1.22460635382238E-16 0
endloop
endfacet
facet normal -0.935113126531029 -0.250562807085737 0.250562807085727
outer loop
vertex -50.75 -0.433012701892219 0.5
vertex -51 -1.22460635382238E-16 0
vertex -50.8660254037844 -0.5 0
endloop
endfacet
facet normal -0.694746590606863 -0.186156787897389 -0.694746590606868
outer loop
vertex -50.75 -0.433012701892219 -0.5
vertex -50.8660254037844 -1.06054021204601E-16 -0.5
vertex -50.5 -6.12303176911189E-17 -0.866025403784439
endloop
endfacet
facet normal -0.694746590606863 -0.186156787897389 -0.694746590606868
outer loop
vertex -50.75 -0.433012701892219 -0.5
vertex -50.5 -6.12303176911189E-17 -0.866025403784439
vertex -50.4330127018922 -0.25 -0.866025403784439
endloop
endfacet
facet normal -0.694746590606863 -0.186156787897391 0.694746590606867
outer loop
vertex -50.4330127018922 -0.25 0.866025403784439
vertex -50.5 -6.12303176911189E-17 0.866025403784439
vertex -50.8660254037844 -1.06054021204601E-16 0.5
endloop
endfacet
facet normal -0.694746590606863 -0.186156787897391 0.694746590606867
outer loop
vertex -50.4330127018922 -0.25 0.866025403784439
vertex -50.8660254037844 -1.06054021204601E-16 0.5
vertex -50.75 -0.433012701892219 0.5
endloop
endfacet
facet normal -0.258198889747161 -0.0691841839943668 -0.96361137499428
outer loop
vertex -50.4330127018922 -0.25 -0.866025403784439
vertex -50.5 -6.12303176911189E-17 -0.866025403784439
vertex -50 0 -1
endloop
endfacet
facet normal -0.258198889747161 -0.0691841839943668 0.96361137499428
outer loop
vertex -50 0 1
vertex -50.5 -6.12303176911189E-17 0.866025403784439
vertex -50.4330127018922 -0.25 0.866025403784439
endloop
endfacet
facet normal -0.935113126531029 0.250562807085727 -0.250562807085735
outer loop
vertex -51 -1.22460635382238E-16 0
vertex -50.8660254037844 0.5 0
vertex -50.75 0.433012701892219 -0.5
endloop
endfacet
facet normal -0.935113126531029 0.250562807085727 -0.250562807085735
outer loop
vertex -51 -1.22460635382238E-16 0
vertex -50.75 0.433012701892219 -0.5
vertex -50.8660254037844 -1.06054021204601E-16 -0.5
endloop
endfacet
facet normal -0.935113126531027 0.250562807085736 0.250562807085736
outer loop
vertex -50.8660254037844 -1.06054021204601E-16 0.5
vertex -50.75 0.433012701892219 0.5
vertex -50.8660254037844 0.5 0
endloop
endfacet
facet normal -0.935113126531027 0.250562807085736 0.250562807085736
outer loop
vertex -50.8660254037844 -1.06054021204601E-16 0.5
vertex -50.8660254037844 0.5 0
vertex -51 -1.22460635382238E-16 0
endloop
endfacet
facet normal -0.694746590606862 0.186156787897388 -0.694746590606869
outer loop
vertex -50.8660254037844 -1.06054021204601E-16 -0.5
vertex -50.75 0.433012701892219 -0.5
vertex -50.4330127018922 0.25 -0.866025403784439
endloop
endfacet
facet normal -0.694746590606862 0.186156787897388 -0.694746590606869
outer loop
vertex -50.8660254037844 -1.06054021204601E-16 -0.5
vertex -50.4330127018922 0.25 -0.866025403784439
vertex -50.5 -6.12303176911189E-17 -0.866025403784439
endloop
endfacet
facet normal -0.694746590606861 0.186156787897391 0.694746590606869
outer loop
vertex -50.5 -6.12303176911189E-17 0.866025403784439
vertex -50.4330127018922 0.25 0.866025403784439
vertex -50.75 0.433012701892219 0.5
endloop
endfacet
facet normal -0.694746590606861 0.186156787897391 0.694746590606869
outer loop
vertex -50.5 -6.12303176911189E-17 0.866025403784439
vertex -50.75 0.433012701892219 0.5
vertex -50.8660254037844 -1.06054021204601E-16 0.5
endloop
endfacet
facet normal -0.258198889747161 0.0691841839943668 -0.96361137499428
outer loop
vertex -50.5 -6.12303176911189E-17 -0.866025403784439
vertex -50.4330127018922 0.25 -0.866025403784439
vertex -50 0 -1
endloop
endfacet
facet normal -0.258198889747161 0.0691841839943668 0.96361137499428
outer loop
vertex -50 0 1
vertex -50.4330127018922 0.25 0.866025403784439
vertex -50.5 -6.12303176911189E-17 0.866025403784439
endloop
endfacet
facet normal -0.684550319445295 0.6845503194453 -0.250562807085735
outer loop
vertex -50.8660254037844 0.5 0
vertex -50.5 0.866025403784438 0
vertex -50.4330127018922 0.75 -0.5
endloop
endfacet
facet normal -0.684550319445295 0.6845503194453 -0.250562807085735
outer loop
vertex -50.8660254037844 0.5 0
vertex -50.4330127018922 0.75 -0.5
vertex -50.75 0.433012701892219 -0.5
endloop
endfacet
facet normal -0.684550319445295 0.6845503194453 0.250562807085735
outer loop
vertex -50.75 0.433012701892219 0.5
vertex -50.4330127018922 0.75 0.5
vertex -50.5 0.866025403784438 0
endloop
endfacet
facet normal -0.684550319445295 0.6845503194453 0.250562807085735
outer loop
vertex -50.75 0.433012701892219 0.5
vertex -50.5 0.866025403784438 0
vertex -50.8660254037844 0.5 0
endloop
endfacet
facet normal -0.508589802709479 0.508589802709483 -0.694746590606864
outer loop
vertex -50.75 0.433012701892219 -0.5
vertex -50.4330127018922 0.75 -0.5
vertex -50.25 0.433012701892219 -0.866025403784439
endloop
endfacet
facet normal -0.508589802709479 0.508589802709483 -0.694746590606864
outer loop
vertex -50.75 0.433012701892219 -0.5
vertex -50.25 0.433012701892219 -0.866025403784439
vertex -50.4330127018922 0.25 -0.866025403784439
endloop
endfacet
facet normal -0.508589802709485 0.508589802709479 0.694746590606863
outer loop
vertex -50.4330127018922 0.25 0.866025403784439
vertex -50.25 0.433012701892219 0.866025403784439
vertex -50.4330127018922 0.75 0.5
endloop
endfacet
facet normal -0.508589802709485 0.508589802709479 0.694746590606863
outer loop
vertex -50.4330127018922 0.25 0.866025403784439
vertex -50.4330127018922 0.75 0.5
vertex -50.75 0.433012701892219 0.5
endloop
endfacet
facet normal -0.189014705752798 0.189014705752796 -0.96361137499428
outer loop
vertex -50.4330127018922 0.25 -0.866025403784439
vertex -50.25 0.433012701892219 -0.866025403784439
vertex -50 0 -1
endloop
endfacet
facet normal -0.189014705752798 0.189014705752796 0.96361137499428
outer loop
vertex -50 0 1
vertex -50.25 0.433012701892219 0.866025403784439
vertex -50.4330127018922 0.25 0.866025403784439
endloop
endfacet
facet normal -0.250562807085732 0.935113126531029 -0.250562807085731
outer loop
vertex -50.5 0.866025403784438 0
vertex -50 1 0
vertex -50 0.866025403784439 -0.5
endloop
endfacet
facet normal -0.250562807085732 0.935113126531029 -0.250562807085731
outer loop
vertex -50.5 0.866025403784438 0
vertex -50 0.866025403784439 -0.5
vertex -50.4330127018922 0.75 -0.5
endloop
endfacet
facet normal -0.250562807085733 0.935113126531029 0.250562807085731
outer loop
vertex -50.4330127018922 0.75 0.5
vertex -50 0.866025403784439 0.5
vertex -50 1 0
endloop
endfacet
facet normal -0.250562807085733 0.935113126531029 0.250562807085731
outer loop
vertex -50.4330127018922 0.75 0.5
vertex -50 1 0
vertex -50.5 0.866025403784438 0
endloop
endfacet
facet normal -0.186156787897387 0.694746590606866 -0.694746590606866
outer loop
vertex -50.4330127018922 0.75 -0.5
vertex -50 0.866025403784439 -0.5
vertex -50 0.5 -0.866025403784439
endloop
endfacet
facet normal -0.186156787897387 0.694746590606866 -0.694746590606866
outer loop
vertex -50.4330127018922 0.75 -0.5
vertex -50 0.5 -0.866025403784439
vertex -50.25 0.433012701892219 -0.866025403784439
endloop
endfacet
facet normal -0.186156787897386 0.694746590606866 0.694746590606866
outer loop
vertex -50.25 0.433012701892219 0.866025403784439
vertex -50 0.5 0.866025403784439
vertex -50 0.866025403784439 0.5
endloop
endfacet
facet normal -0.186156787897386 0.694746590606866 0.694746590606866
outer loop
vertex -50.25 0.433012701892219 0.866025403784439
vertex -50 0.866025403784439 0.5
vertex -50.4330127018922 0.75 0.5
endloop
endfacet
facet normal -0.0691841839943645 0.258198889747161 -0.96361137499428
outer loop
vertex -50.25 0.433012701892219 -0.866025403784439
vertex -50 0.5 -0.866025403784439
vertex -50 0 -1
endloop
endfacet
facet normal -0.0691841839943645 0.258198889747161 0.96361137499428
outer loop
vertex -50 0 1
vertex -50 0.5 0.866025403784439
vertex -50.25 0.433012701892219 0.866025403784439
endloop
endfacet
facet normal 0.250562807085732 0.935113126531029 -0.250562807085733
outer loop
vertex -50 1 0
vertex -49.5 0.866025403784439 0
vertex -49.5669872981078 0.75 -0.5
endloop
endfacet
facet normal 0.250562807085732 0.935113126531029 -0.250562807085733
outer loop
vertex -50 1 0
vertex -49.5669872981078 0.75 -0.5
vertex -50 0.866025403784439 -0.5
endloop
endfacet
facet normal 0.250562807085733 0.935113126531029 0.250562807085733
outer loop
vertex -50 0.866025403784439 0.5
vertex -49.5669872981078 0.75 0.5
vertex -49.5 0.866025403784439 0
endloop
endfacet
facet normal 0.250562807085733 0.935113126531029 0.250562807085733
outer loop
vertex -50 0.866025403784439 0.5
vertex -49.5 0.866025403784439 0
vertex -50 1 0
endloop
endfacet
facet normal 0.186156787897387 0.694746590606866 -0.694746590606865
outer loop
vertex -50 0.866025403784439 -0.5
vertex -49.5669872981078 0.75 -0.5
vertex -49.75 0.433012701892219 -0.866025403784439
endloop
endfacet
facet normal 0.186156787897387 0.694746590606866 -0.694746590606865
outer loop
vertex -50 0.866025403784439 -0.5
vertex -49.75 0.433012701892219 -0.866025403784439
vertex -50 0.5 -0.866025403784439
endloop
endfacet
facet normal 0.186156787897386 0.694746590606866 0.694746590606865
outer loop
vertex -50 0.5 0.866025403784439
vertex -49.75 0.433012701892219 0.866025403784439
vertex -49.5669872981078 0.75 0.5
endloop
endfacet
facet normal 0.186156787897386 0.694746590606866 0.694746590606865
outer loop
vertex -50 0.5 0.866025403784439
vertex -49.5669872981078 0.75 0.5
vertex -50 0.866025403784439 0.5
endloop
endfacet
facet normal 0.0691841839943644 0.258198889747161 -0.96361137499428
outer loop
vertex -50 0.5 -0.866025403784439
vertex -49.75 0.433012701892219 -0.866025403784439
vertex -50 0 -1
endloop
endfacet
facet normal 0.0691841839943643 0.258198889747161 0.96361137499428
outer loop
vertex -50 0 1
vertex -49.75 0.433012701892219 0.866025403784439
vertex -50 0.5 0.866025403784439
endloop
endfacet
facet normal 0.684550319445295 0.6845503194453 -0.250562807085735
outer loop
vertex -49.5 0.866025403784439 0
vertex -49.1339745962156 0.5 0
vertex -49.25 0.43301270189222 -0.5
endloop
endfacet
facet normal 0.684550319445295 0.6845503194453 -0.250562807085735
outer loop
vertex -49.5 0.866025403784439 0
vertex -49.25 0.43301270189222 -0.5
vertex -49.5669872981078 0.75 -0.5
endloop
endfacet
facet normal 0.684550319445294 0.6845503194453 0.250562807085734
outer loop
vertex -49.5669872981078 0.75 0.5
vertex -49.25 0.43301270189222 0.5
vertex -49.1339745962156 0.5 0
endloop
endfacet
facet normal 0.684550319445294 0.6845503194453 0.250562807085734
outer loop
vertex -49.5669872981078 0.75 0.5
vertex -49.1339745962156 0.5 0
vertex -49.5 0.866025403784439 0
endloop
endfacet
facet normal 0.508589802709477 0.508589802709482 -0.694746590606867
outer loop
vertex -49.5669872981078 0.75 -0.5
vertex -49.25 0.43301270189222 -0.5
vertex -49.5669872981078 0.25 -0.866025403784439
endloop
endfacet
facet normal 0.508589802709477 0.508589802709482 -0.694746590606867
outer loop
vertex -49.5669872981078 0.75 -0.5
vertex -49.5669872981078 0.25 -0.866025403784439
vertex -49.75 0.433012701892219 -0.866025403784439
endloop
endfacet
facet normal 0.508589802709482 0.508589802709476 0.694746590606868
outer loop
vertex -49.75 0.433012701892219 0.866025403784439
vertex -49.5669872981078 0.25 0.866025403784439
vertex -49.25 0.43301270189222 0.5
endloop
endfacet
facet normal 0.508589802709482 0.508589802709476 0.694746590606868
outer loop
vertex -49.75 0.433012701892219 0.866025403784439
vertex -49.25 0.43301270189222 0.5
vertex -49.5669872981078 0.75 0.5
endloop
endfacet
facet normal 0.189014705752798 0.189014705752796 -0.96361137499428
outer loop
vertex -49.75 0.433012701892219 -0.866025403784439
vertex -49.5669872981078 0.25 -0.866025403784439
vertex -50 0 -1
endloop
endfacet
facet normal 0.189014705752798 0.189014705752796 0.96361137499428
outer loop
vertex -50 0 1
vertex -49.5669872981078 0.25 0.866025403784439
vertex -49.75 0.433012701892219 0.866025403784439
endloop
endfacet
facet normal 0.935113126531032 0.250562807085728 -0.250562807085728
outer loop
vertex -49.1339745962156 0.5 0
vertex -49 0 0
vertex -49.1339745962156 0 -0.5
endloop
endfacet
facet normal 0.935113126531032 0.250562807085728 -0.250562807085728
outer loop
vertex -49.1339745962156 0.5 0
vertex -49.1339745962156 0 -0.5
vertex -49.25 0.43301270189222 -0.5
endloop
endfacet
facet normal 0.935113126531029 0.250562807085737 0.250562807085727
outer loop
vertex -49.25 0.43301270189222 0.5
vertex -49.1339745962156 0 0.5
vertex -49 0 0
endloop
endfacet
facet normal 0.935113126531029 0.250562807085737 0.250562807085727
outer loop
vertex -49.25 0.43301270189222 0.5
vertex -49 0 0
vertex -49.1339745962156 0.5 0
endloop
endfacet
facet normal 0.694746590606863 0.186156787897389 -0.694746590606868
outer loop
vertex -49.25 0.43301270189222 -0.5
vertex -49.1339745962156 0 -0.5
vertex -49.5 0 -0.866025403784439
endloop
endfacet
facet normal 0.694746590606863 0.186156787897389 -0.694746590606868
outer loop
vertex -49.25 0.43301270189222 -0.5
vertex -49.5 0 -0.866025403784439
vertex -49.5669872981078 0.25 -0.866025403784439
endloop
endfacet
facet normal 0.694746590606863 0.186156787897391 0.694746590606867
outer loop
vertex -49.5669872981078 0.25 0.866025403784439
vertex -49.5 0 0.866025403784439
vertex -49.1339745962156 0 0.5
endloop
endfacet
facet normal 0.694746590606863 0.186156787897391 0.694746590606867
outer loop
vertex -49.5669872981078 0.25 0.866025403784439
vertex -49.1339745962156 0 0.5
vertex -49.25 0.43301270189222 0.5
endloop
endfacet
facet normal 0.258198889747161 0.0691841839943667 -0.96361137499428
outer loop
vertex -49.5669872981078 0.25 -0.866025403784439
vertex -49.5 0 -0.866025403784439
vertex -50 0 -1
endloop
endfacet
facet normal 0.258198889747161 0.0691841839943667 0.96361137499428
outer loop
vertex -50 0 1
vertex -49.5 0 0.866025403784439
vertex -49.5669872981078 0.25 0.866025403784439
endloop
endfacet
facet normal 0.93511312653103 -0.250562807085727 -0.250562807085736
outer loop
vertex 51 0 0
vertex 50.8660254037844 -0.5 0
vertex 50.75 -0.433012701892219 -0.5
endloop
endfacet
facet normal 0.93511312653103 -0.250562807085727 -0.250562807085736
outer loop
vertex 51 0 0
vertex 50.75 -0.433012701892219 -0.5
vertex 50.8660254037844 0 -0.5
endloop
endfacet
facet normal 0.935113126531027 -0.250562807085736 0.250562807085736
outer loop
vertex 50.8660254037844 0 0.5
vertex 50.75 -0.433012701892219 0.5
vertex 50.8660254037844 -0.5 0
endloop
endfacet
facet normal 0.935113126531027 -0.250562807085736 0.250562807085736
outer loop
vertex 50.8660254037844 0 0.5
vertex 50.8660254037844 -0.5 0
vertex 51 0 0
endloop
endfacet
facet normal 0.694746590606862 -0.186156787897388 -0.694746590606869
outer loop
vertex 50.8660254037844 0 -0.5
vertex 50.75 -0.433012701892219 -0.5
vertex 50.4330127018922 -0.25 -0.866025403784439
endloop
endfacet
facet normal 0.694746590606862 -0.186156787897388 -0.694746590606869
outer loop
vertex 50.8660254037844 0 -0.5
vertex 50.4330127018922 -0.25 -0.866025403784439
vertex 50.5 0 -0.866025403784439
endloop
endfacet
facet normal 0.694746590606861 -0.186156787897391 0.694746590606869
outer loop
vertex 50.5 0 0.866025403784439
vertex 50.4330127018922 -0.25 0.866025403784439
vertex 50.75 -0.433012701892219 0.5
endloop
endfacet
facet normal 0.694746590606861 -0.186156787897391 0.694746590606869
outer loop
vertex 50.5 0 0.866025403784439
vertex 50.75 -0.433012701892219 0.5
vertex 50.8660254037844 0 0.5
endloop
endfacet
facet normal 0.258198889747161 -0.0691841839943668 -0.96361137499428
outer loop
vertex 50.5 0 -0.866025403784439
vertex 50.4330127018922 -0.25 -0.866025403784439
vertex 50 0 -1
endloop
endfacet
facet normal 0.258198889747161 -0.0691841839943668 0.96361137499428
outer loop
vertex 50 0 1
vertex 50.4330127018922 -0.25 0.866025403784439
vertex 50.5 0 0.866025403784439
endloop
endfacet
facet normal 0.684550319445295 -0.6845503194453 -0.250562807085735
outer loop
vertex 50.8660254037844 -0.5 0
vertex 50.5 -0.866025403784439 0
vertex 50.4330127018922 -0.75 -0.5
endloop
endfacet
facet normal 0.684550319445295 -0.6845503194453 -0.250562807085735
outer loop
vertex 50.8660254037844 -0.5 0
vertex 50.4330127018922 -0.75 -0.5
vertex 50.75 -0.433012701892219 -0.5
endloop
endfacet
facet normal 0.684550319445295 -0.6845503194453 0.250562807085735
outer loop
vertex 50.75 -0.433012701892219 0.5
vertex 50.4330127018922 -0.75 0.5
vertex 50.5 -0.866025403784439 0
endloop
endfacet
facet normal 0.684550319445295 -0.6845503194453 0.250562807085735
outer loop
vertex 50.75 -0.433012701892219 0.5
vertex 50.5 -0.866025403784439 0
vertex 50.8660254037844 -0.5 0
endloop
endfacet
facet normal 0.508589802709479 -0.508589802709483 -0.694746590606864
outer loop
vertex 50.75 -0.433012701892219 -0.5
vertex 50.4330127018922 -0.75 -0.5
vertex 50.25 -0.433012701892219 -0.866025403784439
endloop
endfacet
facet normal 0.508589802709479 -0.508589802709483 -0.694746590606864
outer loop
vertex 50.75 -0.433012701892219 -0.5
vertex 50.25 -0.433012701892219 -0.866025403784439
vertex 50.4330127018922 -0.25 -0.866025403784439
endloop
endfacet
facet normal 0.508589802709485 -0.508589802709478 0.694746590606863
outer loop
vertex 50.4330127018922 -0.25 0.866025403784439
vertex 50.25 -0.433012701892219 0.866025403784439
vertex 50.4330127018922 -0.75 0.5
endloop
endfacet
facet normal 0.508589802709485 -0.508589802709478 0.694746590606863
outer loop
vertex 50.4330127018922 -0.25 0.866025403784439
vertex 50.4330127018922 -0.75 0.5
vertex 50.75 -0.433012701892219 0.5
endloop
endfacet
facet normal 0.189014705752798 -0.189014705752796 -0.96361137499428
outer loop
vertex 50.4330127018922 -0.25 -0.866025403784439
vertex 50.25 -0.433012701892219 -0.866025403784439
vertex 50 0 -1
endloop
endfacet
facet normal 0.189014705752798 -0.189014705752796 0.96361137499428
outer loop
vertex 50 0 1
vertex 50.25 -0.433012701892219 0.866025403784439
vertex 50.4330127018922 -0.25 0.866025403784439
endloop
endfacet
facet normal 0.250562807085732 -0.935113126531029 -0.250562807085731
outer loop
vertex 50.5 -0.866025403784439 0
vertex 50 -1 0
vertex 50 -0.866025403784439 -0.5
endloop
endfacet
facet normal 0.250562807085732 -0.935113126531029 -0.250562807085731
outer loop
vertex 50.5 -0.866025403784439 0
vertex 50 -0.866025403784439 -0.5
vertex 50.4330127018922 -0.75 -0.5
endloop
endfacet
facet normal 0.250562807085733 -0.935113126531029 0.250562807085731
outer loop
vertex 50.4330127018922 -0.75 0.5
vertex 50 -0.866025403784439 0.5
vertex 50 -1 0
endloop
endfacet
facet normal 0.250562807085733 -0.935113126531029 0.250562807085731
outer loop
vertex 50.4330127018922 -0.75 0.5
vertex 50 -1 0
vertex 50.5 -0.866025403784439 0
endloop
endfacet
facet normal 0.186156787897387 -0.694746590606866 -0.694746590606866
outer loop
vertex 50.4330127018922 -0.75 -0.5
vertex 50 -0.866025403784439 -0.5
vertex 50 -0.5 -0.866025403784439
endloop
endfacet
facet normal 0.186156787897387 -0.694746590606866 -0.694746590606866
outer loop
vertex 50.4330127018922 -0.75 -0.5
vertex 50 -0.5 -0.866025403784439
vertex 50.25 -0.433012701892219 -0.866025403784439
endloop
endfacet
facet normal 0.186156787897386 -0.694746590606866 0.694746590606866
outer loop
vertex 50.25 -0.433012701892219 0.866025403784439
vertex 50 -0.5 0.866025403784439
vertex 50 -0.866025403784439 0.5
endloop
endfacet
facet normal 0.186156787897386 -0.694746590606866 0.694746590606866
outer loop
vertex 50.25 -0.433012701892219 0.866025403784439
vertex 50 -0.866025403784439 0.5
vertex 50.4330127018922 -0.75 0.5
endloop
endfacet
facet normal 0.0691841839943644 -0.258198889747161 -0.96361137499428
outer loop
vertex 50.25 -0.433012701892219 -0.866025403784439
vertex 50 -0.5 -0.866025403784439
vertex 50 0 -1
endloop
endfacet
facet normal 0.0691841839943644 -0.258198889747161 0.96361137499428
outer loop
vertex 50 0 1
vertex 50 -0.5 0.866025403784439
vertex 50.25 -0.433012701892219 0.866025403784439
endloop
endfacet
facet normal -0.250562807085731 -0.935113126531029 -0.250562807085733
outer loop
vertex 50 -1 0
vertex 49.5 -0.866025403784439 0
vertex 49.5669872981078 -0.75 -0.5
endloop
endfacet
facet normal -0.250562807085731 -0.935113126531029 -0.250562807085733
outer loop
vertex 50 -1 0
vertex 49.5669872981078 -0.75 -0.5
vertex 50 -0.866025403784439 -0.5
endloop
endfacet
facet normal -0.250562807085733 -0.935113126531029 0.250562807085733
outer loop
vertex 50 -0.866025403784439 0.5
vertex 49.5669872981078 -0.75 0.5
vertex 49.5 -0.866025403784439 0
endloop
endfacet
facet normal -0.250562807085733 -0.935113126531029 0.250562807085733
outer loop
vertex 50 -0.866025403784439 0.5
vertex 49.5 -0.866025403784439 0
vertex 50 -1 0
endloop
endfacet
facet normal -0.186156787897386 -0.694746590606866 -0.694746590606865
outer loop
vertex 50 -0.866025403784439 -0.5
vertex 49.5669872981078 -0.75 -0.5
vertex 49.75 -0.433012701892219 -0.866025403784439
endloop
endfacet
facet normal -0.186156787897386 -0.694746590606866 -0.694746590606865
outer loop
vertex 50 -0.866025403784439 -0.5
vertex 49.75 -0.433012701892219 -0.866025403784439
vertex 50 -0.5 -0.866025403784439
endloop
endfacet
facet normal -0.186156787897386 -0.694746590606866 0.694746590606865
outer loop
vertex 50 -0.5 0.866025403784439
vertex 49.75 -0.433012701892219 0.866025403784439
vertex 49.5669872981078 -0.75 0.5
endloop
endfacet
facet normal -0.186156787897386 -0.694746590606866 0.694746590606865
outer loop
vertex 50 -0.5 0.866025403784439
vertex 49.5669872981078 -0.75 0.5
vertex 50 -0.866025403784439 0.5
endloop
endfacet
facet normal -0.0691841839943643 -0.258198889747161 -0.96361137499428
outer loop
vertex 50 -0.5 -0.866025403784439
vertex 49.75 -0.433012701892219 -0.866025403784439
vertex 50 0 -1
endloop
endfacet
facet normal -0.0691841839943643 -0.258198889747161 0.96361137499428
outer loop
vertex 50 0 1
vertex 49.75 -0.433012701892219 0.866025403784439
vertex 50 -0.5 0.866025403784439
endloop
endfacet
facet normal -0.684550319445295 -0.684550319445299 -0.250562807085734
outer loop
vertex 49.5 -0.866025403784439 0
vertex 49.1339745962156 -0.5 0
vertex 49.25 -0.433012701892219 -0.5
endloop
endfacet
facet normal -0.684550319445295 -0.684550319445299 -0.250562807085734
outer loop
vertex 49.5 -0.866025403784439 0
vertex 49.25 -0.433012701892219 -0.5
vertex 49.5669872981078 -0.75 -0.5
endloop
endfacet
facet normal -0.684550319445295 -0.6845503194453 0.250562807085734
outer loop
vertex 49.5669872981078 -0.75 0.5
vertex 49.25 -0.433012701892219 0.5
vertex 49.1339745962156 -0.5 0
endloop
endfacet
facet normal -0.684550319445295 -0.6845503194453 0.250562807085734
outer loop
vertex 49.5669872981078 -0.75 0.5
vertex 49.1339745962156 -0.5 0
vertex 49.5 -0.866025403784439 0
endloop
endfacet
facet normal -0.508589802709478 -0.508589802709481 -0.694746590606867
outer loop
vertex 49.5669872981078 -0.75 -0.5
vertex 49.25 -0.433012701892219 -0.5
vertex 49.5669872981078 -0.25 -0.866025403784439
endloop
endfacet
facet normal -0.508589802709478 -0.508589802709481 -0.694746590606867
outer loop
vertex 49.5669872981078 -0.75 -0.5
vertex 49.5669872981078 -0.25 -0.866025403784439
vertex 49.75 -0.433012701892219 -0.866025403784439
endloop
endfacet
facet normal -0.508589802709482 -0.508589802709475 0.694746590606868
outer loop
vertex 49.75 -0.433012701892219 0.866025403784439
vertex 49.5669872981078 -0.25 0.866025403784439
vertex 49.25 -0.433012701892219 0.5
endloop
endfacet
facet normal -0.508589802709482 -0.508589802709475 0.694746590606868
outer loop
vertex 49.75 -0.433012701892219 0.866025403784439
vertex 49.25 -0.433012701892219 0.5
vertex 49.5669872981078 -0.75 0.5
endloop
endfacet
facet normal -0.189014705752798 -0.189014705752796 -0.96361137499428
outer loop
vertex 49.75 -0.433012701892219 -0.866025403784439
vertex 49.5669872981078 -0.25 -0.866025403784439
vertex 50 0 -1
endloop
endfacet
facet normal -0.189014705752798 -0.189014705752796 0.96361137499428
outer loop
vertex 50 0 1
vertex 49.5669872981078 -0.25 0.866025403784439
vertex 49.75 -0.433012701892219 0.866025403784439
endloop
endfacet
facet normal -0.935113126531032 -0.250562807085728 -0.250562807085728
outer loop
vertex 49.1339745962156 -0.5 0
vertex 49 -1.22460635382238E-16 0
vertex 49.1339745962156 -1.06054021204601E-16 -0.5
endloop
endfacet
facet normal -0.935113126531032 -0.250562807085728 -0.250562807085728
outer loop
vertex 49.1339745962156 -0.5 0
vertex 49.1339745962156 -1.06054021204601E-16 -0.5
vertex 49.25 -0.433012701892219 -0.5
endloop
endfacet
facet normal -0.935113126531029 -0.250562807085737 0.250562807085727
outer loop
vertex 49.25 -0.433012701892219 0.5
vertex 49.1339745962156 -1.06054021204601E-16 0.5
vertex 49 -1.22460635382238E-16 0
endloop
endfacet
facet normal -0.935113126531029 -0.250562807085737 0.250562807085727
outer loop
vertex 49.25 -0.433012701892219 0.5
vertex 49 -1.22460635382238E-16 0
vertex 49.1339745962156 -0.5 0
endloop
endfacet
facet normal -0.694746590606863 -0.186156787897389 -0.694746590606868
outer loop
vertex 49.25 -0.433012701892219 -0.5
vertex 49.1339745962156 -1.06054021204601E-16 -0.5
vertex 49.5 -6.12303176911189E-17 -0.866025403784439
endloop
endfacet
facet normal -0.694746590606863 -0.186156787897389 -0.694746590606868
outer loop
vertex 49.25 -0.433012701892219 -0.5
vertex 49.5 -6.12303176911189E-17 -0.866025403784439
vertex 49.5669872981078 -0.25 -0.866025403784439
endloop
endfacet
facet normal -0.694746590606863 -0.186156787897391 0.694746590606867
outer loop
vertex 49.5669872981078 -0.25 0.866025403784439
vertex 49.5 -6.12303176911189E-17 0.866025403784439
vertex 49.1339745962156 -1.06054021204601E-16 0.5
endloop
endfacet
facet normal -0.694746590606863 -0.186156787897391 0.694746590606867
outer loop
vertex 49.5669872981078 -0.25 0.866025403784439
vertex 49.1339745962156 -1.06054021204601E-16 0.5
vertex 49.25 -0.433012701892219 0.5
endloop
endfacet
facet normal -0.258198889747161 -0.0691841839943668 -0.96361137499428
outer loop
vertex 49.5669872981078 -0.25 -0.866025403784439
vertex 49.5 -6.12303176911189E-17 -0.866025403784439
vertex 50 0 -1
endloop
endfacet
facet normal -0.258198889747161 -0.0691841839943668 0.96361137499428
outer loop
vertex 50 0 1
vertex 49.5 -6.12303176911189E-17 0.866025403784439
vertex 49.5669872981078 -0.25 0.866025403784439
endloop
endfacet
facet normal -0.935113126531029 0.250562807085727 -0.250562807085735
outer loop
vertex 49 -1.22460635382238E-16 0
vertex 49.1339745962156 0.5 0
vertex 49.25 0.433012701892219 -0.5
endloop
endfacet
facet normal -0.935113126531029 0.250562807085727 -0.250562807085735
outer loop
vertex 49 -1.22460635382238E-16 0
vertex 49.25 0.433012701892219 -0.5
vertex 49.1339745962156 -1.06054021204601E-16 -0.5
endloop
endfacet
facet normal -0.935113126531027 0.250562807085736 0.250562807085736
outer loop
vertex 49.1339745962156 -1.06054021204601E-16 0.5
vertex 49.25 0.433012701892219 0.5
vertex 49.1339745962156 0.5 0
endloop
endfacet
facet normal -0.935113126531027 0.250562807085736 0.250562807085736
outer loop
vertex 49.1339745962156 -1.06054021204601E-16 0.5
vertex 49.1339745962156 0.5 0
vertex 49 -1.22460635382238E-16 0
endloop
endfacet
facet normal -0.694746590606862 0.186156787897388 -0.694746590606869
outer loop
vertex 49.1339745962156 -1.06054021204601E-16 -0.5
vertex 49.25 0.433012701892219 -0.5
vertex 49.5669872981078 0.25 -0.866025403784439
endloop
endfacet
facet normal -0.694746590606862 0.186156787897388 -0.694746590606869
outer loop
vertex 49.1339745962156 -1.06054021204601E-16 -0.5
vertex 49.5669872981078 0.25 -0.866025403784439
vertex 49.5 -6.12303176911189E-17 -0.866025403784439
endloop
endfacet
facet normal -0.694746590606861 0.186156787897391 0.694746590606869
outer loop
vertex 49.5 -6.12303176911189E-17 0.866025403784439
vertex 49.5669872981078 0.25 0.866025403784439
vertex 49.25 0.433012701892219 0.5
endloop
endfacet
facet normal -0.694746590606861 0.186156787897391 0.694746590606869
outer loop
vertex 49.5 -6.12303176911189E-17 0.866025403784439
vertex 49.25 0.433012701892219 0.5
vertex 49.1339745962156 -1.06054021204601E-16 0.5
endloop
endfacet
facet normal -0.258198889747161 0.0691841839943668 -0.96361137499428
outer loop
vertex 49.5 -6.12303176911189E-17 -0.866025403784439
vertex 49.5669872981078 0.25 -0.866025403784439
vertex 50 0 -1
endloop
endfacet
facet normal -0.258198889747161 0.0691841839943668 0.96361137499428
outer loop
vertex 50 0 1
vertex 49.5669872981078 0.25 0.866025403784439
vertex 49.5 -6.12303176911189E-17 0.866025403784439
endloop
endfacet
facet normal -0.684550319445295 0.6845503194453 -0.250562807085735
outer loop
vertex 49.1339745962156 0.5 0
vertex 49.5 0.866025403784438 0
vertex 49.5669872981078 0.75 -0.5
endloop
endfacet
facet normal -0.684550319445295 0.6845503194453 -0.250562807085735
outer loop
vertex 49.1339745962156 0.5 0
vertex 49.5669872981078 0.75 -0.5
vertex 49.25 0.433012701892219 -0.5
endloop
endfacet
facet normal -0.684550319445295 0.6845503194453 0.250562807085735
outer loop
vertex 49.25 0.433012701892219 0.5
vertex 49.5669872981078 0.75 0.5
vertex 49.5 0.866025403784438 0
endloop
endfacet
facet normal -0.684550319445295 0.6845503194453 0.250562807085735
outer loop
vertex 49.25 0.433012701892219 0.5
vertex 49.5 0.866025403784438 0
vertex 49.1339745962156 0.5 0
endloop
endfacet
facet normal -0.508589802709479 0.508589802709483 -0.694746590606864
outer loop
vertex 49.25 0.433012701892219 -0.5
vertex 49.5669872981078 0.75 -0.5
vertex 49.75 0.433012701892219 -0.866025403784439
endloop
endfacet
facet normal -0.508589802709479 0.508589802709483 -0.694746590606864
outer loop
vertex 49.25 0.433012701892219 -0.5
vertex 49.75 0.433012701892219 -0.866025403784439
vertex 49.5669872981078 0.25 -0.866025403784439
endloop
endfacet
facet normal -0.508589802709485 0.508589802709479 0.694746590606863
outer loop
vertex 49.5669872981078 0.25 0.866025403784439
vertex 49.75 0.433012701892219 0.866025403784439
vertex 49.5669872981078 0.75 0.5
endloop
endfacet
facet normal -0.508589802709485 0.508589802709479 0.694746590606863
outer loop
vertex 49.5669872981078 0.25 0.866025403784439
vertex 49.5669872981078 0.75 0.5
vertex 49.25 0.433012701892219 0.5
endloop
endfacet
facet normal -0.189014705752798 0.189014705752796 -0.96361137499428
outer loop
vertex 49.5669872981078 0.25 -0.866025403784439
vertex 49.75 0.433012701892219 -0.866025403784439
vertex 50 0 -1
endloop
endfacet
facet normal -0.189014705752798 0.189014705752796 0.96361137499428
outer loop
vertex 50 0 1
vertex 49.75 0.433012701892219 0.866025403784439
vertex 49.5669872981078 0.25 0.866025403784439
endloop
endfacet
facet normal -0.250562807085732 0.935113126531029 -0.250562807085731
outer loop
vertex 49.5 0.866025403784438 0
vertex 50 1 0
vertex 50 0.866025403784439 -0.5
endloop
endfacet
facet normal -0.250562807085732 0.935113126531029 -0.250562807085731
outer loop
vertex 49.5 0.866025403784438 0
vertex 50 0.866025403784439 -0.5
vertex 49.5669872981078 0.75 -0.5
endloop
endfacet
facet normal -0.250562807085733 0.935113126531029 0.250562807085731
outer loop
vertex 49.5669872981078 0.75 0.5
vertex 50 0.866025403784439 0.5
vertex 50 1 0
endloop
endfacet
facet normal -0.250562807085733 0.935113126531029 0.250562807085731
outer loop
vertex 49.5669872981078 0.75 0.5
vertex 50 1 0
vertex 49.5 0.866025403784438 0
endloop
endfacet
facet normal -0.186156787897387 0.694746590606866 -0.694746590606866
outer loop
vertex 49.5669872981078 0.75 -0.5
vertex 50 0.866025403784439 -0.5
vertex 50 0.5 -0.866025403784439
endloop
endfacet
facet normal -0.186156787897387 0.694746590606866 -0.694746590606866
outer loop
vertex 49.5669872981078 0.75 -0.5
vertex 50 0.5 -0.866025403784439
vertex 49.75 0.433012701892219 -0.866025403784439
endloop
endfacet
facet normal -0.186156787897386 0.694746590606866 0.694746590606866
outer loop
vertex 49.75 0.433012701892219 0.866025403784439
vertex 50 0.5 0.866025403784439
vertex 50 0.866025403784439 0.5
endloop
endfacet
facet normal -0.186156787897386 0.694746590606866 0.694746590606866
outer loop
vertex 49.75 0.433012701892219 0.866025403784439
vertex 50 0.866025403784439 0.5
vertex 49.5669872981078 0.75 0.5
endloop
endfacet
facet normal -0.0691841839943645 0.258198889747161 -0.96361137499428
outer loop
vertex 49.75 0.433012701892219 -0.866025403784439
vertex 50 0.5 -0.866025403784439
vertex 50 0 -1
endloop
endfacet
facet normal -0.0691841839943645 0.258198889747161 0.96361137499428
outer loop
vertex 50 0 1
vertex 50 0.5 0.866025403784439
vertex 49.75 0.433012701892219 0.866025403784439
endloop
endfacet
facet normal 0.250562807085732 0.935113126531029 -0.250562807085733
outer loop
vertex 50 1 0
vertex 50.5 0.866025403784439 0
vertex 50.4330127018922 0.75 -0.5
endloop
endfacet
facet normal 0.250562807085732 0.935113126531029 -0.250562807085733
outer loop
vertex 50 1 0
vertex 50.4330127018922 0.75 -0.5
vertex 50 0.866025403784439 -0.5
endloop
endfacet
facet normal 0.250562807085733 0.935113126531029 0.250562807085733
outer loop
vertex 50 0.866025403784439 0.5
vertex 50.4330127018922 0.75 0.5
vertex 50.5 0.866025403784439 0
endloop
endfacet
facet normal 0.250562807085733 0.935113126531029 0.250562807085733
outer loop
vertex 50 0.866025403784439 0.5
vertex 50.5 0.866025403784439 0
vertex 50 1 0
endloop
endfacet
facet normal 0.186156787897387 0.694746590606866 -0.694746590606865
outer loop
vertex 50 0.866025403784439 -0.5
vertex 50.4330127018922 0.75 -0.5
vertex 50.25 0.433012701892219 -0.866025403784439
endloop
endfacet
facet normal 0.186156787897387 0.694746590606866 -0.694746590606865
outer loop
vertex 50 0.866025403784439 -0.5
vertex 50.25 0.433012701892219 -0.866025403784439
vertex 50 0.5 -0.866025403784439
endloop
endfacet
facet normal 0.186156787897386 0.694746590606866 0.694746590606865
outer loop
vertex 50 0.5 0.866025403784439
vertex 50.25 0.433012701892219 0.866025403784439
vertex 50.4330127018922 0.75 0.5
endloop
endfacet
facet normal 0.186156787897386 0.694746590606866 0.694746590606865
outer loop
vertex 50 0.5 0.866025403784439
vertex 50.4330127018922 0.75 0.5
vertex 50 0.866025403784439 0.5
endloop
endfacet
facet normal 0.0691841839943644 0.258198889747161 -0.96361137499428
outer loop
vertex 50 0.5 -0.866025403784439
vertex 50.25 0.433012701892219 -0.866025403784439
vertex 50 0 -1
endloop
endfacet
facet normal 0.0691841839943643 0.258198889747161 0.96361137499428
outer loop
vertex 50 0 1
vertex 50.25 0.433012701892219 0.866025403784439
vertex 50 0.5 0.866025403784439
endloop
endfacet
facet normal 0.684550319445295 0.6845503194453 -0.250562807085735
outer loop
vertex 50.5 0.866025403784439 0
vertex 50.8660254037844 0.5 0
vertex 50.75 0.43301270189222 -0.5
endloop
endfacet
facet normal 0.684550319445295 0.6845503194453 -0.250562807085735
outer loop
vertex 50.5 0.866025403784439 0
vertex 50.75 0.43301270189222 -0.5
vertex 50.4330127018922 0.75 -0.5
endloop
endfacet
facet normal 0.684550319445294 0.6845503194453 0.250562807085734
outer loop
vertex 50.4330127018922 0.75 0.5
vertex 50.75 0.43301270189222 0.5
vertex 50.8660254037844 0.5 0
endloop
endfacet
facet normal 0.684550319445294 0.6845503194453 0.250562807085734
outer loop
vertex 50.4330127018922 0.75 0.5
vertex 50.8660254037844 0.5 0
vertex 50.5 0.866025403784439 0
endloop
endfacet
facet normal 0.508589802709477 0.508589802709482 -0.694746590606867
outer loop
vertex 50.4330127018922 0.75 -0.5
vertex 50.75 0.43301270189222 -0.5
vertex 50.4330127018922 0.25 -0.866025403784439
endloop
endfacet
facet normal 0.508589802709477 0.508589802709482 -0.694746590606867
outer loop
vertex 50.4330127018922 0.75 -0.5
vertex 50.4330127018922 0.25 -0.866025403784439
vertex 50.25 0.433012701892219 -0.866025403784439
endloop
endfacet
facet normal 0.508589802709482 0.508589802709476 0.694746590606868
outer loop
vertex 50.25 0.433012701892219 0.866025403784439
vertex 50.4330127018922 0.25 0.866025403784439
vertex 50.75 0.43301270189222 0.5
endloop
endfacet
facet normal 0.508589802709482 0.508589802709476 0.694746590606868
outer loop
vertex 50.25 0.433012701892219 0.866025403784439
vertex 50.75 0.43301270189222 0.5
vertex 50.4330127018922 0.75 0.5
endloop
endfacet
facet normal 0.189014705752798 0.189014705752796 -0.96361137499428
outer loop
vertex 50.25 0.433012701892219 -0.866025403784439
vertex 50.4330127018922 0.25 -0.866025403784439
vertex 50 0 -1
endloop
endfacet
facet normal 0.189014705752798 0.189014705752796 0.96361137499428
outer loop
vertex 50 0 1
vertex 50.4330127018922 0.25 0.866025403784439
vertex 50.25 0.433012701892219 0.866025403784439
endloop
endfacet
facet normal 0.935113126531032 0.250562807085728 -0.250562807085728
outer loop
vertex 50.8660254037844 0.5 0
vertex 51 0 0
vertex 50.8660254037844 0 -0.5
endloop
endfacet
facet normal 0.935113126531032 0.250562807085728 -0.250562807085728
outer loop
vertex 50.8660254037844 0.5 0
vertex 50.8660254037844 0 -0.5
vertex 50.75 0.43301270189222 -0.5
endloop
endfacet
facet normal 0.935113126531029 0.250562807085737 0.250562807085727
outer loop
vertex 50.75 0.43301270189222 0.5
vertex 50.8660254037844 0 0.5
vertex 51 0 0
endloop
endfacet
facet normal 0.935113126531029 0.250562807085737 0.250562807085727
outer loop
vertex 50.75 0.43301270189222 0.5
vertex 51 0 0
vertex 50.8660254037844 0.5 0
endloop
endfacet
facet normal 0.694746590606863 0.186156787897389 -0.694746590606868
outer loop
vertex 50.75 0.43301270189222 -0.5
vertex 50.8660254037844 0 -0.5
vertex 50.5 0 -0.866025403784439
endloop
endfacet
facet normal 0.694746590606863 0.186156787897389 -0.694746590606868
outer loop
vertex 50.75 0.43301270189222 -0.5
vertex 50.5 0 -0.866025403784439
vertex 50.4330127018922 0.25 -0.866025403784439
endloop
endfacet
facet normal 0.694746590606863 0.186156787897391 0.694746590606867
outer loop
vertex 50.4330127018922 0.25 0.866025403784439
vertex 50.5 0 0.866025403784439
vertex 50.8660254037844 0 0.5
endloop
endfacet
facet normal 0.694746590606863 0.186156787897391 0.694746590606867
outer loop
vertex 50.4330127018922 0.25 0.866025403784439
vertex 50.8660254037844 0 0.5
vertex 50.75 0.43301270189222 0.5
endloop
endfacet
facet normal 0.258198889747161 0.0691841839943667 -0.96361137499428
outer loop
vertex 50.4330127018922 0.25 -0.866025403784439
vertex 50.5 0 -0.866025403784439
vertex 50 0 -1
endloop
endfacet
facet normal 0.258198889747161 0.0691841839943667 0.96361137499428
outer loop
vertex 50 0 1
vertex 50.5 0 0.866025403784439
vertex 50.4330127018922 0.25 0.866025403784439
endloop
endfacet
endsolid UnitSphere_NoOverlap_UnitSphere
